G04 #@! TF.GenerationSoftware,KiCad,Pcbnew,(5.1.2-1)-1*
G04 #@! TF.CreationDate,2019-05-28T12:56:41-07:00*
G04 #@! TF.ProjectId,sensornode,73656e73-6f72-46e6-9f64-652e6b696361,rev?*
G04 #@! TF.SameCoordinates,Original*
G04 #@! TF.FileFunction,Soldermask,Bot*
G04 #@! TF.FilePolarity,Negative*
%FSLAX46Y46*%
G04 Gerber Fmt 4.6, Leading zero omitted, Abs format (unit mm)*
G04 Created by KiCad (PCBNEW (5.1.2-1)-1) date 2019-05-28 12:56:41*
%MOMM*%
%LPD*%
G04 APERTURE LIST*
%ADD10C,0.100000*%
G04 APERTURE END LIST*
D10*
G36*
X197681260Y-99129605D02*
G01*
X197787450Y-99169571D01*
X197883802Y-99229487D01*
X197966614Y-99307048D01*
X198016140Y-99376163D01*
X198016143Y-99376168D01*
X198016145Y-99376171D01*
X198174711Y-99650815D01*
X198469438Y-100161297D01*
X198504530Y-100238745D01*
X198530293Y-100349244D01*
X198534006Y-100462645D01*
X198524765Y-100518618D01*
X198515524Y-100574588D01*
X198515523Y-100574590D01*
X198515523Y-100574591D01*
X198475557Y-100680781D01*
X198415640Y-100777133D01*
X198338079Y-100859945D01*
X198245852Y-100926035D01*
X198142503Y-100972861D01*
X198032005Y-100998625D01*
X197918604Y-101002338D01*
X197870498Y-100994396D01*
X197806659Y-100983856D01*
X197777438Y-100972858D01*
X197700467Y-100943889D01*
X197604115Y-100883972D01*
X197521304Y-100806411D01*
X197471778Y-100737297D01*
X197471776Y-100737293D01*
X197471770Y-100737285D01*
X197018489Y-99952177D01*
X197018480Y-99952162D01*
X196983388Y-99874713D01*
X196963051Y-99787489D01*
X196957624Y-99764213D01*
X196956468Y-99728889D01*
X196953911Y-99650815D01*
X196972395Y-99538868D01*
X197012361Y-99432678D01*
X197072277Y-99336326D01*
X197149838Y-99253514D01*
X197242066Y-99187425D01*
X197345415Y-99140598D01*
X197427389Y-99121485D01*
X197455915Y-99114834D01*
X197491239Y-99113678D01*
X197569313Y-99111121D01*
X197681260Y-99129605D01*
X197681260Y-99129605D01*
G37*
G36*
X177467394Y-94889688D02*
G01*
X177336798Y-95076198D01*
X177324778Y-95097551D01*
X177317155Y-95120839D01*
X177314222Y-95145167D01*
X177316091Y-95169600D01*
X177322691Y-95193198D01*
X177333768Y-95215056D01*
X177348896Y-95234332D01*
X177367495Y-95250287D01*
X177388848Y-95262307D01*
X177412136Y-95269930D01*
X177436464Y-95272863D01*
X177460897Y-95270994D01*
X177484495Y-95264394D01*
X177498109Y-95258136D01*
X177528444Y-95241921D01*
X177632308Y-95210415D01*
X177713256Y-95202442D01*
X177767390Y-95202442D01*
X177848338Y-95210415D01*
X177952202Y-95241921D01*
X177967853Y-95250287D01*
X178047923Y-95293085D01*
X178131824Y-95361941D01*
X178200680Y-95445842D01*
X178237318Y-95514387D01*
X178251844Y-95541563D01*
X178283350Y-95645427D01*
X178293989Y-95753442D01*
X178284304Y-95851773D01*
X178283350Y-95861458D01*
X178275436Y-95887545D01*
X178270655Y-95911578D01*
X178270655Y-95936082D01*
X178275435Y-95960116D01*
X178284812Y-95982754D01*
X178298426Y-96003129D01*
X178315753Y-96020456D01*
X178336127Y-96034070D01*
X178358766Y-96043447D01*
X178382799Y-96048228D01*
X178407303Y-96048228D01*
X178431337Y-96043448D01*
X178453975Y-96034071D01*
X178471561Y-96022321D01*
X178545586Y-95982754D01*
X178568767Y-95970363D01*
X178672631Y-95938857D01*
X178753579Y-95930884D01*
X178807713Y-95930884D01*
X178888661Y-95938857D01*
X178992525Y-95970363D01*
X179015706Y-95982754D01*
X179088246Y-96021527D01*
X179172147Y-96090383D01*
X179241003Y-96174284D01*
X179271958Y-96232197D01*
X179292167Y-96270005D01*
X179323673Y-96373869D01*
X179334312Y-96481884D01*
X179324627Y-96580215D01*
X179323673Y-96589900D01*
X179315759Y-96615987D01*
X179310978Y-96640020D01*
X179310978Y-96664524D01*
X179315758Y-96688558D01*
X179325135Y-96711196D01*
X179338749Y-96731571D01*
X179356076Y-96748898D01*
X179376450Y-96762512D01*
X179399089Y-96771889D01*
X179423122Y-96776670D01*
X179447626Y-96776670D01*
X179471660Y-96771890D01*
X179494298Y-96762513D01*
X179511884Y-96750763D01*
X179585909Y-96711196D01*
X179609090Y-96698805D01*
X179712954Y-96667299D01*
X179793902Y-96659326D01*
X179848036Y-96659326D01*
X179928984Y-96667299D01*
X180032848Y-96698805D01*
X180056029Y-96711196D01*
X180128569Y-96749969D01*
X180212470Y-96818825D01*
X180281326Y-96902726D01*
X180312281Y-96960639D01*
X180332490Y-96998447D01*
X180363996Y-97102311D01*
X180374635Y-97210326D01*
X180367285Y-97284945D01*
X180363996Y-97318342D01*
X180356082Y-97344429D01*
X180351301Y-97368462D01*
X180351301Y-97392966D01*
X180356081Y-97417000D01*
X180365458Y-97439638D01*
X180379072Y-97460013D01*
X180396399Y-97477340D01*
X180416773Y-97490954D01*
X180439412Y-97500331D01*
X180463445Y-97505112D01*
X180487949Y-97505112D01*
X180511983Y-97500332D01*
X180534621Y-97490955D01*
X180552207Y-97479205D01*
X180649245Y-97427337D01*
X180649413Y-97427247D01*
X180753277Y-97395741D01*
X180834225Y-97387768D01*
X180888359Y-97387768D01*
X180969307Y-97395741D01*
X181073171Y-97427247D01*
X181073339Y-97427337D01*
X181168892Y-97478411D01*
X181252793Y-97547267D01*
X181321649Y-97631168D01*
X181352604Y-97689081D01*
X181372813Y-97726889D01*
X181404319Y-97830753D01*
X181414958Y-97938768D01*
X181405273Y-98037099D01*
X181404319Y-98046784D01*
X181396405Y-98072871D01*
X181391624Y-98096904D01*
X181391624Y-98121408D01*
X181396404Y-98145442D01*
X181405781Y-98168080D01*
X181419395Y-98188455D01*
X181436722Y-98205782D01*
X181457096Y-98219396D01*
X181479735Y-98228773D01*
X181503768Y-98233554D01*
X181528272Y-98233554D01*
X181552306Y-98228774D01*
X181574944Y-98219397D01*
X181592530Y-98207647D01*
X181666555Y-98168080D01*
X181689736Y-98155689D01*
X181793600Y-98124183D01*
X181874548Y-98116210D01*
X181928682Y-98116210D01*
X182009630Y-98124183D01*
X182113494Y-98155689D01*
X182136675Y-98168080D01*
X182209215Y-98206853D01*
X182293116Y-98275709D01*
X182361972Y-98359610D01*
X182392927Y-98417523D01*
X182413136Y-98455331D01*
X182444642Y-98559195D01*
X182455281Y-98667210D01*
X182444642Y-98775225D01*
X182413136Y-98879089D01*
X182413134Y-98879092D01*
X182361972Y-98974810D01*
X182293116Y-99058711D01*
X182209215Y-99127567D01*
X182140670Y-99164205D01*
X182113494Y-99178731D01*
X182009630Y-99210237D01*
X181928682Y-99218210D01*
X181874548Y-99218210D01*
X181793600Y-99210237D01*
X181689736Y-99178731D01*
X181662560Y-99164205D01*
X181594015Y-99127567D01*
X181510114Y-99058711D01*
X181441258Y-98974810D01*
X181390096Y-98879092D01*
X181390094Y-98879089D01*
X181358588Y-98775225D01*
X181347949Y-98667210D01*
X181358588Y-98559195D01*
X181366503Y-98533102D01*
X181371283Y-98509074D01*
X181371283Y-98484570D01*
X181366503Y-98460536D01*
X181357126Y-98437898D01*
X181343512Y-98417523D01*
X181326185Y-98400196D01*
X181305811Y-98386582D01*
X181283172Y-98377205D01*
X181259139Y-98372424D01*
X181234635Y-98372424D01*
X181210601Y-98377204D01*
X181187963Y-98386581D01*
X181170377Y-98398331D01*
X181134471Y-98417523D01*
X181073171Y-98450289D01*
X180969307Y-98481795D01*
X180888359Y-98489768D01*
X180834225Y-98489768D01*
X180753277Y-98481795D01*
X180649413Y-98450289D01*
X180622237Y-98435763D01*
X180553692Y-98399125D01*
X180469791Y-98330269D01*
X180400935Y-98246368D01*
X180349773Y-98150650D01*
X180349771Y-98150647D01*
X180318265Y-98046783D01*
X180307626Y-97938768D01*
X180318265Y-97830753D01*
X180326180Y-97804660D01*
X180330960Y-97780632D01*
X180330960Y-97756128D01*
X180326180Y-97732094D01*
X180316803Y-97709456D01*
X180303189Y-97689081D01*
X180285862Y-97671754D01*
X180265488Y-97658140D01*
X180242849Y-97648763D01*
X180218816Y-97643982D01*
X180194312Y-97643982D01*
X180170278Y-97648762D01*
X180147640Y-97658139D01*
X180130054Y-97669889D01*
X180094148Y-97689081D01*
X180032848Y-97721847D01*
X179928984Y-97753353D01*
X179848036Y-97761326D01*
X179793902Y-97761326D01*
X179712954Y-97753353D01*
X179609090Y-97721847D01*
X179581914Y-97707321D01*
X179513369Y-97670683D01*
X179429468Y-97601827D01*
X179360612Y-97517926D01*
X179309450Y-97422208D01*
X179309448Y-97422205D01*
X179277942Y-97318341D01*
X179267303Y-97210326D01*
X179277942Y-97102311D01*
X179285857Y-97076218D01*
X179290637Y-97052190D01*
X179290637Y-97027686D01*
X179285857Y-97003652D01*
X179276480Y-96981014D01*
X179262866Y-96960639D01*
X179245539Y-96943312D01*
X179225165Y-96929698D01*
X179202526Y-96920321D01*
X179178493Y-96915540D01*
X179153989Y-96915540D01*
X179129955Y-96920320D01*
X179107317Y-96929697D01*
X179089731Y-96941447D01*
X179053825Y-96960639D01*
X178992525Y-96993405D01*
X178888661Y-97024911D01*
X178807713Y-97032884D01*
X178753579Y-97032884D01*
X178672631Y-97024911D01*
X178568767Y-96993405D01*
X178541591Y-96978879D01*
X178473046Y-96942241D01*
X178389145Y-96873385D01*
X178320289Y-96789484D01*
X178269127Y-96693766D01*
X178269125Y-96693763D01*
X178237619Y-96589899D01*
X178226980Y-96481884D01*
X178237619Y-96373869D01*
X178245534Y-96347776D01*
X178250314Y-96323748D01*
X178250314Y-96299244D01*
X178245534Y-96275210D01*
X178236157Y-96252572D01*
X178222543Y-96232197D01*
X178205216Y-96214870D01*
X178184842Y-96201256D01*
X178162203Y-96191879D01*
X178138170Y-96187098D01*
X178113666Y-96187098D01*
X178089632Y-96191878D01*
X178066994Y-96201255D01*
X178049408Y-96213005D01*
X178013502Y-96232197D01*
X177952202Y-96264963D01*
X177848338Y-96296469D01*
X177767390Y-96304442D01*
X177713256Y-96304442D01*
X177632308Y-96296469D01*
X177528444Y-96264963D01*
X177501268Y-96250437D01*
X177432723Y-96213799D01*
X177348822Y-96144943D01*
X177279966Y-96061042D01*
X177228804Y-95965324D01*
X177228802Y-95965321D01*
X177197296Y-95861457D01*
X177186657Y-95753442D01*
X177192960Y-95689449D01*
X177192960Y-95664955D01*
X177188180Y-95640921D01*
X177178803Y-95618282D01*
X177165189Y-95597908D01*
X177147862Y-95580581D01*
X177127488Y-95566967D01*
X177104849Y-95557590D01*
X177080816Y-95552809D01*
X177056312Y-95552809D01*
X177032278Y-95557589D01*
X177009639Y-95566966D01*
X176989265Y-95580580D01*
X176966170Y-95605510D01*
X176835312Y-95792394D01*
X175932606Y-95160312D01*
X176564688Y-94257606D01*
X177467394Y-94889688D01*
X177467394Y-94889688D01*
G37*
G36*
X203873342Y-95554605D02*
G01*
X203979532Y-95594571D01*
X204075884Y-95654487D01*
X204158696Y-95732048D01*
X204208222Y-95801163D01*
X204208225Y-95801168D01*
X204208227Y-95801171D01*
X204495790Y-96299244D01*
X204661520Y-96586297D01*
X204696612Y-96663745D01*
X204722375Y-96774244D01*
X204726088Y-96887645D01*
X204723598Y-96902726D01*
X204707606Y-96999588D01*
X204707605Y-96999590D01*
X204707605Y-96999591D01*
X204667639Y-97105781D01*
X204607722Y-97202133D01*
X204530161Y-97284945D01*
X204437934Y-97351035D01*
X204334585Y-97397861D01*
X204224087Y-97423625D01*
X204110686Y-97427338D01*
X204062580Y-97419396D01*
X203998741Y-97408856D01*
X203956522Y-97392966D01*
X203892549Y-97368889D01*
X203796197Y-97308972D01*
X203713386Y-97231411D01*
X203663860Y-97162297D01*
X203663858Y-97162293D01*
X203663852Y-97162285D01*
X203210571Y-96377177D01*
X203210562Y-96377162D01*
X203175470Y-96299713D01*
X203150328Y-96191879D01*
X203149706Y-96189213D01*
X203148257Y-96144943D01*
X203145993Y-96075815D01*
X203164477Y-95963868D01*
X203204443Y-95857678D01*
X203264359Y-95761326D01*
X203341920Y-95678514D01*
X203434148Y-95612425D01*
X203537497Y-95565598D01*
X203619471Y-95546485D01*
X203647997Y-95539834D01*
X203683321Y-95538678D01*
X203761395Y-95536121D01*
X203873342Y-95554605D01*
X203873342Y-95554605D01*
G37*
G36*
X194337328Y-83961620D02*
G01*
X194415780Y-83969347D01*
X194516439Y-83999882D01*
X194566770Y-84015149D01*
X194705922Y-84089528D01*
X194827890Y-84189624D01*
X194927986Y-84311592D01*
X195002365Y-84450744D01*
X195002365Y-84450745D01*
X195048167Y-84601734D01*
X195063632Y-84758757D01*
X195048167Y-84915780D01*
X195017632Y-85016439D01*
X195002365Y-85066770D01*
X194927986Y-85205922D01*
X194827890Y-85327890D01*
X194705922Y-85427986D01*
X194566770Y-85502365D01*
X194516439Y-85517632D01*
X194415780Y-85548167D01*
X194337328Y-85555894D01*
X194298103Y-85559757D01*
X194219411Y-85559757D01*
X194180186Y-85555894D01*
X194101734Y-85548167D01*
X194001075Y-85517632D01*
X193950744Y-85502365D01*
X193811592Y-85427986D01*
X193689624Y-85327890D01*
X193589528Y-85205922D01*
X193515149Y-85066770D01*
X193499882Y-85016439D01*
X193469347Y-84915780D01*
X193453882Y-84758757D01*
X193469347Y-84601734D01*
X193515149Y-84450745D01*
X193515149Y-84450744D01*
X193589528Y-84311592D01*
X193689624Y-84189624D01*
X193811592Y-84089528D01*
X193950744Y-84015149D01*
X194001075Y-83999882D01*
X194101734Y-83969347D01*
X194180186Y-83961620D01*
X194219411Y-83957757D01*
X194298103Y-83957757D01*
X194337328Y-83961620D01*
X194337328Y-83961620D01*
G37*
G36*
X187619814Y-83961620D02*
G01*
X187698266Y-83969347D01*
X187798925Y-83999882D01*
X187849256Y-84015149D01*
X187988408Y-84089528D01*
X188110376Y-84189624D01*
X188210472Y-84311592D01*
X188284851Y-84450744D01*
X188284851Y-84450745D01*
X188330653Y-84601734D01*
X188346118Y-84758757D01*
X188330653Y-84915780D01*
X188300118Y-85016439D01*
X188284851Y-85066770D01*
X188210472Y-85205922D01*
X188110376Y-85327890D01*
X187988408Y-85427986D01*
X187849256Y-85502365D01*
X187798925Y-85517632D01*
X187698266Y-85548167D01*
X187619814Y-85555894D01*
X187580589Y-85559757D01*
X187501897Y-85559757D01*
X187462672Y-85555894D01*
X187384220Y-85548167D01*
X187283561Y-85517632D01*
X187233230Y-85502365D01*
X187094078Y-85427986D01*
X186972110Y-85327890D01*
X186872014Y-85205922D01*
X186797635Y-85066770D01*
X186782368Y-85016439D01*
X186751833Y-84915780D01*
X186736368Y-84758757D01*
X186751833Y-84601734D01*
X186797635Y-84450745D01*
X186797635Y-84450744D01*
X186872014Y-84311592D01*
X186972110Y-84189624D01*
X187094078Y-84089528D01*
X187233230Y-84015149D01*
X187283561Y-83999882D01*
X187384220Y-83969347D01*
X187462672Y-83961620D01*
X187501897Y-83957757D01*
X187580589Y-83957757D01*
X187619814Y-83961620D01*
X187619814Y-83961620D01*
G37*
G36*
X209860443Y-81105519D02*
G01*
X209926627Y-81112037D01*
X210096466Y-81163557D01*
X210252991Y-81247222D01*
X210288729Y-81276552D01*
X210390186Y-81359814D01*
X210473448Y-81461271D01*
X210502778Y-81497009D01*
X210586443Y-81653534D01*
X210637963Y-81823373D01*
X210655359Y-82000000D01*
X210637963Y-82176627D01*
X210586443Y-82346466D01*
X210502778Y-82502991D01*
X210473448Y-82538729D01*
X210390186Y-82640186D01*
X210288729Y-82723448D01*
X210252991Y-82752778D01*
X210096466Y-82836443D01*
X209926627Y-82887963D01*
X209860443Y-82894481D01*
X209794260Y-82901000D01*
X209405740Y-82901000D01*
X209339557Y-82894481D01*
X209273373Y-82887963D01*
X209103534Y-82836443D01*
X208947009Y-82752778D01*
X208911271Y-82723448D01*
X208809814Y-82640186D01*
X208726552Y-82538729D01*
X208697222Y-82502991D01*
X208613557Y-82346466D01*
X208562037Y-82176627D01*
X208544641Y-82000000D01*
X208562037Y-81823373D01*
X208613557Y-81653534D01*
X208697222Y-81497009D01*
X208726552Y-81461271D01*
X208809814Y-81359814D01*
X208911271Y-81276552D01*
X208947009Y-81247222D01*
X209103534Y-81163557D01*
X209273373Y-81112037D01*
X209339557Y-81105519D01*
X209405740Y-81099000D01*
X209794260Y-81099000D01*
X209860443Y-81105519D01*
X209860443Y-81105519D01*
G37*
G36*
X195728571Y-80602863D02*
G01*
X195807023Y-80610590D01*
X195907682Y-80641125D01*
X195958013Y-80656392D01*
X196097165Y-80730771D01*
X196219133Y-80830867D01*
X196319229Y-80952835D01*
X196393608Y-81091987D01*
X196393608Y-81091988D01*
X196439410Y-81242977D01*
X196454875Y-81400000D01*
X196439410Y-81557023D01*
X196410134Y-81653532D01*
X196393608Y-81708013D01*
X196319229Y-81847165D01*
X196219133Y-81969133D01*
X196097165Y-82069229D01*
X195958013Y-82143608D01*
X195907682Y-82158875D01*
X195807023Y-82189410D01*
X195728571Y-82197137D01*
X195689346Y-82201000D01*
X195610654Y-82201000D01*
X195571429Y-82197137D01*
X195492977Y-82189410D01*
X195392318Y-82158875D01*
X195341987Y-82143608D01*
X195202835Y-82069229D01*
X195080867Y-81969133D01*
X194980771Y-81847165D01*
X194906392Y-81708013D01*
X194889866Y-81653532D01*
X194860590Y-81557023D01*
X194845125Y-81400000D01*
X194860590Y-81242977D01*
X194906392Y-81091988D01*
X194906392Y-81091987D01*
X194980771Y-80952835D01*
X195080867Y-80830867D01*
X195202835Y-80730771D01*
X195341987Y-80656392D01*
X195392318Y-80641125D01*
X195492977Y-80610590D01*
X195571429Y-80602863D01*
X195610654Y-80599000D01*
X195689346Y-80599000D01*
X195728571Y-80602863D01*
X195728571Y-80602863D01*
G37*
G36*
X186228571Y-80602863D02*
G01*
X186307023Y-80610590D01*
X186407682Y-80641125D01*
X186458013Y-80656392D01*
X186597165Y-80730771D01*
X186719133Y-80830867D01*
X186819229Y-80952835D01*
X186893608Y-81091987D01*
X186893608Y-81091988D01*
X186939410Y-81242977D01*
X186954875Y-81400000D01*
X186939410Y-81557023D01*
X186910134Y-81653532D01*
X186893608Y-81708013D01*
X186819229Y-81847165D01*
X186719133Y-81969133D01*
X186597165Y-82069229D01*
X186458013Y-82143608D01*
X186407682Y-82158875D01*
X186307023Y-82189410D01*
X186228571Y-82197137D01*
X186189346Y-82201000D01*
X186110654Y-82201000D01*
X186071429Y-82197137D01*
X185992977Y-82189410D01*
X185892318Y-82158875D01*
X185841987Y-82143608D01*
X185702835Y-82069229D01*
X185580867Y-81969133D01*
X185480771Y-81847165D01*
X185406392Y-81708013D01*
X185389866Y-81653532D01*
X185360590Y-81557023D01*
X185345125Y-81400000D01*
X185360590Y-81242977D01*
X185406392Y-81091988D01*
X185406392Y-81091987D01*
X185480771Y-80952835D01*
X185580867Y-80830867D01*
X185702835Y-80730771D01*
X185841987Y-80656392D01*
X185892318Y-80641125D01*
X185992977Y-80610590D01*
X186071429Y-80602863D01*
X186110654Y-80599000D01*
X186189346Y-80599000D01*
X186228571Y-80602863D01*
X186228571Y-80602863D01*
G37*
G36*
X210508600Y-78602989D02*
G01*
X210541652Y-78613015D01*
X210572103Y-78629292D01*
X210598799Y-78651201D01*
X210620708Y-78677897D01*
X210636985Y-78708348D01*
X210647011Y-78741400D01*
X210651000Y-78781903D01*
X210651000Y-80218097D01*
X210647011Y-80258600D01*
X210636985Y-80291652D01*
X210620708Y-80322103D01*
X210598799Y-80348799D01*
X210572103Y-80370708D01*
X210541652Y-80386985D01*
X210508600Y-80397011D01*
X210468097Y-80401000D01*
X208731903Y-80401000D01*
X208691400Y-80397011D01*
X208658348Y-80386985D01*
X208627897Y-80370708D01*
X208601201Y-80348799D01*
X208579292Y-80322103D01*
X208563015Y-80291652D01*
X208552989Y-80258600D01*
X208549000Y-80218097D01*
X208549000Y-78781903D01*
X208552989Y-78741400D01*
X208563015Y-78708348D01*
X208579292Y-78677897D01*
X208601201Y-78651201D01*
X208627897Y-78629292D01*
X208658348Y-78613015D01*
X208691400Y-78602989D01*
X208731903Y-78599000D01*
X210468097Y-78599000D01*
X210508600Y-78602989D01*
X210508600Y-78602989D01*
G37*
G36*
X187619814Y-77244106D02*
G01*
X187698266Y-77251833D01*
X187798925Y-77282368D01*
X187849256Y-77297635D01*
X187988408Y-77372014D01*
X188110376Y-77472110D01*
X188210472Y-77594078D01*
X188284851Y-77733230D01*
X188284851Y-77733231D01*
X188330653Y-77884220D01*
X188346118Y-78041243D01*
X188330653Y-78198266D01*
X188300118Y-78298925D01*
X188284851Y-78349256D01*
X188210472Y-78488408D01*
X188110376Y-78610376D01*
X187988408Y-78710472D01*
X187849256Y-78784851D01*
X187798925Y-78800118D01*
X187698266Y-78830653D01*
X187619814Y-78838380D01*
X187580589Y-78842243D01*
X187501897Y-78842243D01*
X187462672Y-78838380D01*
X187384220Y-78830653D01*
X187283561Y-78800118D01*
X187233230Y-78784851D01*
X187094078Y-78710472D01*
X186972110Y-78610376D01*
X186872014Y-78488408D01*
X186797635Y-78349256D01*
X186782368Y-78298925D01*
X186751833Y-78198266D01*
X186736368Y-78041243D01*
X186751833Y-77884220D01*
X186797635Y-77733231D01*
X186797635Y-77733230D01*
X186872014Y-77594078D01*
X186972110Y-77472110D01*
X187094078Y-77372014D01*
X187233230Y-77297635D01*
X187283561Y-77282368D01*
X187384220Y-77251833D01*
X187462672Y-77244106D01*
X187501897Y-77240243D01*
X187580589Y-77240243D01*
X187619814Y-77244106D01*
X187619814Y-77244106D01*
G37*
G36*
X194337328Y-77244106D02*
G01*
X194415780Y-77251833D01*
X194516439Y-77282368D01*
X194566770Y-77297635D01*
X194705922Y-77372014D01*
X194827890Y-77472110D01*
X194927986Y-77594078D01*
X195002365Y-77733230D01*
X195002365Y-77733231D01*
X195048167Y-77884220D01*
X195063632Y-78041243D01*
X195048167Y-78198266D01*
X195017632Y-78298925D01*
X195002365Y-78349256D01*
X194927986Y-78488408D01*
X194827890Y-78610376D01*
X194705922Y-78710472D01*
X194566770Y-78784851D01*
X194516439Y-78800118D01*
X194415780Y-78830653D01*
X194337328Y-78838380D01*
X194298103Y-78842243D01*
X194219411Y-78842243D01*
X194180186Y-78838380D01*
X194101734Y-78830653D01*
X194001075Y-78800118D01*
X193950744Y-78784851D01*
X193811592Y-78710472D01*
X193689624Y-78610376D01*
X193589528Y-78488408D01*
X193515149Y-78349256D01*
X193499882Y-78298925D01*
X193469347Y-78198266D01*
X193453882Y-78041243D01*
X193469347Y-77884220D01*
X193515149Y-77733231D01*
X193515149Y-77733230D01*
X193589528Y-77594078D01*
X193689624Y-77472110D01*
X193811592Y-77372014D01*
X193950744Y-77297635D01*
X194001075Y-77282368D01*
X194101734Y-77251833D01*
X194180186Y-77244106D01*
X194219411Y-77240243D01*
X194298103Y-77240243D01*
X194337328Y-77244106D01*
X194337328Y-77244106D01*
G37*
G36*
X202297619Y-66347451D02*
G01*
X202335372Y-66356254D01*
X202376301Y-66374799D01*
X203149702Y-66821321D01*
X203186226Y-66847495D01*
X203212721Y-66875784D01*
X203233194Y-66908705D01*
X203246847Y-66944979D01*
X203253160Y-66983221D01*
X203251892Y-67021962D01*
X203243089Y-67059715D01*
X203224544Y-67100644D01*
X202503023Y-68350357D01*
X202476848Y-68386884D01*
X202448560Y-68413378D01*
X202415638Y-68433851D01*
X202379364Y-68447504D01*
X202341122Y-68453817D01*
X202302381Y-68452549D01*
X202264628Y-68443746D01*
X202223699Y-68425201D01*
X201450298Y-67978679D01*
X201413774Y-67952505D01*
X201387279Y-67924216D01*
X201366806Y-67891295D01*
X201353153Y-67855021D01*
X201346840Y-67816779D01*
X201348108Y-67778038D01*
X201356911Y-67740285D01*
X201375456Y-67699356D01*
X202096977Y-66449643D01*
X202123152Y-66413116D01*
X202151440Y-66386622D01*
X202184362Y-66366149D01*
X202220636Y-66352496D01*
X202258878Y-66346183D01*
X202297619Y-66347451D01*
X202297619Y-66347451D01*
G37*
G36*
X180315589Y-66328876D02*
G01*
X180414893Y-66348629D01*
X180555206Y-66406748D01*
X180681484Y-66491125D01*
X180788875Y-66598516D01*
X180873252Y-66724794D01*
X180931371Y-66865107D01*
X180961000Y-67014063D01*
X180961000Y-67165937D01*
X180931371Y-67314893D01*
X180873252Y-67455206D01*
X180788875Y-67581484D01*
X180681484Y-67688875D01*
X180555206Y-67773252D01*
X180414893Y-67831371D01*
X180334510Y-67847360D01*
X180265938Y-67861000D01*
X180114062Y-67861000D01*
X180045490Y-67847360D01*
X179965107Y-67831371D01*
X179824794Y-67773252D01*
X179698516Y-67688875D01*
X179591125Y-67581484D01*
X179506748Y-67455206D01*
X179448629Y-67314893D01*
X179419000Y-67165937D01*
X179419000Y-67014063D01*
X179448629Y-66865107D01*
X179506748Y-66724794D01*
X179591125Y-66598516D01*
X179698516Y-66491125D01*
X179824794Y-66406748D01*
X179965107Y-66348629D01*
X180064411Y-66328876D01*
X180114062Y-66319000D01*
X180265938Y-66319000D01*
X180315589Y-66328876D01*
X180315589Y-66328876D01*
G37*
G36*
X200790829Y-65513290D02*
G01*
X200835820Y-65523781D01*
X200915718Y-65542410D01*
X200915720Y-65542411D01*
X201032523Y-65595334D01*
X201136758Y-65670027D01*
X201224421Y-65763624D01*
X201292137Y-65872521D01*
X201337308Y-65992535D01*
X201358197Y-66119062D01*
X201354002Y-66247224D01*
X201344795Y-66286709D01*
X201324882Y-66372113D01*
X201285218Y-66459654D01*
X201005015Y-66944979D01*
X200978244Y-66991347D01*
X200922265Y-67069466D01*
X200828668Y-67157129D01*
X200719771Y-67224845D01*
X200599757Y-67270016D01*
X200536493Y-67280461D01*
X200473232Y-67290905D01*
X200473230Y-67290905D01*
X200345069Y-67286710D01*
X200300078Y-67276219D01*
X200220180Y-67257590D01*
X200103375Y-67204666D01*
X199999139Y-67129972D01*
X199911478Y-67036377D01*
X199897602Y-67014062D01*
X199843761Y-66927479D01*
X199798590Y-66807465D01*
X199777701Y-66680938D01*
X199781896Y-66552777D01*
X199796271Y-66491125D01*
X199811016Y-66427888D01*
X199850680Y-66340347D01*
X200157653Y-65808654D01*
X200213634Y-65730533D01*
X200307229Y-65642872D01*
X200307230Y-65642871D01*
X200416127Y-65575155D01*
X200536140Y-65529984D01*
X200599403Y-65519540D01*
X200662665Y-65509095D01*
X200662667Y-65509095D01*
X200790829Y-65513290D01*
X200790829Y-65513290D01*
G37*
G36*
X199058778Y-64513290D02*
G01*
X199103769Y-64523781D01*
X199183667Y-64542410D01*
X199183669Y-64542411D01*
X199300472Y-64595334D01*
X199404707Y-64670027D01*
X199492370Y-64763624D01*
X199560086Y-64872521D01*
X199605257Y-64992535D01*
X199626146Y-65119062D01*
X199621951Y-65247224D01*
X199612744Y-65286709D01*
X199592831Y-65372113D01*
X199553167Y-65459654D01*
X199246194Y-65991346D01*
X199218203Y-66030407D01*
X199190214Y-66069466D01*
X199096617Y-66157129D01*
X198987720Y-66224845D01*
X198867706Y-66270016D01*
X198804443Y-66280460D01*
X198741181Y-66290905D01*
X198741179Y-66290905D01*
X198613018Y-66286710D01*
X198568027Y-66276219D01*
X198488129Y-66257590D01*
X198371324Y-66204666D01*
X198267088Y-66129972D01*
X198179427Y-66036377D01*
X198152166Y-65992537D01*
X198111710Y-65927479D01*
X198066539Y-65807465D01*
X198045650Y-65680938D01*
X198049845Y-65552777D01*
X198060336Y-65507786D01*
X198078965Y-65427888D01*
X198118629Y-65340347D01*
X198425602Y-64808654D01*
X198481583Y-64730533D01*
X198575178Y-64642872D01*
X198575179Y-64642871D01*
X198684076Y-64575155D01*
X198804089Y-64529984D01*
X198867352Y-64519540D01*
X198930614Y-64509095D01*
X198930616Y-64509095D01*
X199058778Y-64513290D01*
X199058778Y-64513290D01*
G37*
G36*
X184714998Y-63788876D02*
G01*
X184814302Y-63808629D01*
X184954615Y-63866748D01*
X185080893Y-63951125D01*
X185188284Y-64058516D01*
X185272661Y-64184794D01*
X185330780Y-64325107D01*
X185350533Y-64424411D01*
X185360409Y-64474062D01*
X185360409Y-64625938D01*
X185351639Y-64670027D01*
X185330780Y-64774893D01*
X185272661Y-64915206D01*
X185188284Y-65041484D01*
X185080893Y-65148875D01*
X184954615Y-65233252D01*
X184814302Y-65291371D01*
X184714998Y-65311124D01*
X184665347Y-65321000D01*
X184513471Y-65321000D01*
X184463820Y-65311124D01*
X184364516Y-65291371D01*
X184224203Y-65233252D01*
X184097925Y-65148875D01*
X183990534Y-65041484D01*
X183906157Y-64915206D01*
X183848038Y-64774893D01*
X183827179Y-64670027D01*
X183818409Y-64625938D01*
X183818409Y-64474062D01*
X183828285Y-64424411D01*
X183848038Y-64325107D01*
X183906157Y-64184794D01*
X183990534Y-64058516D01*
X184097925Y-63951125D01*
X184224203Y-63866748D01*
X184364516Y-63808629D01*
X184463820Y-63788876D01*
X184513471Y-63779000D01*
X184665347Y-63779000D01*
X184714998Y-63788876D01*
X184714998Y-63788876D01*
G37*
G36*
X197326728Y-63513290D02*
G01*
X197371719Y-63523781D01*
X197451617Y-63542410D01*
X197451619Y-63542411D01*
X197568422Y-63595334D01*
X197672657Y-63670027D01*
X197760320Y-63763624D01*
X197828036Y-63872521D01*
X197873207Y-63992535D01*
X197873207Y-63992537D01*
X197892894Y-64111778D01*
X197894096Y-64119062D01*
X197889901Y-64247224D01*
X197889900Y-64247227D01*
X197860781Y-64372113D01*
X197821117Y-64459654D01*
X197514144Y-64991346D01*
X197458164Y-65069466D01*
X197364567Y-65157129D01*
X197255670Y-65224845D01*
X197135656Y-65270016D01*
X197072392Y-65280461D01*
X197009131Y-65290905D01*
X197009129Y-65290905D01*
X196880968Y-65286710D01*
X196835977Y-65276219D01*
X196756079Y-65257590D01*
X196639274Y-65204666D01*
X196535038Y-65129972D01*
X196447377Y-65036377D01*
X196420116Y-64992537D01*
X196379660Y-64927479D01*
X196334489Y-64807465D01*
X196313600Y-64680938D01*
X196317795Y-64552777D01*
X196336149Y-64474062D01*
X196346915Y-64427888D01*
X196386579Y-64340347D01*
X196693552Y-63808654D01*
X196749533Y-63730533D01*
X196843128Y-63642872D01*
X196843129Y-63642871D01*
X196952026Y-63575155D01*
X197072039Y-63529984D01*
X197135303Y-63519539D01*
X197198564Y-63509095D01*
X197198566Y-63509095D01*
X197326728Y-63513290D01*
X197326728Y-63513290D01*
G37*
G36*
X181245294Y-62859171D02*
G01*
X181344598Y-62878924D01*
X181484911Y-62937043D01*
X181611189Y-63021420D01*
X181718580Y-63128811D01*
X181802957Y-63255089D01*
X181861076Y-63395402D01*
X181861076Y-63395404D01*
X181884526Y-63513291D01*
X181890705Y-63544358D01*
X181890705Y-63696232D01*
X181861076Y-63845188D01*
X181802957Y-63985501D01*
X181718580Y-64111779D01*
X181611189Y-64219170D01*
X181484911Y-64303547D01*
X181344598Y-64361666D01*
X181245294Y-64381419D01*
X181195643Y-64391295D01*
X181043767Y-64391295D01*
X180994116Y-64381419D01*
X180894812Y-64361666D01*
X180754499Y-64303547D01*
X180628221Y-64219170D01*
X180520830Y-64111779D01*
X180436453Y-63985501D01*
X180378334Y-63845188D01*
X180348705Y-63696232D01*
X180348705Y-63544358D01*
X180354885Y-63513291D01*
X180378334Y-63395404D01*
X180378334Y-63395402D01*
X180436453Y-63255089D01*
X180520830Y-63128811D01*
X180628221Y-63021420D01*
X180754499Y-62937043D01*
X180894812Y-62878924D01*
X180994116Y-62859171D01*
X181043767Y-62849295D01*
X181195643Y-62849295D01*
X181245294Y-62859171D01*
X181245294Y-62859171D01*
G37*
M02*
