G04 #@! TF.GenerationSoftware,KiCad,Pcbnew,(5.1.2-1)-1*
G04 #@! TF.CreationDate,2019-05-28T12:56:41-07:00*
G04 #@! TF.ProjectId,sensornode,73656e73-6f72-46e6-9f64-652e6b696361,rev?*
G04 #@! TF.SameCoordinates,Original*
G04 #@! TF.FileFunction,Copper,L1,Top*
G04 #@! TF.FilePolarity,Positive*
%FSLAX46Y46*%
G04 Gerber Fmt 4.6, Leading zero omitted, Abs format (unit mm)*
G04 Created by KiCad (PCBNEW (5.1.2-1)-1) date 2019-05-28 12:56:41*
%MOMM*%
%LPD*%
G04 APERTURE LIST*
%ADD10R,1.000000X2.500000*%
%ADD11R,1.800000X1.000000*%
%ADD12C,1.500000*%
%ADD13C,1.500000*%
%ADD14C,0.100000*%
%ADD15C,0.300000*%
%ADD16C,2.150000*%
%ADD17C,0.875000*%
%ADD18R,2.200000X1.600000*%
%ADD19O,2.000000X1.700000*%
%ADD20C,1.700000*%
%ADD21C,0.975000*%
%ADD22R,1.600000X2.200000*%
%ADD23C,1.000000*%
%ADD24C,1.000000*%
%ADD25C,1.200000*%
%ADD26C,1.200000*%
%ADD27C,1.600000*%
%ADD28C,1.150000*%
%ADD29C,1.050000*%
%ADD30C,1.050000*%
%ADD31C,1.750000*%
%ADD32C,0.400000*%
%ADD33R,1.060000X0.650000*%
%ADD34C,0.800000*%
%ADD35C,1.440000*%
%ADD36C,0.250000*%
%ADD37C,1.250000*%
%ADD38C,0.750000*%
G04 APERTURE END LIST*
D10*
X156200000Y-74530000D03*
X158200000Y-74530000D03*
X160200000Y-74530000D03*
X162200000Y-74530000D03*
X164200000Y-74530000D03*
X166200000Y-74530000D03*
X168200000Y-74530000D03*
X170200000Y-74530000D03*
D11*
X171700000Y-77130000D03*
X171700000Y-79130000D03*
X171700000Y-81130000D03*
X171700000Y-83130000D03*
X171700000Y-85130000D03*
X171700000Y-87130000D03*
D10*
X170200000Y-89730000D03*
X168200000Y-89730000D03*
X166200000Y-89730000D03*
X164200000Y-89730000D03*
X162200000Y-89730000D03*
X160200000Y-89730000D03*
X158200000Y-89730000D03*
X156200000Y-89730000D03*
D12*
X187541243Y-78041243D03*
D13*
X187541243Y-78041243D02*
X187541243Y-78041243D01*
D12*
X186150000Y-81400000D03*
D13*
X186150000Y-81400000D02*
X186150000Y-81400000D01*
D12*
X187541243Y-84758757D03*
D13*
X187541243Y-84758757D02*
X187541243Y-84758757D01*
D12*
X194258757Y-84758757D03*
D13*
X194258757Y-84758757D02*
X194258757Y-84758757D01*
D12*
X195650000Y-81400000D03*
D13*
X195650000Y-81400000D02*
X195650000Y-81400000D01*
D12*
X194258757Y-78041243D03*
D13*
X194258757Y-78041243D02*
X194258757Y-78041243D01*
D14*
G36*
X201475482Y-72383302D02*
G01*
X201482794Y-72384143D01*
X201489988Y-72385697D01*
X201496996Y-72387948D01*
X201503749Y-72390876D01*
X201510182Y-72394451D01*
X201516234Y-72398640D01*
X201521846Y-72403401D01*
X201526965Y-72408690D01*
X201531541Y-72414455D01*
X201535529Y-72420641D01*
X201998029Y-73221715D01*
X202001392Y-73228262D01*
X202004097Y-73235107D01*
X202006118Y-73242184D01*
X202007435Y-73249426D01*
X202008037Y-73256761D01*
X202007916Y-73264120D01*
X202007075Y-73271432D01*
X202005521Y-73278626D01*
X202003270Y-73285634D01*
X202000342Y-73292387D01*
X201996767Y-73298820D01*
X201992578Y-73304872D01*
X201987817Y-73310484D01*
X201982528Y-73315603D01*
X201976763Y-73320179D01*
X201970577Y-73324167D01*
X201840673Y-73399167D01*
X201834126Y-73402530D01*
X201827281Y-73405235D01*
X201820204Y-73407256D01*
X201812962Y-73408573D01*
X201805627Y-73409175D01*
X201798268Y-73409054D01*
X201790956Y-73408213D01*
X201783762Y-73406659D01*
X201776754Y-73404408D01*
X201770001Y-73401480D01*
X201763568Y-73397905D01*
X201757516Y-73393716D01*
X201751904Y-73388955D01*
X201746785Y-73383666D01*
X201742209Y-73377901D01*
X201738221Y-73371715D01*
X201275721Y-72570641D01*
X201272358Y-72564094D01*
X201269653Y-72557249D01*
X201267632Y-72550172D01*
X201266315Y-72542930D01*
X201265713Y-72535595D01*
X201265834Y-72528236D01*
X201266675Y-72520924D01*
X201268229Y-72513730D01*
X201270480Y-72506722D01*
X201273408Y-72499969D01*
X201276983Y-72493536D01*
X201281172Y-72487484D01*
X201285933Y-72481872D01*
X201291222Y-72476753D01*
X201296987Y-72472177D01*
X201303173Y-72468189D01*
X201433077Y-72393189D01*
X201439624Y-72389826D01*
X201446469Y-72387121D01*
X201453546Y-72385100D01*
X201460788Y-72383783D01*
X201468123Y-72383181D01*
X201475482Y-72383302D01*
X201475482Y-72383302D01*
G37*
D15*
X201636875Y-72896178D03*
D14*
G36*
X202038399Y-72058302D02*
G01*
X202045711Y-72059143D01*
X202052905Y-72060697D01*
X202059913Y-72062948D01*
X202066666Y-72065876D01*
X202073099Y-72069451D01*
X202079151Y-72073640D01*
X202084763Y-72078401D01*
X202089882Y-72083690D01*
X202094458Y-72089455D01*
X202098446Y-72095641D01*
X202560946Y-72896715D01*
X202564309Y-72903262D01*
X202567014Y-72910107D01*
X202569035Y-72917184D01*
X202570352Y-72924426D01*
X202570954Y-72931761D01*
X202570833Y-72939120D01*
X202569992Y-72946432D01*
X202568438Y-72953626D01*
X202566187Y-72960634D01*
X202563259Y-72967387D01*
X202559684Y-72973820D01*
X202555495Y-72979872D01*
X202550734Y-72985484D01*
X202545445Y-72990603D01*
X202539680Y-72995179D01*
X202533494Y-72999167D01*
X202403590Y-73074167D01*
X202397043Y-73077530D01*
X202390198Y-73080235D01*
X202383121Y-73082256D01*
X202375879Y-73083573D01*
X202368544Y-73084175D01*
X202361185Y-73084054D01*
X202353873Y-73083213D01*
X202346679Y-73081659D01*
X202339671Y-73079408D01*
X202332918Y-73076480D01*
X202326485Y-73072905D01*
X202320433Y-73068716D01*
X202314821Y-73063955D01*
X202309702Y-73058666D01*
X202305126Y-73052901D01*
X202301138Y-73046715D01*
X201838638Y-72245641D01*
X201835275Y-72239094D01*
X201832570Y-72232249D01*
X201830549Y-72225172D01*
X201829232Y-72217930D01*
X201828630Y-72210595D01*
X201828751Y-72203236D01*
X201829592Y-72195924D01*
X201831146Y-72188730D01*
X201833397Y-72181722D01*
X201836325Y-72174969D01*
X201839900Y-72168536D01*
X201844089Y-72162484D01*
X201848850Y-72156872D01*
X201854139Y-72151753D01*
X201859904Y-72147177D01*
X201866090Y-72143189D01*
X201995994Y-72068189D01*
X202002541Y-72064826D01*
X202009386Y-72062121D01*
X202016463Y-72060100D01*
X202023705Y-72058783D01*
X202031040Y-72058181D01*
X202038399Y-72058302D01*
X202038399Y-72058302D01*
G37*
D15*
X202199792Y-72571178D03*
D14*
G36*
X202601315Y-71733302D02*
G01*
X202608627Y-71734143D01*
X202615821Y-71735697D01*
X202622829Y-71737948D01*
X202629582Y-71740876D01*
X202636015Y-71744451D01*
X202642067Y-71748640D01*
X202647679Y-71753401D01*
X202652798Y-71758690D01*
X202657374Y-71764455D01*
X202661362Y-71770641D01*
X203123862Y-72571715D01*
X203127225Y-72578262D01*
X203129930Y-72585107D01*
X203131951Y-72592184D01*
X203133268Y-72599426D01*
X203133870Y-72606761D01*
X203133749Y-72614120D01*
X203132908Y-72621432D01*
X203131354Y-72628626D01*
X203129103Y-72635634D01*
X203126175Y-72642387D01*
X203122600Y-72648820D01*
X203118411Y-72654872D01*
X203113650Y-72660484D01*
X203108361Y-72665603D01*
X203102596Y-72670179D01*
X203096410Y-72674167D01*
X202966506Y-72749167D01*
X202959959Y-72752530D01*
X202953114Y-72755235D01*
X202946037Y-72757256D01*
X202938795Y-72758573D01*
X202931460Y-72759175D01*
X202924101Y-72759054D01*
X202916789Y-72758213D01*
X202909595Y-72756659D01*
X202902587Y-72754408D01*
X202895834Y-72751480D01*
X202889401Y-72747905D01*
X202883349Y-72743716D01*
X202877737Y-72738955D01*
X202872618Y-72733666D01*
X202868042Y-72727901D01*
X202864054Y-72721715D01*
X202401554Y-71920641D01*
X202398191Y-71914094D01*
X202395486Y-71907249D01*
X202393465Y-71900172D01*
X202392148Y-71892930D01*
X202391546Y-71885595D01*
X202391667Y-71878236D01*
X202392508Y-71870924D01*
X202394062Y-71863730D01*
X202396313Y-71856722D01*
X202399241Y-71849969D01*
X202402816Y-71843536D01*
X202407005Y-71837484D01*
X202411766Y-71831872D01*
X202417055Y-71826753D01*
X202422820Y-71822177D01*
X202429006Y-71818189D01*
X202558910Y-71743189D01*
X202565457Y-71739826D01*
X202572302Y-71737121D01*
X202579379Y-71735100D01*
X202586621Y-71733783D01*
X202593956Y-71733181D01*
X202601315Y-71733302D01*
X202601315Y-71733302D01*
G37*
D15*
X202762708Y-72246178D03*
D14*
G36*
X203164232Y-71408302D02*
G01*
X203171544Y-71409143D01*
X203178738Y-71410697D01*
X203185746Y-71412948D01*
X203192499Y-71415876D01*
X203198932Y-71419451D01*
X203204984Y-71423640D01*
X203210596Y-71428401D01*
X203215715Y-71433690D01*
X203220291Y-71439455D01*
X203224279Y-71445641D01*
X203686779Y-72246715D01*
X203690142Y-72253262D01*
X203692847Y-72260107D01*
X203694868Y-72267184D01*
X203696185Y-72274426D01*
X203696787Y-72281761D01*
X203696666Y-72289120D01*
X203695825Y-72296432D01*
X203694271Y-72303626D01*
X203692020Y-72310634D01*
X203689092Y-72317387D01*
X203685517Y-72323820D01*
X203681328Y-72329872D01*
X203676567Y-72335484D01*
X203671278Y-72340603D01*
X203665513Y-72345179D01*
X203659327Y-72349167D01*
X203529423Y-72424167D01*
X203522876Y-72427530D01*
X203516031Y-72430235D01*
X203508954Y-72432256D01*
X203501712Y-72433573D01*
X203494377Y-72434175D01*
X203487018Y-72434054D01*
X203479706Y-72433213D01*
X203472512Y-72431659D01*
X203465504Y-72429408D01*
X203458751Y-72426480D01*
X203452318Y-72422905D01*
X203446266Y-72418716D01*
X203440654Y-72413955D01*
X203435535Y-72408666D01*
X203430959Y-72402901D01*
X203426971Y-72396715D01*
X202964471Y-71595641D01*
X202961108Y-71589094D01*
X202958403Y-71582249D01*
X202956382Y-71575172D01*
X202955065Y-71567930D01*
X202954463Y-71560595D01*
X202954584Y-71553236D01*
X202955425Y-71545924D01*
X202956979Y-71538730D01*
X202959230Y-71531722D01*
X202962158Y-71524969D01*
X202965733Y-71518536D01*
X202969922Y-71512484D01*
X202974683Y-71506872D01*
X202979972Y-71501753D01*
X202985737Y-71497177D01*
X202991923Y-71493189D01*
X203121827Y-71418189D01*
X203128374Y-71414826D01*
X203135219Y-71412121D01*
X203142296Y-71410100D01*
X203149538Y-71408783D01*
X203156873Y-71408181D01*
X203164232Y-71408302D01*
X203164232Y-71408302D01*
G37*
D15*
X203325625Y-71921178D03*
D14*
G36*
X204871764Y-71865834D02*
G01*
X204879076Y-71866675D01*
X204886270Y-71868229D01*
X204893278Y-71870480D01*
X204900031Y-71873408D01*
X204906464Y-71876983D01*
X204912516Y-71881172D01*
X204918128Y-71885933D01*
X204923247Y-71891222D01*
X204927823Y-71896987D01*
X204931811Y-71903173D01*
X205006811Y-72033077D01*
X205010174Y-72039624D01*
X205012879Y-72046469D01*
X205014900Y-72053546D01*
X205016217Y-72060788D01*
X205016819Y-72068123D01*
X205016698Y-72075482D01*
X205015857Y-72082794D01*
X205014303Y-72089988D01*
X205012052Y-72096996D01*
X205009124Y-72103749D01*
X205005549Y-72110182D01*
X205001360Y-72116234D01*
X204996599Y-72121846D01*
X204991310Y-72126965D01*
X204985545Y-72131541D01*
X204979359Y-72135529D01*
X204178285Y-72598029D01*
X204171738Y-72601392D01*
X204164893Y-72604097D01*
X204157816Y-72606118D01*
X204150574Y-72607435D01*
X204143239Y-72608037D01*
X204135880Y-72607916D01*
X204128568Y-72607075D01*
X204121374Y-72605521D01*
X204114366Y-72603270D01*
X204107613Y-72600342D01*
X204101180Y-72596767D01*
X204095128Y-72592578D01*
X204089516Y-72587817D01*
X204084397Y-72582528D01*
X204079821Y-72576763D01*
X204075833Y-72570577D01*
X204000833Y-72440673D01*
X203997470Y-72434126D01*
X203994765Y-72427281D01*
X203992744Y-72420204D01*
X203991427Y-72412962D01*
X203990825Y-72405627D01*
X203990946Y-72398268D01*
X203991787Y-72390956D01*
X203993341Y-72383762D01*
X203995592Y-72376754D01*
X203998520Y-72370001D01*
X204002095Y-72363568D01*
X204006284Y-72357516D01*
X204011045Y-72351904D01*
X204016334Y-72346785D01*
X204022099Y-72342209D01*
X204028285Y-72338221D01*
X204829359Y-71875721D01*
X204835906Y-71872358D01*
X204842751Y-71869653D01*
X204849828Y-71867632D01*
X204857070Y-71866315D01*
X204864405Y-71865713D01*
X204871764Y-71865834D01*
X204871764Y-71865834D01*
G37*
D15*
X204503822Y-72236875D03*
D14*
G36*
X205196764Y-72428751D02*
G01*
X205204076Y-72429592D01*
X205211270Y-72431146D01*
X205218278Y-72433397D01*
X205225031Y-72436325D01*
X205231464Y-72439900D01*
X205237516Y-72444089D01*
X205243128Y-72448850D01*
X205248247Y-72454139D01*
X205252823Y-72459904D01*
X205256811Y-72466090D01*
X205331811Y-72595994D01*
X205335174Y-72602541D01*
X205337879Y-72609386D01*
X205339900Y-72616463D01*
X205341217Y-72623705D01*
X205341819Y-72631040D01*
X205341698Y-72638399D01*
X205340857Y-72645711D01*
X205339303Y-72652905D01*
X205337052Y-72659913D01*
X205334124Y-72666666D01*
X205330549Y-72673099D01*
X205326360Y-72679151D01*
X205321599Y-72684763D01*
X205316310Y-72689882D01*
X205310545Y-72694458D01*
X205304359Y-72698446D01*
X204503285Y-73160946D01*
X204496738Y-73164309D01*
X204489893Y-73167014D01*
X204482816Y-73169035D01*
X204475574Y-73170352D01*
X204468239Y-73170954D01*
X204460880Y-73170833D01*
X204453568Y-73169992D01*
X204446374Y-73168438D01*
X204439366Y-73166187D01*
X204432613Y-73163259D01*
X204426180Y-73159684D01*
X204420128Y-73155495D01*
X204414516Y-73150734D01*
X204409397Y-73145445D01*
X204404821Y-73139680D01*
X204400833Y-73133494D01*
X204325833Y-73003590D01*
X204322470Y-72997043D01*
X204319765Y-72990198D01*
X204317744Y-72983121D01*
X204316427Y-72975879D01*
X204315825Y-72968544D01*
X204315946Y-72961185D01*
X204316787Y-72953873D01*
X204318341Y-72946679D01*
X204320592Y-72939671D01*
X204323520Y-72932918D01*
X204327095Y-72926485D01*
X204331284Y-72920433D01*
X204336045Y-72914821D01*
X204341334Y-72909702D01*
X204347099Y-72905126D01*
X204353285Y-72901138D01*
X205154359Y-72438638D01*
X205160906Y-72435275D01*
X205167751Y-72432570D01*
X205174828Y-72430549D01*
X205182070Y-72429232D01*
X205189405Y-72428630D01*
X205196764Y-72428751D01*
X205196764Y-72428751D01*
G37*
D15*
X204828822Y-72799792D03*
D14*
G36*
X205521764Y-72991667D02*
G01*
X205529076Y-72992508D01*
X205536270Y-72994062D01*
X205543278Y-72996313D01*
X205550031Y-72999241D01*
X205556464Y-73002816D01*
X205562516Y-73007005D01*
X205568128Y-73011766D01*
X205573247Y-73017055D01*
X205577823Y-73022820D01*
X205581811Y-73029006D01*
X205656811Y-73158910D01*
X205660174Y-73165457D01*
X205662879Y-73172302D01*
X205664900Y-73179379D01*
X205666217Y-73186621D01*
X205666819Y-73193956D01*
X205666698Y-73201315D01*
X205665857Y-73208627D01*
X205664303Y-73215821D01*
X205662052Y-73222829D01*
X205659124Y-73229582D01*
X205655549Y-73236015D01*
X205651360Y-73242067D01*
X205646599Y-73247679D01*
X205641310Y-73252798D01*
X205635545Y-73257374D01*
X205629359Y-73261362D01*
X204828285Y-73723862D01*
X204821738Y-73727225D01*
X204814893Y-73729930D01*
X204807816Y-73731951D01*
X204800574Y-73733268D01*
X204793239Y-73733870D01*
X204785880Y-73733749D01*
X204778568Y-73732908D01*
X204771374Y-73731354D01*
X204764366Y-73729103D01*
X204757613Y-73726175D01*
X204751180Y-73722600D01*
X204745128Y-73718411D01*
X204739516Y-73713650D01*
X204734397Y-73708361D01*
X204729821Y-73702596D01*
X204725833Y-73696410D01*
X204650833Y-73566506D01*
X204647470Y-73559959D01*
X204644765Y-73553114D01*
X204642744Y-73546037D01*
X204641427Y-73538795D01*
X204640825Y-73531460D01*
X204640946Y-73524101D01*
X204641787Y-73516789D01*
X204643341Y-73509595D01*
X204645592Y-73502587D01*
X204648520Y-73495834D01*
X204652095Y-73489401D01*
X204656284Y-73483349D01*
X204661045Y-73477737D01*
X204666334Y-73472618D01*
X204672099Y-73468042D01*
X204678285Y-73464054D01*
X205479359Y-73001554D01*
X205485906Y-72998191D01*
X205492751Y-72995486D01*
X205499828Y-72993465D01*
X205507070Y-72992148D01*
X205514405Y-72991546D01*
X205521764Y-72991667D01*
X205521764Y-72991667D01*
G37*
D15*
X205153822Y-73362708D03*
D14*
G36*
X205846764Y-73554584D02*
G01*
X205854076Y-73555425D01*
X205861270Y-73556979D01*
X205868278Y-73559230D01*
X205875031Y-73562158D01*
X205881464Y-73565733D01*
X205887516Y-73569922D01*
X205893128Y-73574683D01*
X205898247Y-73579972D01*
X205902823Y-73585737D01*
X205906811Y-73591923D01*
X205981811Y-73721827D01*
X205985174Y-73728374D01*
X205987879Y-73735219D01*
X205989900Y-73742296D01*
X205991217Y-73749538D01*
X205991819Y-73756873D01*
X205991698Y-73764232D01*
X205990857Y-73771544D01*
X205989303Y-73778738D01*
X205987052Y-73785746D01*
X205984124Y-73792499D01*
X205980549Y-73798932D01*
X205976360Y-73804984D01*
X205971599Y-73810596D01*
X205966310Y-73815715D01*
X205960545Y-73820291D01*
X205954359Y-73824279D01*
X205153285Y-74286779D01*
X205146738Y-74290142D01*
X205139893Y-74292847D01*
X205132816Y-74294868D01*
X205125574Y-74296185D01*
X205118239Y-74296787D01*
X205110880Y-74296666D01*
X205103568Y-74295825D01*
X205096374Y-74294271D01*
X205089366Y-74292020D01*
X205082613Y-74289092D01*
X205076180Y-74285517D01*
X205070128Y-74281328D01*
X205064516Y-74276567D01*
X205059397Y-74271278D01*
X205054821Y-74265513D01*
X205050833Y-74259327D01*
X204975833Y-74129423D01*
X204972470Y-74122876D01*
X204969765Y-74116031D01*
X204967744Y-74108954D01*
X204966427Y-74101712D01*
X204965825Y-74094377D01*
X204965946Y-74087018D01*
X204966787Y-74079706D01*
X204968341Y-74072512D01*
X204970592Y-74065504D01*
X204973520Y-74058751D01*
X204977095Y-74052318D01*
X204981284Y-74046266D01*
X204986045Y-74040654D01*
X204991334Y-74035535D01*
X204997099Y-74030959D01*
X205003285Y-74026971D01*
X205804359Y-73564471D01*
X205810906Y-73561108D01*
X205817751Y-73558403D01*
X205824828Y-73556382D01*
X205832070Y-73555065D01*
X205839405Y-73554463D01*
X205846764Y-73554584D01*
X205846764Y-73554584D01*
G37*
D15*
X205478822Y-73925625D03*
D14*
G36*
X205001732Y-74590946D02*
G01*
X205009044Y-74591787D01*
X205016238Y-74593341D01*
X205023246Y-74595592D01*
X205029999Y-74598520D01*
X205036432Y-74602095D01*
X205042484Y-74606284D01*
X205048096Y-74611045D01*
X205053215Y-74616334D01*
X205057791Y-74622099D01*
X205061779Y-74628285D01*
X205524279Y-75429359D01*
X205527642Y-75435906D01*
X205530347Y-75442751D01*
X205532368Y-75449828D01*
X205533685Y-75457070D01*
X205534287Y-75464405D01*
X205534166Y-75471764D01*
X205533325Y-75479076D01*
X205531771Y-75486270D01*
X205529520Y-75493278D01*
X205526592Y-75500031D01*
X205523017Y-75506464D01*
X205518828Y-75512516D01*
X205514067Y-75518128D01*
X205508778Y-75523247D01*
X205503013Y-75527823D01*
X205496827Y-75531811D01*
X205366923Y-75606811D01*
X205360376Y-75610174D01*
X205353531Y-75612879D01*
X205346454Y-75614900D01*
X205339212Y-75616217D01*
X205331877Y-75616819D01*
X205324518Y-75616698D01*
X205317206Y-75615857D01*
X205310012Y-75614303D01*
X205303004Y-75612052D01*
X205296251Y-75609124D01*
X205289818Y-75605549D01*
X205283766Y-75601360D01*
X205278154Y-75596599D01*
X205273035Y-75591310D01*
X205268459Y-75585545D01*
X205264471Y-75579359D01*
X204801971Y-74778285D01*
X204798608Y-74771738D01*
X204795903Y-74764893D01*
X204793882Y-74757816D01*
X204792565Y-74750574D01*
X204791963Y-74743239D01*
X204792084Y-74735880D01*
X204792925Y-74728568D01*
X204794479Y-74721374D01*
X204796730Y-74714366D01*
X204799658Y-74707613D01*
X204803233Y-74701180D01*
X204807422Y-74695128D01*
X204812183Y-74689516D01*
X204817472Y-74684397D01*
X204823237Y-74679821D01*
X204829423Y-74675833D01*
X204959327Y-74600833D01*
X204965874Y-74597470D01*
X204972719Y-74594765D01*
X204979796Y-74592744D01*
X204987038Y-74591427D01*
X204994373Y-74590825D01*
X205001732Y-74590946D01*
X205001732Y-74590946D01*
G37*
D15*
X205163125Y-75103822D03*
D14*
G36*
X204438815Y-74915946D02*
G01*
X204446127Y-74916787D01*
X204453321Y-74918341D01*
X204460329Y-74920592D01*
X204467082Y-74923520D01*
X204473515Y-74927095D01*
X204479567Y-74931284D01*
X204485179Y-74936045D01*
X204490298Y-74941334D01*
X204494874Y-74947099D01*
X204498862Y-74953285D01*
X204961362Y-75754359D01*
X204964725Y-75760906D01*
X204967430Y-75767751D01*
X204969451Y-75774828D01*
X204970768Y-75782070D01*
X204971370Y-75789405D01*
X204971249Y-75796764D01*
X204970408Y-75804076D01*
X204968854Y-75811270D01*
X204966603Y-75818278D01*
X204963675Y-75825031D01*
X204960100Y-75831464D01*
X204955911Y-75837516D01*
X204951150Y-75843128D01*
X204945861Y-75848247D01*
X204940096Y-75852823D01*
X204933910Y-75856811D01*
X204804006Y-75931811D01*
X204797459Y-75935174D01*
X204790614Y-75937879D01*
X204783537Y-75939900D01*
X204776295Y-75941217D01*
X204768960Y-75941819D01*
X204761601Y-75941698D01*
X204754289Y-75940857D01*
X204747095Y-75939303D01*
X204740087Y-75937052D01*
X204733334Y-75934124D01*
X204726901Y-75930549D01*
X204720849Y-75926360D01*
X204715237Y-75921599D01*
X204710118Y-75916310D01*
X204705542Y-75910545D01*
X204701554Y-75904359D01*
X204239054Y-75103285D01*
X204235691Y-75096738D01*
X204232986Y-75089893D01*
X204230965Y-75082816D01*
X204229648Y-75075574D01*
X204229046Y-75068239D01*
X204229167Y-75060880D01*
X204230008Y-75053568D01*
X204231562Y-75046374D01*
X204233813Y-75039366D01*
X204236741Y-75032613D01*
X204240316Y-75026180D01*
X204244505Y-75020128D01*
X204249266Y-75014516D01*
X204254555Y-75009397D01*
X204260320Y-75004821D01*
X204266506Y-75000833D01*
X204396410Y-74925833D01*
X204402957Y-74922470D01*
X204409802Y-74919765D01*
X204416879Y-74917744D01*
X204424121Y-74916427D01*
X204431456Y-74915825D01*
X204438815Y-74915946D01*
X204438815Y-74915946D01*
G37*
D15*
X204600208Y-75428822D03*
D14*
G36*
X203875899Y-75240946D02*
G01*
X203883211Y-75241787D01*
X203890405Y-75243341D01*
X203897413Y-75245592D01*
X203904166Y-75248520D01*
X203910599Y-75252095D01*
X203916651Y-75256284D01*
X203922263Y-75261045D01*
X203927382Y-75266334D01*
X203931958Y-75272099D01*
X203935946Y-75278285D01*
X204398446Y-76079359D01*
X204401809Y-76085906D01*
X204404514Y-76092751D01*
X204406535Y-76099828D01*
X204407852Y-76107070D01*
X204408454Y-76114405D01*
X204408333Y-76121764D01*
X204407492Y-76129076D01*
X204405938Y-76136270D01*
X204403687Y-76143278D01*
X204400759Y-76150031D01*
X204397184Y-76156464D01*
X204392995Y-76162516D01*
X204388234Y-76168128D01*
X204382945Y-76173247D01*
X204377180Y-76177823D01*
X204370994Y-76181811D01*
X204241090Y-76256811D01*
X204234543Y-76260174D01*
X204227698Y-76262879D01*
X204220621Y-76264900D01*
X204213379Y-76266217D01*
X204206044Y-76266819D01*
X204198685Y-76266698D01*
X204191373Y-76265857D01*
X204184179Y-76264303D01*
X204177171Y-76262052D01*
X204170418Y-76259124D01*
X204163985Y-76255549D01*
X204157933Y-76251360D01*
X204152321Y-76246599D01*
X204147202Y-76241310D01*
X204142626Y-76235545D01*
X204138638Y-76229359D01*
X203676138Y-75428285D01*
X203672775Y-75421738D01*
X203670070Y-75414893D01*
X203668049Y-75407816D01*
X203666732Y-75400574D01*
X203666130Y-75393239D01*
X203666251Y-75385880D01*
X203667092Y-75378568D01*
X203668646Y-75371374D01*
X203670897Y-75364366D01*
X203673825Y-75357613D01*
X203677400Y-75351180D01*
X203681589Y-75345128D01*
X203686350Y-75339516D01*
X203691639Y-75334397D01*
X203697404Y-75329821D01*
X203703590Y-75325833D01*
X203833494Y-75250833D01*
X203840041Y-75247470D01*
X203846886Y-75244765D01*
X203853963Y-75242744D01*
X203861205Y-75241427D01*
X203868540Y-75240825D01*
X203875899Y-75240946D01*
X203875899Y-75240946D01*
G37*
D15*
X204037292Y-75753822D03*
D14*
G36*
X203312982Y-75565946D02*
G01*
X203320294Y-75566787D01*
X203327488Y-75568341D01*
X203334496Y-75570592D01*
X203341249Y-75573520D01*
X203347682Y-75577095D01*
X203353734Y-75581284D01*
X203359346Y-75586045D01*
X203364465Y-75591334D01*
X203369041Y-75597099D01*
X203373029Y-75603285D01*
X203835529Y-76404359D01*
X203838892Y-76410906D01*
X203841597Y-76417751D01*
X203843618Y-76424828D01*
X203844935Y-76432070D01*
X203845537Y-76439405D01*
X203845416Y-76446764D01*
X203844575Y-76454076D01*
X203843021Y-76461270D01*
X203840770Y-76468278D01*
X203837842Y-76475031D01*
X203834267Y-76481464D01*
X203830078Y-76487516D01*
X203825317Y-76493128D01*
X203820028Y-76498247D01*
X203814263Y-76502823D01*
X203808077Y-76506811D01*
X203678173Y-76581811D01*
X203671626Y-76585174D01*
X203664781Y-76587879D01*
X203657704Y-76589900D01*
X203650462Y-76591217D01*
X203643127Y-76591819D01*
X203635768Y-76591698D01*
X203628456Y-76590857D01*
X203621262Y-76589303D01*
X203614254Y-76587052D01*
X203607501Y-76584124D01*
X203601068Y-76580549D01*
X203595016Y-76576360D01*
X203589404Y-76571599D01*
X203584285Y-76566310D01*
X203579709Y-76560545D01*
X203575721Y-76554359D01*
X203113221Y-75753285D01*
X203109858Y-75746738D01*
X203107153Y-75739893D01*
X203105132Y-75732816D01*
X203103815Y-75725574D01*
X203103213Y-75718239D01*
X203103334Y-75710880D01*
X203104175Y-75703568D01*
X203105729Y-75696374D01*
X203107980Y-75689366D01*
X203110908Y-75682613D01*
X203114483Y-75676180D01*
X203118672Y-75670128D01*
X203123433Y-75664516D01*
X203128722Y-75659397D01*
X203134487Y-75654821D01*
X203140673Y-75650833D01*
X203270577Y-75575833D01*
X203277124Y-75572470D01*
X203283969Y-75569765D01*
X203291046Y-75567744D01*
X203298288Y-75566427D01*
X203305623Y-75565825D01*
X203312982Y-75565946D01*
X203312982Y-75565946D01*
G37*
D15*
X203474375Y-76078822D03*
D14*
G36*
X202664120Y-75392084D02*
G01*
X202671432Y-75392925D01*
X202678626Y-75394479D01*
X202685634Y-75396730D01*
X202692387Y-75399658D01*
X202698820Y-75403233D01*
X202704872Y-75407422D01*
X202710484Y-75412183D01*
X202715603Y-75417472D01*
X202720179Y-75423237D01*
X202724167Y-75429423D01*
X202799167Y-75559327D01*
X202802530Y-75565874D01*
X202805235Y-75572719D01*
X202807256Y-75579796D01*
X202808573Y-75587038D01*
X202809175Y-75594373D01*
X202809054Y-75601732D01*
X202808213Y-75609044D01*
X202806659Y-75616238D01*
X202804408Y-75623246D01*
X202801480Y-75629999D01*
X202797905Y-75636432D01*
X202793716Y-75642484D01*
X202788955Y-75648096D01*
X202783666Y-75653215D01*
X202777901Y-75657791D01*
X202771715Y-75661779D01*
X201970641Y-76124279D01*
X201964094Y-76127642D01*
X201957249Y-76130347D01*
X201950172Y-76132368D01*
X201942930Y-76133685D01*
X201935595Y-76134287D01*
X201928236Y-76134166D01*
X201920924Y-76133325D01*
X201913730Y-76131771D01*
X201906722Y-76129520D01*
X201899969Y-76126592D01*
X201893536Y-76123017D01*
X201887484Y-76118828D01*
X201881872Y-76114067D01*
X201876753Y-76108778D01*
X201872177Y-76103013D01*
X201868189Y-76096827D01*
X201793189Y-75966923D01*
X201789826Y-75960376D01*
X201787121Y-75953531D01*
X201785100Y-75946454D01*
X201783783Y-75939212D01*
X201783181Y-75931877D01*
X201783302Y-75924518D01*
X201784143Y-75917206D01*
X201785697Y-75910012D01*
X201787948Y-75903004D01*
X201790876Y-75896251D01*
X201794451Y-75889818D01*
X201798640Y-75883766D01*
X201803401Y-75878154D01*
X201808690Y-75873035D01*
X201814455Y-75868459D01*
X201820641Y-75864471D01*
X202621715Y-75401971D01*
X202628262Y-75398608D01*
X202635107Y-75395903D01*
X202642184Y-75393882D01*
X202649426Y-75392565D01*
X202656761Y-75391963D01*
X202664120Y-75392084D01*
X202664120Y-75392084D01*
G37*
D15*
X202296178Y-75763125D03*
D14*
G36*
X202339120Y-74829167D02*
G01*
X202346432Y-74830008D01*
X202353626Y-74831562D01*
X202360634Y-74833813D01*
X202367387Y-74836741D01*
X202373820Y-74840316D01*
X202379872Y-74844505D01*
X202385484Y-74849266D01*
X202390603Y-74854555D01*
X202395179Y-74860320D01*
X202399167Y-74866506D01*
X202474167Y-74996410D01*
X202477530Y-75002957D01*
X202480235Y-75009802D01*
X202482256Y-75016879D01*
X202483573Y-75024121D01*
X202484175Y-75031456D01*
X202484054Y-75038815D01*
X202483213Y-75046127D01*
X202481659Y-75053321D01*
X202479408Y-75060329D01*
X202476480Y-75067082D01*
X202472905Y-75073515D01*
X202468716Y-75079567D01*
X202463955Y-75085179D01*
X202458666Y-75090298D01*
X202452901Y-75094874D01*
X202446715Y-75098862D01*
X201645641Y-75561362D01*
X201639094Y-75564725D01*
X201632249Y-75567430D01*
X201625172Y-75569451D01*
X201617930Y-75570768D01*
X201610595Y-75571370D01*
X201603236Y-75571249D01*
X201595924Y-75570408D01*
X201588730Y-75568854D01*
X201581722Y-75566603D01*
X201574969Y-75563675D01*
X201568536Y-75560100D01*
X201562484Y-75555911D01*
X201556872Y-75551150D01*
X201551753Y-75545861D01*
X201547177Y-75540096D01*
X201543189Y-75533910D01*
X201468189Y-75404006D01*
X201464826Y-75397459D01*
X201462121Y-75390614D01*
X201460100Y-75383537D01*
X201458783Y-75376295D01*
X201458181Y-75368960D01*
X201458302Y-75361601D01*
X201459143Y-75354289D01*
X201460697Y-75347095D01*
X201462948Y-75340087D01*
X201465876Y-75333334D01*
X201469451Y-75326901D01*
X201473640Y-75320849D01*
X201478401Y-75315237D01*
X201483690Y-75310118D01*
X201489455Y-75305542D01*
X201495641Y-75301554D01*
X202296715Y-74839054D01*
X202303262Y-74835691D01*
X202310107Y-74832986D01*
X202317184Y-74830965D01*
X202324426Y-74829648D01*
X202331761Y-74829046D01*
X202339120Y-74829167D01*
X202339120Y-74829167D01*
G37*
D15*
X201971178Y-75200208D03*
D14*
G36*
X202014120Y-74266251D02*
G01*
X202021432Y-74267092D01*
X202028626Y-74268646D01*
X202035634Y-74270897D01*
X202042387Y-74273825D01*
X202048820Y-74277400D01*
X202054872Y-74281589D01*
X202060484Y-74286350D01*
X202065603Y-74291639D01*
X202070179Y-74297404D01*
X202074167Y-74303590D01*
X202149167Y-74433494D01*
X202152530Y-74440041D01*
X202155235Y-74446886D01*
X202157256Y-74453963D01*
X202158573Y-74461205D01*
X202159175Y-74468540D01*
X202159054Y-74475899D01*
X202158213Y-74483211D01*
X202156659Y-74490405D01*
X202154408Y-74497413D01*
X202151480Y-74504166D01*
X202147905Y-74510599D01*
X202143716Y-74516651D01*
X202138955Y-74522263D01*
X202133666Y-74527382D01*
X202127901Y-74531958D01*
X202121715Y-74535946D01*
X201320641Y-74998446D01*
X201314094Y-75001809D01*
X201307249Y-75004514D01*
X201300172Y-75006535D01*
X201292930Y-75007852D01*
X201285595Y-75008454D01*
X201278236Y-75008333D01*
X201270924Y-75007492D01*
X201263730Y-75005938D01*
X201256722Y-75003687D01*
X201249969Y-75000759D01*
X201243536Y-74997184D01*
X201237484Y-74992995D01*
X201231872Y-74988234D01*
X201226753Y-74982945D01*
X201222177Y-74977180D01*
X201218189Y-74970994D01*
X201143189Y-74841090D01*
X201139826Y-74834543D01*
X201137121Y-74827698D01*
X201135100Y-74820621D01*
X201133783Y-74813379D01*
X201133181Y-74806044D01*
X201133302Y-74798685D01*
X201134143Y-74791373D01*
X201135697Y-74784179D01*
X201137948Y-74777171D01*
X201140876Y-74770418D01*
X201144451Y-74763985D01*
X201148640Y-74757933D01*
X201153401Y-74752321D01*
X201158690Y-74747202D01*
X201164455Y-74742626D01*
X201170641Y-74738638D01*
X201971715Y-74276138D01*
X201978262Y-74272775D01*
X201985107Y-74270070D01*
X201992184Y-74268049D01*
X201999426Y-74266732D01*
X202006761Y-74266130D01*
X202014120Y-74266251D01*
X202014120Y-74266251D01*
G37*
D15*
X201646178Y-74637292D03*
D14*
G36*
X201689120Y-73703334D02*
G01*
X201696432Y-73704175D01*
X201703626Y-73705729D01*
X201710634Y-73707980D01*
X201717387Y-73710908D01*
X201723820Y-73714483D01*
X201729872Y-73718672D01*
X201735484Y-73723433D01*
X201740603Y-73728722D01*
X201745179Y-73734487D01*
X201749167Y-73740673D01*
X201824167Y-73870577D01*
X201827530Y-73877124D01*
X201830235Y-73883969D01*
X201832256Y-73891046D01*
X201833573Y-73898288D01*
X201834175Y-73905623D01*
X201834054Y-73912982D01*
X201833213Y-73920294D01*
X201831659Y-73927488D01*
X201829408Y-73934496D01*
X201826480Y-73941249D01*
X201822905Y-73947682D01*
X201818716Y-73953734D01*
X201813955Y-73959346D01*
X201808666Y-73964465D01*
X201802901Y-73969041D01*
X201796715Y-73973029D01*
X200995641Y-74435529D01*
X200989094Y-74438892D01*
X200982249Y-74441597D01*
X200975172Y-74443618D01*
X200967930Y-74444935D01*
X200960595Y-74445537D01*
X200953236Y-74445416D01*
X200945924Y-74444575D01*
X200938730Y-74443021D01*
X200931722Y-74440770D01*
X200924969Y-74437842D01*
X200918536Y-74434267D01*
X200912484Y-74430078D01*
X200906872Y-74425317D01*
X200901753Y-74420028D01*
X200897177Y-74414263D01*
X200893189Y-74408077D01*
X200818189Y-74278173D01*
X200814826Y-74271626D01*
X200812121Y-74264781D01*
X200810100Y-74257704D01*
X200808783Y-74250462D01*
X200808181Y-74243127D01*
X200808302Y-74235768D01*
X200809143Y-74228456D01*
X200810697Y-74221262D01*
X200812948Y-74214254D01*
X200815876Y-74207501D01*
X200819451Y-74201068D01*
X200823640Y-74195016D01*
X200828401Y-74189404D01*
X200833690Y-74184285D01*
X200839455Y-74179709D01*
X200845641Y-74175721D01*
X201646715Y-73713221D01*
X201653262Y-73709858D01*
X201660107Y-73707153D01*
X201667184Y-73705132D01*
X201674426Y-73703815D01*
X201681761Y-73703213D01*
X201689120Y-73703334D01*
X201689120Y-73703334D01*
G37*
D15*
X201321178Y-74074375D03*
D14*
G36*
X203718322Y-72623564D02*
G01*
X203742695Y-72626368D01*
X203766675Y-72631547D01*
X203790033Y-72639052D01*
X203812543Y-72648811D01*
X203833987Y-72660728D01*
X203854161Y-72674690D01*
X203872868Y-72690563D01*
X203889930Y-72708192D01*
X203905182Y-72727409D01*
X203918476Y-72748028D01*
X204743477Y-74176971D01*
X204754687Y-74198795D01*
X204763704Y-74221611D01*
X204770440Y-74245202D01*
X204774832Y-74269340D01*
X204776837Y-74293791D01*
X204776436Y-74318322D01*
X204773632Y-74342695D01*
X204768453Y-74366675D01*
X204760948Y-74390033D01*
X204751189Y-74412543D01*
X204739272Y-74433987D01*
X204725310Y-74454161D01*
X204709437Y-74472868D01*
X204691808Y-74489930D01*
X204672591Y-74505182D01*
X204651972Y-74518476D01*
X203223029Y-75343477D01*
X203201205Y-75354687D01*
X203178389Y-75363704D01*
X203154798Y-75370440D01*
X203130660Y-75374832D01*
X203106209Y-75376837D01*
X203081678Y-75376436D01*
X203057305Y-75373632D01*
X203033325Y-75368453D01*
X203009967Y-75360948D01*
X202987457Y-75351189D01*
X202966013Y-75339272D01*
X202945839Y-75325310D01*
X202927132Y-75309437D01*
X202910070Y-75291808D01*
X202894818Y-75272591D01*
X202881524Y-75251972D01*
X202056523Y-73823029D01*
X202045313Y-73801205D01*
X202036296Y-73778389D01*
X202029560Y-73754798D01*
X202025168Y-73730660D01*
X202023163Y-73706209D01*
X202023564Y-73681678D01*
X202026368Y-73657305D01*
X202031547Y-73633325D01*
X202039052Y-73609967D01*
X202048811Y-73587457D01*
X202060728Y-73566013D01*
X202074690Y-73545839D01*
X202090563Y-73527132D01*
X202108192Y-73510070D01*
X202127409Y-73494818D01*
X202148028Y-73481524D01*
X203576971Y-72656523D01*
X203598795Y-72645313D01*
X203621611Y-72636296D01*
X203645202Y-72629560D01*
X203669340Y-72625168D01*
X203693791Y-72623163D01*
X203718322Y-72623564D01*
X203718322Y-72623564D01*
G37*
D16*
X203400000Y-74000000D03*
D14*
G36*
X198180601Y-72396145D02*
G01*
X198201927Y-72398599D01*
X198222911Y-72403131D01*
X198243349Y-72409698D01*
X198263045Y-72418236D01*
X198281809Y-72428664D01*
X198299461Y-72440881D01*
X198315830Y-72454769D01*
X198330759Y-72470195D01*
X198344104Y-72487010D01*
X198355737Y-72505052D01*
X198574487Y-72883938D01*
X198584295Y-72903033D01*
X198592185Y-72922998D01*
X198598080Y-72943640D01*
X198601923Y-72964760D01*
X198603677Y-72986156D01*
X198603326Y-73007620D01*
X198600872Y-73028946D01*
X198596340Y-73049930D01*
X198589773Y-73070368D01*
X198581235Y-73090064D01*
X198570807Y-73108828D01*
X198558590Y-73126480D01*
X198544702Y-73142849D01*
X198529276Y-73157778D01*
X198512461Y-73171123D01*
X198494419Y-73182756D01*
X198050581Y-73439006D01*
X198031486Y-73448814D01*
X198011521Y-73456704D01*
X197990879Y-73462599D01*
X197969759Y-73466442D01*
X197948363Y-73468196D01*
X197926899Y-73467845D01*
X197905573Y-73465391D01*
X197884589Y-73460859D01*
X197864151Y-73454292D01*
X197844455Y-73445754D01*
X197825691Y-73435326D01*
X197808039Y-73423109D01*
X197791670Y-73409221D01*
X197776741Y-73393795D01*
X197763396Y-73376980D01*
X197751763Y-73358938D01*
X197533013Y-72980052D01*
X197523205Y-72960957D01*
X197515315Y-72940992D01*
X197509420Y-72920350D01*
X197505577Y-72899230D01*
X197503823Y-72877834D01*
X197504174Y-72856370D01*
X197506628Y-72835044D01*
X197511160Y-72814060D01*
X197517727Y-72793622D01*
X197526265Y-72773926D01*
X197536693Y-72755162D01*
X197548910Y-72737510D01*
X197562798Y-72721141D01*
X197578224Y-72706212D01*
X197595039Y-72692867D01*
X197613081Y-72681234D01*
X198056919Y-72424984D01*
X198076014Y-72415176D01*
X198095979Y-72407286D01*
X198116621Y-72401391D01*
X198137741Y-72397548D01*
X198159137Y-72395794D01*
X198180601Y-72396145D01*
X198180601Y-72396145D01*
G37*
D17*
X198053750Y-72931995D03*
D14*
G36*
X197393101Y-71032155D02*
G01*
X197414427Y-71034609D01*
X197435411Y-71039141D01*
X197455849Y-71045708D01*
X197475545Y-71054246D01*
X197494309Y-71064674D01*
X197511961Y-71076891D01*
X197528330Y-71090779D01*
X197543259Y-71106205D01*
X197556604Y-71123020D01*
X197568237Y-71141062D01*
X197786987Y-71519948D01*
X197796795Y-71539043D01*
X197804685Y-71559008D01*
X197810580Y-71579650D01*
X197814423Y-71600770D01*
X197816177Y-71622166D01*
X197815826Y-71643630D01*
X197813372Y-71664956D01*
X197808840Y-71685940D01*
X197802273Y-71706378D01*
X197793735Y-71726074D01*
X197783307Y-71744838D01*
X197771090Y-71762490D01*
X197757202Y-71778859D01*
X197741776Y-71793788D01*
X197724961Y-71807133D01*
X197706919Y-71818766D01*
X197263081Y-72075016D01*
X197243986Y-72084824D01*
X197224021Y-72092714D01*
X197203379Y-72098609D01*
X197182259Y-72102452D01*
X197160863Y-72104206D01*
X197139399Y-72103855D01*
X197118073Y-72101401D01*
X197097089Y-72096869D01*
X197076651Y-72090302D01*
X197056955Y-72081764D01*
X197038191Y-72071336D01*
X197020539Y-72059119D01*
X197004170Y-72045231D01*
X196989241Y-72029805D01*
X196975896Y-72012990D01*
X196964263Y-71994948D01*
X196745513Y-71616062D01*
X196735705Y-71596967D01*
X196727815Y-71577002D01*
X196721920Y-71556360D01*
X196718077Y-71535240D01*
X196716323Y-71513844D01*
X196716674Y-71492380D01*
X196719128Y-71471054D01*
X196723660Y-71450070D01*
X196730227Y-71429632D01*
X196738765Y-71409936D01*
X196749193Y-71391172D01*
X196761410Y-71373520D01*
X196775298Y-71357151D01*
X196790724Y-71342222D01*
X196807539Y-71328877D01*
X196825581Y-71317244D01*
X197269419Y-71060994D01*
X197288514Y-71051186D01*
X197308479Y-71043296D01*
X197329121Y-71037401D01*
X197350241Y-71033558D01*
X197371637Y-71031804D01*
X197393101Y-71032155D01*
X197393101Y-71032155D01*
G37*
D17*
X197266250Y-71568005D03*
D18*
X181400000Y-90500000D03*
X178400000Y-90500000D03*
D19*
X209600000Y-82000000D03*
D14*
G36*
X210374504Y-78651204D02*
G01*
X210398773Y-78654804D01*
X210422571Y-78660765D01*
X210445671Y-78669030D01*
X210467849Y-78679520D01*
X210488893Y-78692133D01*
X210508598Y-78706747D01*
X210526777Y-78723223D01*
X210543253Y-78741402D01*
X210557867Y-78761107D01*
X210570480Y-78782151D01*
X210580970Y-78804329D01*
X210589235Y-78827429D01*
X210595196Y-78851227D01*
X210598796Y-78875496D01*
X210600000Y-78900000D01*
X210600000Y-80100000D01*
X210598796Y-80124504D01*
X210595196Y-80148773D01*
X210589235Y-80172571D01*
X210580970Y-80195671D01*
X210570480Y-80217849D01*
X210557867Y-80238893D01*
X210543253Y-80258598D01*
X210526777Y-80276777D01*
X210508598Y-80293253D01*
X210488893Y-80307867D01*
X210467849Y-80320480D01*
X210445671Y-80330970D01*
X210422571Y-80339235D01*
X210398773Y-80345196D01*
X210374504Y-80348796D01*
X210350000Y-80350000D01*
X208850000Y-80350000D01*
X208825496Y-80348796D01*
X208801227Y-80345196D01*
X208777429Y-80339235D01*
X208754329Y-80330970D01*
X208732151Y-80320480D01*
X208711107Y-80307867D01*
X208691402Y-80293253D01*
X208673223Y-80276777D01*
X208656747Y-80258598D01*
X208642133Y-80238893D01*
X208629520Y-80217849D01*
X208619030Y-80195671D01*
X208610765Y-80172571D01*
X208604804Y-80148773D01*
X208601204Y-80124504D01*
X208600000Y-80100000D01*
X208600000Y-78900000D01*
X208601204Y-78875496D01*
X208604804Y-78851227D01*
X208610765Y-78827429D01*
X208619030Y-78804329D01*
X208629520Y-78782151D01*
X208642133Y-78761107D01*
X208656747Y-78741402D01*
X208673223Y-78723223D01*
X208691402Y-78706747D01*
X208711107Y-78692133D01*
X208732151Y-78679520D01*
X208754329Y-78669030D01*
X208777429Y-78660765D01*
X208801227Y-78654804D01*
X208825496Y-78651204D01*
X208850000Y-78650000D01*
X210350000Y-78650000D01*
X210374504Y-78651204D01*
X210374504Y-78651204D01*
G37*
D20*
X209600000Y-79500000D03*
D14*
G36*
X176127691Y-73426053D02*
G01*
X176148926Y-73429203D01*
X176169750Y-73434419D01*
X176189962Y-73441651D01*
X176209368Y-73450830D01*
X176227781Y-73461866D01*
X176245024Y-73474654D01*
X176260930Y-73489070D01*
X176275346Y-73504976D01*
X176288134Y-73522219D01*
X176299170Y-73540632D01*
X176308349Y-73560038D01*
X176315581Y-73580250D01*
X176320797Y-73601074D01*
X176323947Y-73622309D01*
X176325000Y-73643750D01*
X176325000Y-74156250D01*
X176323947Y-74177691D01*
X176320797Y-74198926D01*
X176315581Y-74219750D01*
X176308349Y-74239962D01*
X176299170Y-74259368D01*
X176288134Y-74277781D01*
X176275346Y-74295024D01*
X176260930Y-74310930D01*
X176245024Y-74325346D01*
X176227781Y-74338134D01*
X176209368Y-74349170D01*
X176189962Y-74358349D01*
X176169750Y-74365581D01*
X176148926Y-74370797D01*
X176127691Y-74373947D01*
X176106250Y-74375000D01*
X175668750Y-74375000D01*
X175647309Y-74373947D01*
X175626074Y-74370797D01*
X175605250Y-74365581D01*
X175585038Y-74358349D01*
X175565632Y-74349170D01*
X175547219Y-74338134D01*
X175529976Y-74325346D01*
X175514070Y-74310930D01*
X175499654Y-74295024D01*
X175486866Y-74277781D01*
X175475830Y-74259368D01*
X175466651Y-74239962D01*
X175459419Y-74219750D01*
X175454203Y-74198926D01*
X175451053Y-74177691D01*
X175450000Y-74156250D01*
X175450000Y-73643750D01*
X175451053Y-73622309D01*
X175454203Y-73601074D01*
X175459419Y-73580250D01*
X175466651Y-73560038D01*
X175475830Y-73540632D01*
X175486866Y-73522219D01*
X175499654Y-73504976D01*
X175514070Y-73489070D01*
X175529976Y-73474654D01*
X175547219Y-73461866D01*
X175565632Y-73450830D01*
X175585038Y-73441651D01*
X175605250Y-73434419D01*
X175626074Y-73429203D01*
X175647309Y-73426053D01*
X175668750Y-73425000D01*
X176106250Y-73425000D01*
X176127691Y-73426053D01*
X176127691Y-73426053D01*
G37*
D17*
X175887500Y-73900000D03*
D14*
G36*
X174552691Y-73426053D02*
G01*
X174573926Y-73429203D01*
X174594750Y-73434419D01*
X174614962Y-73441651D01*
X174634368Y-73450830D01*
X174652781Y-73461866D01*
X174670024Y-73474654D01*
X174685930Y-73489070D01*
X174700346Y-73504976D01*
X174713134Y-73522219D01*
X174724170Y-73540632D01*
X174733349Y-73560038D01*
X174740581Y-73580250D01*
X174745797Y-73601074D01*
X174748947Y-73622309D01*
X174750000Y-73643750D01*
X174750000Y-74156250D01*
X174748947Y-74177691D01*
X174745797Y-74198926D01*
X174740581Y-74219750D01*
X174733349Y-74239962D01*
X174724170Y-74259368D01*
X174713134Y-74277781D01*
X174700346Y-74295024D01*
X174685930Y-74310930D01*
X174670024Y-74325346D01*
X174652781Y-74338134D01*
X174634368Y-74349170D01*
X174614962Y-74358349D01*
X174594750Y-74365581D01*
X174573926Y-74370797D01*
X174552691Y-74373947D01*
X174531250Y-74375000D01*
X174093750Y-74375000D01*
X174072309Y-74373947D01*
X174051074Y-74370797D01*
X174030250Y-74365581D01*
X174010038Y-74358349D01*
X173990632Y-74349170D01*
X173972219Y-74338134D01*
X173954976Y-74325346D01*
X173939070Y-74310930D01*
X173924654Y-74295024D01*
X173911866Y-74277781D01*
X173900830Y-74259368D01*
X173891651Y-74239962D01*
X173884419Y-74219750D01*
X173879203Y-74198926D01*
X173876053Y-74177691D01*
X173875000Y-74156250D01*
X173875000Y-73643750D01*
X173876053Y-73622309D01*
X173879203Y-73601074D01*
X173884419Y-73580250D01*
X173891651Y-73560038D01*
X173900830Y-73540632D01*
X173911866Y-73522219D01*
X173924654Y-73504976D01*
X173939070Y-73489070D01*
X173954976Y-73474654D01*
X173972219Y-73461866D01*
X173990632Y-73450830D01*
X174010038Y-73441651D01*
X174030250Y-73434419D01*
X174051074Y-73429203D01*
X174072309Y-73426053D01*
X174093750Y-73425000D01*
X174531250Y-73425000D01*
X174552691Y-73426053D01*
X174552691Y-73426053D01*
G37*
D17*
X174312500Y-73900000D03*
D14*
G36*
X176027691Y-80026053D02*
G01*
X176048926Y-80029203D01*
X176069750Y-80034419D01*
X176089962Y-80041651D01*
X176109368Y-80050830D01*
X176127781Y-80061866D01*
X176145024Y-80074654D01*
X176160930Y-80089070D01*
X176175346Y-80104976D01*
X176188134Y-80122219D01*
X176199170Y-80140632D01*
X176208349Y-80160038D01*
X176215581Y-80180250D01*
X176220797Y-80201074D01*
X176223947Y-80222309D01*
X176225000Y-80243750D01*
X176225000Y-80756250D01*
X176223947Y-80777691D01*
X176220797Y-80798926D01*
X176215581Y-80819750D01*
X176208349Y-80839962D01*
X176199170Y-80859368D01*
X176188134Y-80877781D01*
X176175346Y-80895024D01*
X176160930Y-80910930D01*
X176145024Y-80925346D01*
X176127781Y-80938134D01*
X176109368Y-80949170D01*
X176089962Y-80958349D01*
X176069750Y-80965581D01*
X176048926Y-80970797D01*
X176027691Y-80973947D01*
X176006250Y-80975000D01*
X175568750Y-80975000D01*
X175547309Y-80973947D01*
X175526074Y-80970797D01*
X175505250Y-80965581D01*
X175485038Y-80958349D01*
X175465632Y-80949170D01*
X175447219Y-80938134D01*
X175429976Y-80925346D01*
X175414070Y-80910930D01*
X175399654Y-80895024D01*
X175386866Y-80877781D01*
X175375830Y-80859368D01*
X175366651Y-80839962D01*
X175359419Y-80819750D01*
X175354203Y-80798926D01*
X175351053Y-80777691D01*
X175350000Y-80756250D01*
X175350000Y-80243750D01*
X175351053Y-80222309D01*
X175354203Y-80201074D01*
X175359419Y-80180250D01*
X175366651Y-80160038D01*
X175375830Y-80140632D01*
X175386866Y-80122219D01*
X175399654Y-80104976D01*
X175414070Y-80089070D01*
X175429976Y-80074654D01*
X175447219Y-80061866D01*
X175465632Y-80050830D01*
X175485038Y-80041651D01*
X175505250Y-80034419D01*
X175526074Y-80029203D01*
X175547309Y-80026053D01*
X175568750Y-80025000D01*
X176006250Y-80025000D01*
X176027691Y-80026053D01*
X176027691Y-80026053D01*
G37*
D17*
X175787500Y-80500000D03*
D14*
G36*
X174452691Y-80026053D02*
G01*
X174473926Y-80029203D01*
X174494750Y-80034419D01*
X174514962Y-80041651D01*
X174534368Y-80050830D01*
X174552781Y-80061866D01*
X174570024Y-80074654D01*
X174585930Y-80089070D01*
X174600346Y-80104976D01*
X174613134Y-80122219D01*
X174624170Y-80140632D01*
X174633349Y-80160038D01*
X174640581Y-80180250D01*
X174645797Y-80201074D01*
X174648947Y-80222309D01*
X174650000Y-80243750D01*
X174650000Y-80756250D01*
X174648947Y-80777691D01*
X174645797Y-80798926D01*
X174640581Y-80819750D01*
X174633349Y-80839962D01*
X174624170Y-80859368D01*
X174613134Y-80877781D01*
X174600346Y-80895024D01*
X174585930Y-80910930D01*
X174570024Y-80925346D01*
X174552781Y-80938134D01*
X174534368Y-80949170D01*
X174514962Y-80958349D01*
X174494750Y-80965581D01*
X174473926Y-80970797D01*
X174452691Y-80973947D01*
X174431250Y-80975000D01*
X173993750Y-80975000D01*
X173972309Y-80973947D01*
X173951074Y-80970797D01*
X173930250Y-80965581D01*
X173910038Y-80958349D01*
X173890632Y-80949170D01*
X173872219Y-80938134D01*
X173854976Y-80925346D01*
X173839070Y-80910930D01*
X173824654Y-80895024D01*
X173811866Y-80877781D01*
X173800830Y-80859368D01*
X173791651Y-80839962D01*
X173784419Y-80819750D01*
X173779203Y-80798926D01*
X173776053Y-80777691D01*
X173775000Y-80756250D01*
X173775000Y-80243750D01*
X173776053Y-80222309D01*
X173779203Y-80201074D01*
X173784419Y-80180250D01*
X173791651Y-80160038D01*
X173800830Y-80140632D01*
X173811866Y-80122219D01*
X173824654Y-80104976D01*
X173839070Y-80089070D01*
X173854976Y-80074654D01*
X173872219Y-80061866D01*
X173890632Y-80050830D01*
X173910038Y-80041651D01*
X173930250Y-80034419D01*
X173951074Y-80029203D01*
X173972309Y-80026053D01*
X173993750Y-80025000D01*
X174431250Y-80025000D01*
X174452691Y-80026053D01*
X174452691Y-80026053D01*
G37*
D17*
X174212500Y-80500000D03*
D14*
G36*
X209257620Y-72156674D02*
G01*
X209278946Y-72159128D01*
X209299930Y-72163660D01*
X209320368Y-72170227D01*
X209340064Y-72178765D01*
X209358828Y-72189193D01*
X209376480Y-72201410D01*
X209392849Y-72215298D01*
X209407778Y-72230724D01*
X209421123Y-72247539D01*
X209432756Y-72265581D01*
X209689006Y-72709419D01*
X209698814Y-72728514D01*
X209706704Y-72748479D01*
X209712599Y-72769121D01*
X209716442Y-72790241D01*
X209718196Y-72811637D01*
X209717845Y-72833101D01*
X209715391Y-72854427D01*
X209710859Y-72875411D01*
X209704292Y-72895849D01*
X209695754Y-72915545D01*
X209685326Y-72934309D01*
X209673109Y-72951961D01*
X209659221Y-72968330D01*
X209643795Y-72983259D01*
X209626980Y-72996604D01*
X209608938Y-73008237D01*
X209230052Y-73226987D01*
X209210957Y-73236795D01*
X209190992Y-73244685D01*
X209170350Y-73250580D01*
X209149230Y-73254423D01*
X209127834Y-73256177D01*
X209106370Y-73255826D01*
X209085044Y-73253372D01*
X209064060Y-73248840D01*
X209043622Y-73242273D01*
X209023926Y-73233735D01*
X209005162Y-73223307D01*
X208987510Y-73211090D01*
X208971141Y-73197202D01*
X208956212Y-73181776D01*
X208942867Y-73164961D01*
X208931234Y-73146919D01*
X208674984Y-72703081D01*
X208665176Y-72683986D01*
X208657286Y-72664021D01*
X208651391Y-72643379D01*
X208647548Y-72622259D01*
X208645794Y-72600863D01*
X208646145Y-72579399D01*
X208648599Y-72558073D01*
X208653131Y-72537089D01*
X208659698Y-72516651D01*
X208668236Y-72496955D01*
X208678664Y-72478191D01*
X208690881Y-72460539D01*
X208704769Y-72444170D01*
X208720195Y-72429241D01*
X208737010Y-72415896D01*
X208755052Y-72404263D01*
X209133938Y-72185513D01*
X209153033Y-72175705D01*
X209172998Y-72167815D01*
X209193640Y-72161920D01*
X209214760Y-72158077D01*
X209236156Y-72156323D01*
X209257620Y-72156674D01*
X209257620Y-72156674D01*
G37*
D17*
X209181995Y-72706250D03*
D14*
G36*
X207893630Y-72944174D02*
G01*
X207914956Y-72946628D01*
X207935940Y-72951160D01*
X207956378Y-72957727D01*
X207976074Y-72966265D01*
X207994838Y-72976693D01*
X208012490Y-72988910D01*
X208028859Y-73002798D01*
X208043788Y-73018224D01*
X208057133Y-73035039D01*
X208068766Y-73053081D01*
X208325016Y-73496919D01*
X208334824Y-73516014D01*
X208342714Y-73535979D01*
X208348609Y-73556621D01*
X208352452Y-73577741D01*
X208354206Y-73599137D01*
X208353855Y-73620601D01*
X208351401Y-73641927D01*
X208346869Y-73662911D01*
X208340302Y-73683349D01*
X208331764Y-73703045D01*
X208321336Y-73721809D01*
X208309119Y-73739461D01*
X208295231Y-73755830D01*
X208279805Y-73770759D01*
X208262990Y-73784104D01*
X208244948Y-73795737D01*
X207866062Y-74014487D01*
X207846967Y-74024295D01*
X207827002Y-74032185D01*
X207806360Y-74038080D01*
X207785240Y-74041923D01*
X207763844Y-74043677D01*
X207742380Y-74043326D01*
X207721054Y-74040872D01*
X207700070Y-74036340D01*
X207679632Y-74029773D01*
X207659936Y-74021235D01*
X207641172Y-74010807D01*
X207623520Y-73998590D01*
X207607151Y-73984702D01*
X207592222Y-73969276D01*
X207578877Y-73952461D01*
X207567244Y-73934419D01*
X207310994Y-73490581D01*
X207301186Y-73471486D01*
X207293296Y-73451521D01*
X207287401Y-73430879D01*
X207283558Y-73409759D01*
X207281804Y-73388363D01*
X207282155Y-73366899D01*
X207284609Y-73345573D01*
X207289141Y-73324589D01*
X207295708Y-73304151D01*
X207304246Y-73284455D01*
X207314674Y-73265691D01*
X207326891Y-73248039D01*
X207340779Y-73231670D01*
X207356205Y-73216741D01*
X207373020Y-73203396D01*
X207391062Y-73191763D01*
X207769948Y-72973013D01*
X207789043Y-72963205D01*
X207809008Y-72955315D01*
X207829650Y-72949420D01*
X207850770Y-72945577D01*
X207872166Y-72943823D01*
X207893630Y-72944174D01*
X207893630Y-72944174D01*
G37*
D17*
X207818005Y-73493750D03*
D14*
G36*
X207457620Y-69456674D02*
G01*
X207478946Y-69459128D01*
X207499930Y-69463660D01*
X207520368Y-69470227D01*
X207540064Y-69478765D01*
X207558828Y-69489193D01*
X207576480Y-69501410D01*
X207592849Y-69515298D01*
X207607778Y-69530724D01*
X207621123Y-69547539D01*
X207632756Y-69565581D01*
X207889006Y-70009419D01*
X207898814Y-70028514D01*
X207906704Y-70048479D01*
X207912599Y-70069121D01*
X207916442Y-70090241D01*
X207918196Y-70111637D01*
X207917845Y-70133101D01*
X207915391Y-70154427D01*
X207910859Y-70175411D01*
X207904292Y-70195849D01*
X207895754Y-70215545D01*
X207885326Y-70234309D01*
X207873109Y-70251961D01*
X207859221Y-70268330D01*
X207843795Y-70283259D01*
X207826980Y-70296604D01*
X207808938Y-70308237D01*
X207430052Y-70526987D01*
X207410957Y-70536795D01*
X207390992Y-70544685D01*
X207370350Y-70550580D01*
X207349230Y-70554423D01*
X207327834Y-70556177D01*
X207306370Y-70555826D01*
X207285044Y-70553372D01*
X207264060Y-70548840D01*
X207243622Y-70542273D01*
X207223926Y-70533735D01*
X207205162Y-70523307D01*
X207187510Y-70511090D01*
X207171141Y-70497202D01*
X207156212Y-70481776D01*
X207142867Y-70464961D01*
X207131234Y-70446919D01*
X206874984Y-70003081D01*
X206865176Y-69983986D01*
X206857286Y-69964021D01*
X206851391Y-69943379D01*
X206847548Y-69922259D01*
X206845794Y-69900863D01*
X206846145Y-69879399D01*
X206848599Y-69858073D01*
X206853131Y-69837089D01*
X206859698Y-69816651D01*
X206868236Y-69796955D01*
X206878664Y-69778191D01*
X206890881Y-69760539D01*
X206904769Y-69744170D01*
X206920195Y-69729241D01*
X206937010Y-69715896D01*
X206955052Y-69704263D01*
X207333938Y-69485513D01*
X207353033Y-69475705D01*
X207372998Y-69467815D01*
X207393640Y-69461920D01*
X207414760Y-69458077D01*
X207436156Y-69456323D01*
X207457620Y-69456674D01*
X207457620Y-69456674D01*
G37*
D17*
X207381995Y-70006250D03*
D14*
G36*
X206093630Y-70244174D02*
G01*
X206114956Y-70246628D01*
X206135940Y-70251160D01*
X206156378Y-70257727D01*
X206176074Y-70266265D01*
X206194838Y-70276693D01*
X206212490Y-70288910D01*
X206228859Y-70302798D01*
X206243788Y-70318224D01*
X206257133Y-70335039D01*
X206268766Y-70353081D01*
X206525016Y-70796919D01*
X206534824Y-70816014D01*
X206542714Y-70835979D01*
X206548609Y-70856621D01*
X206552452Y-70877741D01*
X206554206Y-70899137D01*
X206553855Y-70920601D01*
X206551401Y-70941927D01*
X206546869Y-70962911D01*
X206540302Y-70983349D01*
X206531764Y-71003045D01*
X206521336Y-71021809D01*
X206509119Y-71039461D01*
X206495231Y-71055830D01*
X206479805Y-71070759D01*
X206462990Y-71084104D01*
X206444948Y-71095737D01*
X206066062Y-71314487D01*
X206046967Y-71324295D01*
X206027002Y-71332185D01*
X206006360Y-71338080D01*
X205985240Y-71341923D01*
X205963844Y-71343677D01*
X205942380Y-71343326D01*
X205921054Y-71340872D01*
X205900070Y-71336340D01*
X205879632Y-71329773D01*
X205859936Y-71321235D01*
X205841172Y-71310807D01*
X205823520Y-71298590D01*
X205807151Y-71284702D01*
X205792222Y-71269276D01*
X205778877Y-71252461D01*
X205767244Y-71234419D01*
X205510994Y-70790581D01*
X205501186Y-70771486D01*
X205493296Y-70751521D01*
X205487401Y-70730879D01*
X205483558Y-70709759D01*
X205481804Y-70688363D01*
X205482155Y-70666899D01*
X205484609Y-70645573D01*
X205489141Y-70624589D01*
X205495708Y-70604151D01*
X205504246Y-70584455D01*
X205514674Y-70565691D01*
X205526891Y-70548039D01*
X205540779Y-70531670D01*
X205556205Y-70516741D01*
X205573020Y-70503396D01*
X205591062Y-70491763D01*
X205969948Y-70273013D01*
X205989043Y-70263205D01*
X206009008Y-70255315D01*
X206029650Y-70249420D01*
X206050770Y-70245577D01*
X206072166Y-70243823D01*
X206093630Y-70244174D01*
X206093630Y-70244174D01*
G37*
D17*
X206018005Y-70793750D03*
D14*
G36*
X174430142Y-87301174D02*
G01*
X174453803Y-87304684D01*
X174477007Y-87310496D01*
X174499529Y-87318554D01*
X174521153Y-87328782D01*
X174541670Y-87341079D01*
X174560883Y-87355329D01*
X174578607Y-87371393D01*
X174594671Y-87389117D01*
X174608921Y-87408330D01*
X174621218Y-87428847D01*
X174631446Y-87450471D01*
X174639504Y-87472993D01*
X174645316Y-87496197D01*
X174648826Y-87519858D01*
X174650000Y-87543750D01*
X174650000Y-88456250D01*
X174648826Y-88480142D01*
X174645316Y-88503803D01*
X174639504Y-88527007D01*
X174631446Y-88549529D01*
X174621218Y-88571153D01*
X174608921Y-88591670D01*
X174594671Y-88610883D01*
X174578607Y-88628607D01*
X174560883Y-88644671D01*
X174541670Y-88658921D01*
X174521153Y-88671218D01*
X174499529Y-88681446D01*
X174477007Y-88689504D01*
X174453803Y-88695316D01*
X174430142Y-88698826D01*
X174406250Y-88700000D01*
X173918750Y-88700000D01*
X173894858Y-88698826D01*
X173871197Y-88695316D01*
X173847993Y-88689504D01*
X173825471Y-88681446D01*
X173803847Y-88671218D01*
X173783330Y-88658921D01*
X173764117Y-88644671D01*
X173746393Y-88628607D01*
X173730329Y-88610883D01*
X173716079Y-88591670D01*
X173703782Y-88571153D01*
X173693554Y-88549529D01*
X173685496Y-88527007D01*
X173679684Y-88503803D01*
X173676174Y-88480142D01*
X173675000Y-88456250D01*
X173675000Y-87543750D01*
X173676174Y-87519858D01*
X173679684Y-87496197D01*
X173685496Y-87472993D01*
X173693554Y-87450471D01*
X173703782Y-87428847D01*
X173716079Y-87408330D01*
X173730329Y-87389117D01*
X173746393Y-87371393D01*
X173764117Y-87355329D01*
X173783330Y-87341079D01*
X173803847Y-87328782D01*
X173825471Y-87318554D01*
X173847993Y-87310496D01*
X173871197Y-87304684D01*
X173894858Y-87301174D01*
X173918750Y-87300000D01*
X174406250Y-87300000D01*
X174430142Y-87301174D01*
X174430142Y-87301174D01*
G37*
D21*
X174162500Y-88000000D03*
D14*
G36*
X176305142Y-87301174D02*
G01*
X176328803Y-87304684D01*
X176352007Y-87310496D01*
X176374529Y-87318554D01*
X176396153Y-87328782D01*
X176416670Y-87341079D01*
X176435883Y-87355329D01*
X176453607Y-87371393D01*
X176469671Y-87389117D01*
X176483921Y-87408330D01*
X176496218Y-87428847D01*
X176506446Y-87450471D01*
X176514504Y-87472993D01*
X176520316Y-87496197D01*
X176523826Y-87519858D01*
X176525000Y-87543750D01*
X176525000Y-88456250D01*
X176523826Y-88480142D01*
X176520316Y-88503803D01*
X176514504Y-88527007D01*
X176506446Y-88549529D01*
X176496218Y-88571153D01*
X176483921Y-88591670D01*
X176469671Y-88610883D01*
X176453607Y-88628607D01*
X176435883Y-88644671D01*
X176416670Y-88658921D01*
X176396153Y-88671218D01*
X176374529Y-88681446D01*
X176352007Y-88689504D01*
X176328803Y-88695316D01*
X176305142Y-88698826D01*
X176281250Y-88700000D01*
X175793750Y-88700000D01*
X175769858Y-88698826D01*
X175746197Y-88695316D01*
X175722993Y-88689504D01*
X175700471Y-88681446D01*
X175678847Y-88671218D01*
X175658330Y-88658921D01*
X175639117Y-88644671D01*
X175621393Y-88628607D01*
X175605329Y-88610883D01*
X175591079Y-88591670D01*
X175578782Y-88571153D01*
X175568554Y-88549529D01*
X175560496Y-88527007D01*
X175554684Y-88503803D01*
X175551174Y-88480142D01*
X175550000Y-88456250D01*
X175550000Y-87543750D01*
X175551174Y-87519858D01*
X175554684Y-87496197D01*
X175560496Y-87472993D01*
X175568554Y-87450471D01*
X175578782Y-87428847D01*
X175591079Y-87408330D01*
X175605329Y-87389117D01*
X175621393Y-87371393D01*
X175639117Y-87355329D01*
X175658330Y-87341079D01*
X175678847Y-87328782D01*
X175700471Y-87318554D01*
X175722993Y-87310496D01*
X175746197Y-87304684D01*
X175769858Y-87301174D01*
X175793750Y-87300000D01*
X176281250Y-87300000D01*
X176305142Y-87301174D01*
X176305142Y-87301174D01*
G37*
D21*
X176037500Y-88000000D03*
D22*
X203700000Y-82800000D03*
X203700000Y-79800000D03*
D23*
X181901615Y-98667210D03*
D24*
X181901615Y-98667210D02*
X181901615Y-98667210D01*
D23*
X180861292Y-97938768D03*
D24*
X180861292Y-97938768D02*
X180861292Y-97938768D01*
D23*
X179820969Y-97210326D03*
D24*
X179820969Y-97210326D02*
X179820969Y-97210326D01*
D23*
X178780646Y-96481884D03*
D24*
X178780646Y-96481884D02*
X178780646Y-96481884D01*
D23*
X177740323Y-95753442D03*
D24*
X177740323Y-95753442D02*
X177740323Y-95753442D01*
D23*
X176700000Y-95025000D03*
D14*
G36*
X176822788Y-95721364D02*
G01*
X176003636Y-95147788D01*
X176577212Y-94328636D01*
X177396364Y-94902212D01*
X176822788Y-95721364D01*
X176822788Y-95721364D01*
G37*
D25*
X197103848Y-64400000D03*
D26*
X196966348Y-64638157D02*
X197241348Y-64161843D01*
D25*
X198835898Y-65400000D03*
D26*
X198698398Y-65638157D02*
X198973398Y-65161843D01*
D25*
X200567949Y-66400000D03*
D26*
X200430449Y-66638157D02*
X200705449Y-66161843D01*
D14*
G36*
X202342022Y-66435873D02*
G01*
X202366160Y-66440265D01*
X202389751Y-66447001D01*
X202412567Y-66456018D01*
X202434391Y-66467228D01*
X203040610Y-66817229D01*
X203061229Y-66830523D01*
X203080446Y-66845775D01*
X203098075Y-66862837D01*
X203113948Y-66881544D01*
X203127910Y-66901718D01*
X203139827Y-66923162D01*
X203149586Y-66945672D01*
X203157091Y-66969030D01*
X203162270Y-66993010D01*
X203165074Y-67017383D01*
X203165475Y-67041914D01*
X203163470Y-67066366D01*
X203159078Y-67090503D01*
X203152342Y-67114094D01*
X203143325Y-67136910D01*
X203132115Y-67158734D01*
X202507114Y-68241267D01*
X202493820Y-68261886D01*
X202478568Y-68281103D01*
X202461506Y-68298732D01*
X202442799Y-68314605D01*
X202422625Y-68328567D01*
X202401181Y-68340484D01*
X202378671Y-68350243D01*
X202355313Y-68357748D01*
X202331333Y-68362927D01*
X202306960Y-68365731D01*
X202282429Y-68366132D01*
X202257978Y-68364127D01*
X202233840Y-68359735D01*
X202210249Y-68352999D01*
X202187433Y-68343982D01*
X202165609Y-68332772D01*
X201559390Y-67982771D01*
X201538771Y-67969477D01*
X201519554Y-67954225D01*
X201501925Y-67937163D01*
X201486052Y-67918456D01*
X201472090Y-67898282D01*
X201460173Y-67876838D01*
X201450414Y-67854328D01*
X201442909Y-67830970D01*
X201437730Y-67806990D01*
X201434926Y-67782617D01*
X201434525Y-67758086D01*
X201436530Y-67733634D01*
X201440922Y-67709497D01*
X201447658Y-67685906D01*
X201456675Y-67663090D01*
X201467885Y-67641266D01*
X202092886Y-66558733D01*
X202106180Y-66538114D01*
X202121432Y-66518897D01*
X202138494Y-66501268D01*
X202157201Y-66485395D01*
X202177375Y-66471433D01*
X202198819Y-66459516D01*
X202221329Y-66449757D01*
X202244687Y-66442252D01*
X202268667Y-66437073D01*
X202293040Y-66434269D01*
X202317571Y-66433868D01*
X202342022Y-66435873D01*
X202342022Y-66435873D01*
G37*
D25*
X202300000Y-67400000D03*
D14*
G36*
X174352691Y-84426053D02*
G01*
X174373926Y-84429203D01*
X174394750Y-84434419D01*
X174414962Y-84441651D01*
X174434368Y-84450830D01*
X174452781Y-84461866D01*
X174470024Y-84474654D01*
X174485930Y-84489070D01*
X174500346Y-84504976D01*
X174513134Y-84522219D01*
X174524170Y-84540632D01*
X174533349Y-84560038D01*
X174540581Y-84580250D01*
X174545797Y-84601074D01*
X174548947Y-84622309D01*
X174550000Y-84643750D01*
X174550000Y-85156250D01*
X174548947Y-85177691D01*
X174545797Y-85198926D01*
X174540581Y-85219750D01*
X174533349Y-85239962D01*
X174524170Y-85259368D01*
X174513134Y-85277781D01*
X174500346Y-85295024D01*
X174485930Y-85310930D01*
X174470024Y-85325346D01*
X174452781Y-85338134D01*
X174434368Y-85349170D01*
X174414962Y-85358349D01*
X174394750Y-85365581D01*
X174373926Y-85370797D01*
X174352691Y-85373947D01*
X174331250Y-85375000D01*
X173893750Y-85375000D01*
X173872309Y-85373947D01*
X173851074Y-85370797D01*
X173830250Y-85365581D01*
X173810038Y-85358349D01*
X173790632Y-85349170D01*
X173772219Y-85338134D01*
X173754976Y-85325346D01*
X173739070Y-85310930D01*
X173724654Y-85295024D01*
X173711866Y-85277781D01*
X173700830Y-85259368D01*
X173691651Y-85239962D01*
X173684419Y-85219750D01*
X173679203Y-85198926D01*
X173676053Y-85177691D01*
X173675000Y-85156250D01*
X173675000Y-84643750D01*
X173676053Y-84622309D01*
X173679203Y-84601074D01*
X173684419Y-84580250D01*
X173691651Y-84560038D01*
X173700830Y-84540632D01*
X173711866Y-84522219D01*
X173724654Y-84504976D01*
X173739070Y-84489070D01*
X173754976Y-84474654D01*
X173772219Y-84461866D01*
X173790632Y-84450830D01*
X173810038Y-84441651D01*
X173830250Y-84434419D01*
X173851074Y-84429203D01*
X173872309Y-84426053D01*
X173893750Y-84425000D01*
X174331250Y-84425000D01*
X174352691Y-84426053D01*
X174352691Y-84426053D01*
G37*
D17*
X174112500Y-84900000D03*
D14*
G36*
X175927691Y-84426053D02*
G01*
X175948926Y-84429203D01*
X175969750Y-84434419D01*
X175989962Y-84441651D01*
X176009368Y-84450830D01*
X176027781Y-84461866D01*
X176045024Y-84474654D01*
X176060930Y-84489070D01*
X176075346Y-84504976D01*
X176088134Y-84522219D01*
X176099170Y-84540632D01*
X176108349Y-84560038D01*
X176115581Y-84580250D01*
X176120797Y-84601074D01*
X176123947Y-84622309D01*
X176125000Y-84643750D01*
X176125000Y-85156250D01*
X176123947Y-85177691D01*
X176120797Y-85198926D01*
X176115581Y-85219750D01*
X176108349Y-85239962D01*
X176099170Y-85259368D01*
X176088134Y-85277781D01*
X176075346Y-85295024D01*
X176060930Y-85310930D01*
X176045024Y-85325346D01*
X176027781Y-85338134D01*
X176009368Y-85349170D01*
X175989962Y-85358349D01*
X175969750Y-85365581D01*
X175948926Y-85370797D01*
X175927691Y-85373947D01*
X175906250Y-85375000D01*
X175468750Y-85375000D01*
X175447309Y-85373947D01*
X175426074Y-85370797D01*
X175405250Y-85365581D01*
X175385038Y-85358349D01*
X175365632Y-85349170D01*
X175347219Y-85338134D01*
X175329976Y-85325346D01*
X175314070Y-85310930D01*
X175299654Y-85295024D01*
X175286866Y-85277781D01*
X175275830Y-85259368D01*
X175266651Y-85239962D01*
X175259419Y-85219750D01*
X175254203Y-85198926D01*
X175251053Y-85177691D01*
X175250000Y-85156250D01*
X175250000Y-84643750D01*
X175251053Y-84622309D01*
X175254203Y-84601074D01*
X175259419Y-84580250D01*
X175266651Y-84560038D01*
X175275830Y-84540632D01*
X175286866Y-84522219D01*
X175299654Y-84504976D01*
X175314070Y-84489070D01*
X175329976Y-84474654D01*
X175347219Y-84461866D01*
X175365632Y-84450830D01*
X175385038Y-84441651D01*
X175405250Y-84434419D01*
X175426074Y-84429203D01*
X175447309Y-84426053D01*
X175468750Y-84425000D01*
X175906250Y-84425000D01*
X175927691Y-84426053D01*
X175927691Y-84426053D01*
G37*
D17*
X175687500Y-84900000D03*
D14*
G36*
X174552691Y-91326053D02*
G01*
X174573926Y-91329203D01*
X174594750Y-91334419D01*
X174614962Y-91341651D01*
X174634368Y-91350830D01*
X174652781Y-91361866D01*
X174670024Y-91374654D01*
X174685930Y-91389070D01*
X174700346Y-91404976D01*
X174713134Y-91422219D01*
X174724170Y-91440632D01*
X174733349Y-91460038D01*
X174740581Y-91480250D01*
X174745797Y-91501074D01*
X174748947Y-91522309D01*
X174750000Y-91543750D01*
X174750000Y-92056250D01*
X174748947Y-92077691D01*
X174745797Y-92098926D01*
X174740581Y-92119750D01*
X174733349Y-92139962D01*
X174724170Y-92159368D01*
X174713134Y-92177781D01*
X174700346Y-92195024D01*
X174685930Y-92210930D01*
X174670024Y-92225346D01*
X174652781Y-92238134D01*
X174634368Y-92249170D01*
X174614962Y-92258349D01*
X174594750Y-92265581D01*
X174573926Y-92270797D01*
X174552691Y-92273947D01*
X174531250Y-92275000D01*
X174093750Y-92275000D01*
X174072309Y-92273947D01*
X174051074Y-92270797D01*
X174030250Y-92265581D01*
X174010038Y-92258349D01*
X173990632Y-92249170D01*
X173972219Y-92238134D01*
X173954976Y-92225346D01*
X173939070Y-92210930D01*
X173924654Y-92195024D01*
X173911866Y-92177781D01*
X173900830Y-92159368D01*
X173891651Y-92139962D01*
X173884419Y-92119750D01*
X173879203Y-92098926D01*
X173876053Y-92077691D01*
X173875000Y-92056250D01*
X173875000Y-91543750D01*
X173876053Y-91522309D01*
X173879203Y-91501074D01*
X173884419Y-91480250D01*
X173891651Y-91460038D01*
X173900830Y-91440632D01*
X173911866Y-91422219D01*
X173924654Y-91404976D01*
X173939070Y-91389070D01*
X173954976Y-91374654D01*
X173972219Y-91361866D01*
X173990632Y-91350830D01*
X174010038Y-91341651D01*
X174030250Y-91334419D01*
X174051074Y-91329203D01*
X174072309Y-91326053D01*
X174093750Y-91325000D01*
X174531250Y-91325000D01*
X174552691Y-91326053D01*
X174552691Y-91326053D01*
G37*
D17*
X174312500Y-91800000D03*
D14*
G36*
X176127691Y-91326053D02*
G01*
X176148926Y-91329203D01*
X176169750Y-91334419D01*
X176189962Y-91341651D01*
X176209368Y-91350830D01*
X176227781Y-91361866D01*
X176245024Y-91374654D01*
X176260930Y-91389070D01*
X176275346Y-91404976D01*
X176288134Y-91422219D01*
X176299170Y-91440632D01*
X176308349Y-91460038D01*
X176315581Y-91480250D01*
X176320797Y-91501074D01*
X176323947Y-91522309D01*
X176325000Y-91543750D01*
X176325000Y-92056250D01*
X176323947Y-92077691D01*
X176320797Y-92098926D01*
X176315581Y-92119750D01*
X176308349Y-92139962D01*
X176299170Y-92159368D01*
X176288134Y-92177781D01*
X176275346Y-92195024D01*
X176260930Y-92210930D01*
X176245024Y-92225346D01*
X176227781Y-92238134D01*
X176209368Y-92249170D01*
X176189962Y-92258349D01*
X176169750Y-92265581D01*
X176148926Y-92270797D01*
X176127691Y-92273947D01*
X176106250Y-92275000D01*
X175668750Y-92275000D01*
X175647309Y-92273947D01*
X175626074Y-92270797D01*
X175605250Y-92265581D01*
X175585038Y-92258349D01*
X175565632Y-92249170D01*
X175547219Y-92238134D01*
X175529976Y-92225346D01*
X175514070Y-92210930D01*
X175499654Y-92195024D01*
X175486866Y-92177781D01*
X175475830Y-92159368D01*
X175466651Y-92139962D01*
X175459419Y-92119750D01*
X175454203Y-92098926D01*
X175451053Y-92077691D01*
X175450000Y-92056250D01*
X175450000Y-91543750D01*
X175451053Y-91522309D01*
X175454203Y-91501074D01*
X175459419Y-91480250D01*
X175466651Y-91460038D01*
X175475830Y-91440632D01*
X175486866Y-91422219D01*
X175499654Y-91404976D01*
X175514070Y-91389070D01*
X175529976Y-91374654D01*
X175547219Y-91361866D01*
X175565632Y-91350830D01*
X175585038Y-91341651D01*
X175605250Y-91334419D01*
X175626074Y-91329203D01*
X175647309Y-91326053D01*
X175668750Y-91325000D01*
X176106250Y-91325000D01*
X176127691Y-91326053D01*
X176127691Y-91326053D01*
G37*
D17*
X175887500Y-91800000D03*
D14*
G36*
X182202691Y-68601053D02*
G01*
X182223926Y-68604203D01*
X182244750Y-68609419D01*
X182264962Y-68616651D01*
X182284368Y-68625830D01*
X182302781Y-68636866D01*
X182320024Y-68649654D01*
X182335930Y-68664070D01*
X182350346Y-68679976D01*
X182363134Y-68697219D01*
X182374170Y-68715632D01*
X182383349Y-68735038D01*
X182390581Y-68755250D01*
X182395797Y-68776074D01*
X182398947Y-68797309D01*
X182400000Y-68818750D01*
X182400000Y-69331250D01*
X182398947Y-69352691D01*
X182395797Y-69373926D01*
X182390581Y-69394750D01*
X182383349Y-69414962D01*
X182374170Y-69434368D01*
X182363134Y-69452781D01*
X182350346Y-69470024D01*
X182335930Y-69485930D01*
X182320024Y-69500346D01*
X182302781Y-69513134D01*
X182284368Y-69524170D01*
X182264962Y-69533349D01*
X182244750Y-69540581D01*
X182223926Y-69545797D01*
X182202691Y-69548947D01*
X182181250Y-69550000D01*
X181743750Y-69550000D01*
X181722309Y-69548947D01*
X181701074Y-69545797D01*
X181680250Y-69540581D01*
X181660038Y-69533349D01*
X181640632Y-69524170D01*
X181622219Y-69513134D01*
X181604976Y-69500346D01*
X181589070Y-69485930D01*
X181574654Y-69470024D01*
X181561866Y-69452781D01*
X181550830Y-69434368D01*
X181541651Y-69414962D01*
X181534419Y-69394750D01*
X181529203Y-69373926D01*
X181526053Y-69352691D01*
X181525000Y-69331250D01*
X181525000Y-68818750D01*
X181526053Y-68797309D01*
X181529203Y-68776074D01*
X181534419Y-68755250D01*
X181541651Y-68735038D01*
X181550830Y-68715632D01*
X181561866Y-68697219D01*
X181574654Y-68679976D01*
X181589070Y-68664070D01*
X181604976Y-68649654D01*
X181622219Y-68636866D01*
X181640632Y-68625830D01*
X181660038Y-68616651D01*
X181680250Y-68609419D01*
X181701074Y-68604203D01*
X181722309Y-68601053D01*
X181743750Y-68600000D01*
X182181250Y-68600000D01*
X182202691Y-68601053D01*
X182202691Y-68601053D01*
G37*
D17*
X181962500Y-69075000D03*
D14*
G36*
X183777691Y-68601053D02*
G01*
X183798926Y-68604203D01*
X183819750Y-68609419D01*
X183839962Y-68616651D01*
X183859368Y-68625830D01*
X183877781Y-68636866D01*
X183895024Y-68649654D01*
X183910930Y-68664070D01*
X183925346Y-68679976D01*
X183938134Y-68697219D01*
X183949170Y-68715632D01*
X183958349Y-68735038D01*
X183965581Y-68755250D01*
X183970797Y-68776074D01*
X183973947Y-68797309D01*
X183975000Y-68818750D01*
X183975000Y-69331250D01*
X183973947Y-69352691D01*
X183970797Y-69373926D01*
X183965581Y-69394750D01*
X183958349Y-69414962D01*
X183949170Y-69434368D01*
X183938134Y-69452781D01*
X183925346Y-69470024D01*
X183910930Y-69485930D01*
X183895024Y-69500346D01*
X183877781Y-69513134D01*
X183859368Y-69524170D01*
X183839962Y-69533349D01*
X183819750Y-69540581D01*
X183798926Y-69545797D01*
X183777691Y-69548947D01*
X183756250Y-69550000D01*
X183318750Y-69550000D01*
X183297309Y-69548947D01*
X183276074Y-69545797D01*
X183255250Y-69540581D01*
X183235038Y-69533349D01*
X183215632Y-69524170D01*
X183197219Y-69513134D01*
X183179976Y-69500346D01*
X183164070Y-69485930D01*
X183149654Y-69470024D01*
X183136866Y-69452781D01*
X183125830Y-69434368D01*
X183116651Y-69414962D01*
X183109419Y-69394750D01*
X183104203Y-69373926D01*
X183101053Y-69352691D01*
X183100000Y-69331250D01*
X183100000Y-68818750D01*
X183101053Y-68797309D01*
X183104203Y-68776074D01*
X183109419Y-68755250D01*
X183116651Y-68735038D01*
X183125830Y-68715632D01*
X183136866Y-68697219D01*
X183149654Y-68679976D01*
X183164070Y-68664070D01*
X183179976Y-68649654D01*
X183197219Y-68636866D01*
X183215632Y-68625830D01*
X183235038Y-68616651D01*
X183255250Y-68609419D01*
X183276074Y-68604203D01*
X183297309Y-68601053D01*
X183318750Y-68600000D01*
X183756250Y-68600000D01*
X183777691Y-68601053D01*
X183777691Y-68601053D01*
G37*
D17*
X183537500Y-69075000D03*
D14*
G36*
X182152691Y-70826053D02*
G01*
X182173926Y-70829203D01*
X182194750Y-70834419D01*
X182214962Y-70841651D01*
X182234368Y-70850830D01*
X182252781Y-70861866D01*
X182270024Y-70874654D01*
X182285930Y-70889070D01*
X182300346Y-70904976D01*
X182313134Y-70922219D01*
X182324170Y-70940632D01*
X182333349Y-70960038D01*
X182340581Y-70980250D01*
X182345797Y-71001074D01*
X182348947Y-71022309D01*
X182350000Y-71043750D01*
X182350000Y-71556250D01*
X182348947Y-71577691D01*
X182345797Y-71598926D01*
X182340581Y-71619750D01*
X182333349Y-71639962D01*
X182324170Y-71659368D01*
X182313134Y-71677781D01*
X182300346Y-71695024D01*
X182285930Y-71710930D01*
X182270024Y-71725346D01*
X182252781Y-71738134D01*
X182234368Y-71749170D01*
X182214962Y-71758349D01*
X182194750Y-71765581D01*
X182173926Y-71770797D01*
X182152691Y-71773947D01*
X182131250Y-71775000D01*
X181693750Y-71775000D01*
X181672309Y-71773947D01*
X181651074Y-71770797D01*
X181630250Y-71765581D01*
X181610038Y-71758349D01*
X181590632Y-71749170D01*
X181572219Y-71738134D01*
X181554976Y-71725346D01*
X181539070Y-71710930D01*
X181524654Y-71695024D01*
X181511866Y-71677781D01*
X181500830Y-71659368D01*
X181491651Y-71639962D01*
X181484419Y-71619750D01*
X181479203Y-71598926D01*
X181476053Y-71577691D01*
X181475000Y-71556250D01*
X181475000Y-71043750D01*
X181476053Y-71022309D01*
X181479203Y-71001074D01*
X181484419Y-70980250D01*
X181491651Y-70960038D01*
X181500830Y-70940632D01*
X181511866Y-70922219D01*
X181524654Y-70904976D01*
X181539070Y-70889070D01*
X181554976Y-70874654D01*
X181572219Y-70861866D01*
X181590632Y-70850830D01*
X181610038Y-70841651D01*
X181630250Y-70834419D01*
X181651074Y-70829203D01*
X181672309Y-70826053D01*
X181693750Y-70825000D01*
X182131250Y-70825000D01*
X182152691Y-70826053D01*
X182152691Y-70826053D01*
G37*
D17*
X181912500Y-71300000D03*
D14*
G36*
X183727691Y-70826053D02*
G01*
X183748926Y-70829203D01*
X183769750Y-70834419D01*
X183789962Y-70841651D01*
X183809368Y-70850830D01*
X183827781Y-70861866D01*
X183845024Y-70874654D01*
X183860930Y-70889070D01*
X183875346Y-70904976D01*
X183888134Y-70922219D01*
X183899170Y-70940632D01*
X183908349Y-70960038D01*
X183915581Y-70980250D01*
X183920797Y-71001074D01*
X183923947Y-71022309D01*
X183925000Y-71043750D01*
X183925000Y-71556250D01*
X183923947Y-71577691D01*
X183920797Y-71598926D01*
X183915581Y-71619750D01*
X183908349Y-71639962D01*
X183899170Y-71659368D01*
X183888134Y-71677781D01*
X183875346Y-71695024D01*
X183860930Y-71710930D01*
X183845024Y-71725346D01*
X183827781Y-71738134D01*
X183809368Y-71749170D01*
X183789962Y-71758349D01*
X183769750Y-71765581D01*
X183748926Y-71770797D01*
X183727691Y-71773947D01*
X183706250Y-71775000D01*
X183268750Y-71775000D01*
X183247309Y-71773947D01*
X183226074Y-71770797D01*
X183205250Y-71765581D01*
X183185038Y-71758349D01*
X183165632Y-71749170D01*
X183147219Y-71738134D01*
X183129976Y-71725346D01*
X183114070Y-71710930D01*
X183099654Y-71695024D01*
X183086866Y-71677781D01*
X183075830Y-71659368D01*
X183066651Y-71639962D01*
X183059419Y-71619750D01*
X183054203Y-71598926D01*
X183051053Y-71577691D01*
X183050000Y-71556250D01*
X183050000Y-71043750D01*
X183051053Y-71022309D01*
X183054203Y-71001074D01*
X183059419Y-70980250D01*
X183066651Y-70960038D01*
X183075830Y-70940632D01*
X183086866Y-70922219D01*
X183099654Y-70904976D01*
X183114070Y-70889070D01*
X183129976Y-70874654D01*
X183147219Y-70861866D01*
X183165632Y-70850830D01*
X183185038Y-70841651D01*
X183205250Y-70834419D01*
X183226074Y-70829203D01*
X183247309Y-70826053D01*
X183268750Y-70825000D01*
X183706250Y-70825000D01*
X183727691Y-70826053D01*
X183727691Y-70826053D01*
G37*
D17*
X183487500Y-71300000D03*
D14*
G36*
X176127691Y-76626053D02*
G01*
X176148926Y-76629203D01*
X176169750Y-76634419D01*
X176189962Y-76641651D01*
X176209368Y-76650830D01*
X176227781Y-76661866D01*
X176245024Y-76674654D01*
X176260930Y-76689070D01*
X176275346Y-76704976D01*
X176288134Y-76722219D01*
X176299170Y-76740632D01*
X176308349Y-76760038D01*
X176315581Y-76780250D01*
X176320797Y-76801074D01*
X176323947Y-76822309D01*
X176325000Y-76843750D01*
X176325000Y-77356250D01*
X176323947Y-77377691D01*
X176320797Y-77398926D01*
X176315581Y-77419750D01*
X176308349Y-77439962D01*
X176299170Y-77459368D01*
X176288134Y-77477781D01*
X176275346Y-77495024D01*
X176260930Y-77510930D01*
X176245024Y-77525346D01*
X176227781Y-77538134D01*
X176209368Y-77549170D01*
X176189962Y-77558349D01*
X176169750Y-77565581D01*
X176148926Y-77570797D01*
X176127691Y-77573947D01*
X176106250Y-77575000D01*
X175668750Y-77575000D01*
X175647309Y-77573947D01*
X175626074Y-77570797D01*
X175605250Y-77565581D01*
X175585038Y-77558349D01*
X175565632Y-77549170D01*
X175547219Y-77538134D01*
X175529976Y-77525346D01*
X175514070Y-77510930D01*
X175499654Y-77495024D01*
X175486866Y-77477781D01*
X175475830Y-77459368D01*
X175466651Y-77439962D01*
X175459419Y-77419750D01*
X175454203Y-77398926D01*
X175451053Y-77377691D01*
X175450000Y-77356250D01*
X175450000Y-76843750D01*
X175451053Y-76822309D01*
X175454203Y-76801074D01*
X175459419Y-76780250D01*
X175466651Y-76760038D01*
X175475830Y-76740632D01*
X175486866Y-76722219D01*
X175499654Y-76704976D01*
X175514070Y-76689070D01*
X175529976Y-76674654D01*
X175547219Y-76661866D01*
X175565632Y-76650830D01*
X175585038Y-76641651D01*
X175605250Y-76634419D01*
X175626074Y-76629203D01*
X175647309Y-76626053D01*
X175668750Y-76625000D01*
X176106250Y-76625000D01*
X176127691Y-76626053D01*
X176127691Y-76626053D01*
G37*
D17*
X175887500Y-77100000D03*
D14*
G36*
X174552691Y-76626053D02*
G01*
X174573926Y-76629203D01*
X174594750Y-76634419D01*
X174614962Y-76641651D01*
X174634368Y-76650830D01*
X174652781Y-76661866D01*
X174670024Y-76674654D01*
X174685930Y-76689070D01*
X174700346Y-76704976D01*
X174713134Y-76722219D01*
X174724170Y-76740632D01*
X174733349Y-76760038D01*
X174740581Y-76780250D01*
X174745797Y-76801074D01*
X174748947Y-76822309D01*
X174750000Y-76843750D01*
X174750000Y-77356250D01*
X174748947Y-77377691D01*
X174745797Y-77398926D01*
X174740581Y-77419750D01*
X174733349Y-77439962D01*
X174724170Y-77459368D01*
X174713134Y-77477781D01*
X174700346Y-77495024D01*
X174685930Y-77510930D01*
X174670024Y-77525346D01*
X174652781Y-77538134D01*
X174634368Y-77549170D01*
X174614962Y-77558349D01*
X174594750Y-77565581D01*
X174573926Y-77570797D01*
X174552691Y-77573947D01*
X174531250Y-77575000D01*
X174093750Y-77575000D01*
X174072309Y-77573947D01*
X174051074Y-77570797D01*
X174030250Y-77565581D01*
X174010038Y-77558349D01*
X173990632Y-77549170D01*
X173972219Y-77538134D01*
X173954976Y-77525346D01*
X173939070Y-77510930D01*
X173924654Y-77495024D01*
X173911866Y-77477781D01*
X173900830Y-77459368D01*
X173891651Y-77439962D01*
X173884419Y-77419750D01*
X173879203Y-77398926D01*
X173876053Y-77377691D01*
X173875000Y-77356250D01*
X173875000Y-76843750D01*
X173876053Y-76822309D01*
X173879203Y-76801074D01*
X173884419Y-76780250D01*
X173891651Y-76760038D01*
X173900830Y-76740632D01*
X173911866Y-76722219D01*
X173924654Y-76704976D01*
X173939070Y-76689070D01*
X173954976Y-76674654D01*
X173972219Y-76661866D01*
X173990632Y-76650830D01*
X174010038Y-76641651D01*
X174030250Y-76634419D01*
X174051074Y-76629203D01*
X174072309Y-76626053D01*
X174093750Y-76625000D01*
X174531250Y-76625000D01*
X174552691Y-76626053D01*
X174552691Y-76626053D01*
G37*
D17*
X174312500Y-77100000D03*
D27*
X206650000Y-92699038D03*
D14*
G36*
X205407180Y-92146410D02*
G01*
X206792820Y-91346410D01*
X207892820Y-93251666D01*
X206507180Y-94051666D01*
X205407180Y-92146410D01*
X205407180Y-92146410D01*
G37*
D27*
X205150000Y-90100962D03*
D14*
G36*
X203907180Y-89548334D02*
G01*
X205292820Y-88748334D01*
X206392820Y-90653590D01*
X205007180Y-91453590D01*
X203907180Y-89548334D01*
X203907180Y-89548334D01*
G37*
D28*
X197715821Y-97497994D03*
D14*
G36*
X197580356Y-98413362D02*
G01*
X196855356Y-97157626D01*
X197851286Y-96582626D01*
X198576286Y-97838362D01*
X197580356Y-98413362D01*
X197580356Y-98413362D01*
G37*
D28*
X201734179Y-95177994D03*
D14*
G36*
X201598714Y-96093362D02*
G01*
X200873714Y-94837626D01*
X201869644Y-94262626D01*
X202594644Y-95518362D01*
X201598714Y-96093362D01*
X201598714Y-96093362D01*
G37*
D29*
X203936041Y-96481730D03*
D30*
X203723541Y-96113669D02*
X204148541Y-96849791D01*
D29*
X197743959Y-100056730D03*
D30*
X197956459Y-100424791D02*
X197531459Y-99688669D01*
D31*
X199865721Y-98831730D03*
D14*
G36*
X199582949Y-100091954D02*
G01*
X198632949Y-98446506D01*
X200148493Y-97571506D01*
X201098493Y-99216954D01*
X199582949Y-100091954D01*
X199582949Y-100091954D01*
G37*
D32*
X199515000Y-95974263D03*
D14*
G36*
X199691795Y-96680481D02*
G01*
X198991795Y-95468045D01*
X199338205Y-95268045D01*
X200038205Y-96480481D01*
X199691795Y-96680481D01*
X199691795Y-96680481D01*
G37*
D32*
X200077917Y-95649263D03*
D14*
G36*
X200254712Y-96355481D02*
G01*
X199554712Y-95143045D01*
X199901122Y-94943045D01*
X200601122Y-96155481D01*
X200254712Y-96355481D01*
X200254712Y-96355481D01*
G37*
D32*
X200640833Y-95324263D03*
D14*
G36*
X200817628Y-96030481D02*
G01*
X200117628Y-94818045D01*
X200464038Y-94618045D01*
X201164038Y-95830481D01*
X200817628Y-96030481D01*
X200817628Y-96030481D01*
G37*
D32*
X198389167Y-96624263D03*
D14*
G36*
X198565962Y-97330481D02*
G01*
X197865962Y-96118045D01*
X198212372Y-95918045D01*
X198912372Y-97130481D01*
X198565962Y-97330481D01*
X198565962Y-97330481D01*
G37*
D32*
X198952083Y-96299263D03*
D14*
G36*
X199128878Y-97005481D02*
G01*
X198428878Y-95793045D01*
X198775288Y-95593045D01*
X199475288Y-96805481D01*
X199128878Y-97005481D01*
X199128878Y-97005481D01*
G37*
D31*
X201814279Y-97706730D03*
D14*
G36*
X201531507Y-98966954D02*
G01*
X200581507Y-97321506D01*
X202097051Y-96446506D01*
X203047051Y-98091954D01*
X201531507Y-98966954D01*
X201531507Y-98966954D01*
G37*
D33*
X175100000Y-70650000D03*
X175100000Y-68750000D03*
X177300000Y-68750000D03*
X177300000Y-69700000D03*
X177300000Y-70650000D03*
D34*
X180265926Y-84441181D03*
D14*
G36*
X179934787Y-84944020D02*
G01*
X179727732Y-84171279D01*
X180597065Y-83938342D01*
X180804120Y-84711083D01*
X179934787Y-84944020D01*
X179934787Y-84944020D01*
G37*
D34*
X178579952Y-85876449D03*
D14*
G36*
X178248813Y-86379288D02*
G01*
X178041758Y-85606547D01*
X178911091Y-85373610D01*
X179118146Y-86146351D01*
X178248813Y-86379288D01*
X178248813Y-86379288D01*
G37*
D34*
X178088196Y-84041190D03*
D14*
G36*
X177757057Y-84544029D02*
G01*
X177550002Y-83771288D01*
X178419335Y-83538351D01*
X178626390Y-84311092D01*
X177757057Y-84544029D01*
X177757057Y-84544029D01*
G37*
D35*
X184589409Y-64550000D03*
X181119705Y-63620295D03*
X180190000Y-67090000D03*
D14*
G36*
X178455142Y-76401174D02*
G01*
X178478803Y-76404684D01*
X178502007Y-76410496D01*
X178524529Y-76418554D01*
X178546153Y-76428782D01*
X178566670Y-76441079D01*
X178585883Y-76455329D01*
X178603607Y-76471393D01*
X178619671Y-76489117D01*
X178633921Y-76508330D01*
X178646218Y-76528847D01*
X178656446Y-76550471D01*
X178664504Y-76572993D01*
X178670316Y-76596197D01*
X178673826Y-76619858D01*
X178675000Y-76643750D01*
X178675000Y-77556250D01*
X178673826Y-77580142D01*
X178670316Y-77603803D01*
X178664504Y-77627007D01*
X178656446Y-77649529D01*
X178646218Y-77671153D01*
X178633921Y-77691670D01*
X178619671Y-77710883D01*
X178603607Y-77728607D01*
X178585883Y-77744671D01*
X178566670Y-77758921D01*
X178546153Y-77771218D01*
X178524529Y-77781446D01*
X178502007Y-77789504D01*
X178478803Y-77795316D01*
X178455142Y-77798826D01*
X178431250Y-77800000D01*
X177943750Y-77800000D01*
X177919858Y-77798826D01*
X177896197Y-77795316D01*
X177872993Y-77789504D01*
X177850471Y-77781446D01*
X177828847Y-77771218D01*
X177808330Y-77758921D01*
X177789117Y-77744671D01*
X177771393Y-77728607D01*
X177755329Y-77710883D01*
X177741079Y-77691670D01*
X177728782Y-77671153D01*
X177718554Y-77649529D01*
X177710496Y-77627007D01*
X177704684Y-77603803D01*
X177701174Y-77580142D01*
X177700000Y-77556250D01*
X177700000Y-76643750D01*
X177701174Y-76619858D01*
X177704684Y-76596197D01*
X177710496Y-76572993D01*
X177718554Y-76550471D01*
X177728782Y-76528847D01*
X177741079Y-76508330D01*
X177755329Y-76489117D01*
X177771393Y-76471393D01*
X177789117Y-76455329D01*
X177808330Y-76441079D01*
X177828847Y-76428782D01*
X177850471Y-76418554D01*
X177872993Y-76410496D01*
X177896197Y-76404684D01*
X177919858Y-76401174D01*
X177943750Y-76400000D01*
X178431250Y-76400000D01*
X178455142Y-76401174D01*
X178455142Y-76401174D01*
G37*
D21*
X178187500Y-77100000D03*
D14*
G36*
X180330142Y-76401174D02*
G01*
X180353803Y-76404684D01*
X180377007Y-76410496D01*
X180399529Y-76418554D01*
X180421153Y-76428782D01*
X180441670Y-76441079D01*
X180460883Y-76455329D01*
X180478607Y-76471393D01*
X180494671Y-76489117D01*
X180508921Y-76508330D01*
X180521218Y-76528847D01*
X180531446Y-76550471D01*
X180539504Y-76572993D01*
X180545316Y-76596197D01*
X180548826Y-76619858D01*
X180550000Y-76643750D01*
X180550000Y-77556250D01*
X180548826Y-77580142D01*
X180545316Y-77603803D01*
X180539504Y-77627007D01*
X180531446Y-77649529D01*
X180521218Y-77671153D01*
X180508921Y-77691670D01*
X180494671Y-77710883D01*
X180478607Y-77728607D01*
X180460883Y-77744671D01*
X180441670Y-77758921D01*
X180421153Y-77771218D01*
X180399529Y-77781446D01*
X180377007Y-77789504D01*
X180353803Y-77795316D01*
X180330142Y-77798826D01*
X180306250Y-77800000D01*
X179818750Y-77800000D01*
X179794858Y-77798826D01*
X179771197Y-77795316D01*
X179747993Y-77789504D01*
X179725471Y-77781446D01*
X179703847Y-77771218D01*
X179683330Y-77758921D01*
X179664117Y-77744671D01*
X179646393Y-77728607D01*
X179630329Y-77710883D01*
X179616079Y-77691670D01*
X179603782Y-77671153D01*
X179593554Y-77649529D01*
X179585496Y-77627007D01*
X179579684Y-77603803D01*
X179576174Y-77580142D01*
X179575000Y-77556250D01*
X179575000Y-76643750D01*
X179576174Y-76619858D01*
X179579684Y-76596197D01*
X179585496Y-76572993D01*
X179593554Y-76550471D01*
X179603782Y-76528847D01*
X179616079Y-76508330D01*
X179630329Y-76489117D01*
X179646393Y-76471393D01*
X179664117Y-76455329D01*
X179683330Y-76441079D01*
X179703847Y-76428782D01*
X179725471Y-76418554D01*
X179747993Y-76410496D01*
X179771197Y-76404684D01*
X179794858Y-76401174D01*
X179818750Y-76400000D01*
X180306250Y-76400000D01*
X180330142Y-76401174D01*
X180330142Y-76401174D01*
G37*
D21*
X180062500Y-77100000D03*
D14*
G36*
X181152691Y-73301053D02*
G01*
X181173926Y-73304203D01*
X181194750Y-73309419D01*
X181214962Y-73316651D01*
X181234368Y-73325830D01*
X181252781Y-73336866D01*
X181270024Y-73349654D01*
X181285930Y-73364070D01*
X181300346Y-73379976D01*
X181313134Y-73397219D01*
X181324170Y-73415632D01*
X181333349Y-73435038D01*
X181340581Y-73455250D01*
X181345797Y-73476074D01*
X181348947Y-73497309D01*
X181350000Y-73518750D01*
X181350000Y-74031250D01*
X181348947Y-74052691D01*
X181345797Y-74073926D01*
X181340581Y-74094750D01*
X181333349Y-74114962D01*
X181324170Y-74134368D01*
X181313134Y-74152781D01*
X181300346Y-74170024D01*
X181285930Y-74185930D01*
X181270024Y-74200346D01*
X181252781Y-74213134D01*
X181234368Y-74224170D01*
X181214962Y-74233349D01*
X181194750Y-74240581D01*
X181173926Y-74245797D01*
X181152691Y-74248947D01*
X181131250Y-74250000D01*
X180693750Y-74250000D01*
X180672309Y-74248947D01*
X180651074Y-74245797D01*
X180630250Y-74240581D01*
X180610038Y-74233349D01*
X180590632Y-74224170D01*
X180572219Y-74213134D01*
X180554976Y-74200346D01*
X180539070Y-74185930D01*
X180524654Y-74170024D01*
X180511866Y-74152781D01*
X180500830Y-74134368D01*
X180491651Y-74114962D01*
X180484419Y-74094750D01*
X180479203Y-74073926D01*
X180476053Y-74052691D01*
X180475000Y-74031250D01*
X180475000Y-73518750D01*
X180476053Y-73497309D01*
X180479203Y-73476074D01*
X180484419Y-73455250D01*
X180491651Y-73435038D01*
X180500830Y-73415632D01*
X180511866Y-73397219D01*
X180524654Y-73379976D01*
X180539070Y-73364070D01*
X180554976Y-73349654D01*
X180572219Y-73336866D01*
X180590632Y-73325830D01*
X180610038Y-73316651D01*
X180630250Y-73309419D01*
X180651074Y-73304203D01*
X180672309Y-73301053D01*
X180693750Y-73300000D01*
X181131250Y-73300000D01*
X181152691Y-73301053D01*
X181152691Y-73301053D01*
G37*
D17*
X180912500Y-73775000D03*
D14*
G36*
X182727691Y-73301053D02*
G01*
X182748926Y-73304203D01*
X182769750Y-73309419D01*
X182789962Y-73316651D01*
X182809368Y-73325830D01*
X182827781Y-73336866D01*
X182845024Y-73349654D01*
X182860930Y-73364070D01*
X182875346Y-73379976D01*
X182888134Y-73397219D01*
X182899170Y-73415632D01*
X182908349Y-73435038D01*
X182915581Y-73455250D01*
X182920797Y-73476074D01*
X182923947Y-73497309D01*
X182925000Y-73518750D01*
X182925000Y-74031250D01*
X182923947Y-74052691D01*
X182920797Y-74073926D01*
X182915581Y-74094750D01*
X182908349Y-74114962D01*
X182899170Y-74134368D01*
X182888134Y-74152781D01*
X182875346Y-74170024D01*
X182860930Y-74185930D01*
X182845024Y-74200346D01*
X182827781Y-74213134D01*
X182809368Y-74224170D01*
X182789962Y-74233349D01*
X182769750Y-74240581D01*
X182748926Y-74245797D01*
X182727691Y-74248947D01*
X182706250Y-74250000D01*
X182268750Y-74250000D01*
X182247309Y-74248947D01*
X182226074Y-74245797D01*
X182205250Y-74240581D01*
X182185038Y-74233349D01*
X182165632Y-74224170D01*
X182147219Y-74213134D01*
X182129976Y-74200346D01*
X182114070Y-74185930D01*
X182099654Y-74170024D01*
X182086866Y-74152781D01*
X182075830Y-74134368D01*
X182066651Y-74114962D01*
X182059419Y-74094750D01*
X182054203Y-74073926D01*
X182051053Y-74052691D01*
X182050000Y-74031250D01*
X182050000Y-73518750D01*
X182051053Y-73497309D01*
X182054203Y-73476074D01*
X182059419Y-73455250D01*
X182066651Y-73435038D01*
X182075830Y-73415632D01*
X182086866Y-73397219D01*
X182099654Y-73379976D01*
X182114070Y-73364070D01*
X182129976Y-73349654D01*
X182147219Y-73336866D01*
X182165632Y-73325830D01*
X182185038Y-73316651D01*
X182205250Y-73309419D01*
X182226074Y-73304203D01*
X182247309Y-73301053D01*
X182268750Y-73300000D01*
X182706250Y-73300000D01*
X182727691Y-73301053D01*
X182727691Y-73301053D01*
G37*
D17*
X182487500Y-73775000D03*
D23*
X187252852Y-100568232D03*
D14*
G36*
X186575775Y-101163267D02*
G01*
X186964003Y-99714378D01*
X187929929Y-99973197D01*
X187541701Y-101422086D01*
X186575775Y-101163267D01*
X186575775Y-101163267D01*
G37*
D23*
X185997148Y-100231768D03*
D14*
G36*
X185320071Y-100826803D02*
G01*
X185708299Y-99377914D01*
X186674225Y-99636733D01*
X186285997Y-101085622D01*
X185320071Y-100826803D01*
X185320071Y-100826803D01*
G37*
D34*
X177500000Y-85475000D03*
X173975000Y-82825000D03*
X178186126Y-69735000D03*
X177475030Y-73324970D03*
X210100000Y-74175000D03*
X200575000Y-75075000D03*
X158470246Y-86974990D03*
X179883334Y-72867802D03*
X179500000Y-69875000D03*
X196125000Y-75425000D03*
X158300000Y-76500000D03*
X172775000Y-91650000D03*
X156000400Y-76800466D03*
X180725000Y-95550000D03*
X187612388Y-99808335D03*
X164200000Y-77400000D03*
X197828168Y-68979156D03*
X194505497Y-67363798D03*
X182450000Y-67950000D03*
X168425000Y-72679998D03*
X181775000Y-72725000D03*
X194850000Y-66425000D03*
X169325000Y-86199990D03*
X202075000Y-76525000D03*
X199981310Y-77047564D03*
X200161633Y-79497575D03*
X178925000Y-82125000D03*
X175200010Y-81742874D03*
X176448382Y-74719611D03*
X177050000Y-78425000D03*
X183575000Y-73075000D03*
X181425000Y-86625000D03*
X163625000Y-86925000D03*
D36*
X197750963Y-71083292D02*
X197266250Y-71568005D01*
X204323305Y-71123305D02*
X203600000Y-70400000D01*
X203600000Y-70400000D02*
X198434255Y-70400000D01*
X198434255Y-70400000D02*
X197750963Y-71083292D01*
X204323305Y-72056358D02*
X204323305Y-71123305D01*
X204503822Y-72236875D02*
X204323305Y-72056358D01*
D37*
X176456401Y-88000000D02*
X178579952Y-85876449D01*
X176037500Y-88000000D02*
X176456401Y-88000000D01*
X175162490Y-75799990D02*
X175887500Y-76525000D01*
X173219990Y-75799990D02*
X175162490Y-75799990D01*
X175887500Y-76525000D02*
X175887500Y-77100000D01*
X171950000Y-74530000D02*
X173219990Y-75799990D01*
X170200000Y-74530000D02*
X171950000Y-74530000D01*
X181400000Y-88696497D02*
X178579952Y-85876449D01*
X181400000Y-90500000D02*
X181400000Y-88696497D01*
X177901449Y-85876449D02*
X177500000Y-85475000D01*
X178579952Y-85876449D02*
X177901449Y-85876449D01*
X173975000Y-80737500D02*
X174212500Y-80500000D01*
X173975000Y-82825000D02*
X173975000Y-80737500D01*
D38*
X177335000Y-69735000D02*
X177620441Y-69735000D01*
X177300000Y-69700000D02*
X177335000Y-69735000D01*
X177620441Y-69735000D02*
X178186126Y-69735000D01*
D37*
X174212500Y-79399498D02*
X174212500Y-79925000D01*
X174212500Y-79925000D02*
X174212500Y-80500000D01*
X175887500Y-77724498D02*
X174212500Y-79399498D01*
X175887500Y-77100000D02*
X175887500Y-77724498D01*
D36*
X207381995Y-71134535D02*
X207381995Y-70006250D01*
X205153822Y-73362708D02*
X207381995Y-71134535D01*
X204516530Y-74000000D02*
X203400000Y-74000000D01*
X205153822Y-73362708D02*
X204516530Y-74000000D01*
X202740697Y-74000000D02*
X203400000Y-74000000D01*
X201636875Y-72896178D02*
X202740697Y-74000000D01*
X204600208Y-75200208D02*
X203400000Y-74000000D01*
X204600208Y-75428822D02*
X204600208Y-75200208D01*
X204124375Y-75428822D02*
X203474375Y-76078822D01*
X204600208Y-75428822D02*
X204124375Y-75428822D01*
X204217809Y-75522256D02*
X204217809Y-75573305D01*
X204217809Y-75573305D02*
X204037292Y-75753822D01*
X204124375Y-75428822D02*
X204217809Y-75522256D01*
X207610280Y-71134535D02*
X209181995Y-72706250D01*
X207381995Y-71134535D02*
X207610280Y-71134535D01*
X198089567Y-72896178D02*
X198053750Y-72931995D01*
X201636875Y-72896178D02*
X198089567Y-72896178D01*
D37*
X208800000Y-82800000D02*
X209600000Y-82000000D01*
X203700000Y-82800000D02*
X208800000Y-82800000D01*
X209181995Y-73256995D02*
X210100000Y-74175000D01*
X209181995Y-72706250D02*
X209181995Y-73256995D01*
X175887500Y-77100000D02*
X176349112Y-76638388D01*
X176349112Y-76551307D02*
X177708321Y-75192098D01*
X177708321Y-74123946D02*
X177475030Y-73890655D01*
X176349112Y-76638388D02*
X176349112Y-76551307D01*
X177708321Y-75192098D02*
X177708321Y-74123946D01*
X177475030Y-73890655D02*
X177475030Y-73324970D01*
X206650000Y-93767771D02*
X203936041Y-96481730D01*
X206650000Y-92699038D02*
X206650000Y-93767771D01*
X203039279Y-96481730D02*
X201814279Y-97706730D01*
X203936041Y-96481730D02*
X203039279Y-96481730D01*
X200990721Y-97706730D02*
X199865721Y-98831730D01*
X201814279Y-97706730D02*
X200990721Y-97706730D01*
X197715821Y-97792192D02*
X197715821Y-97647082D01*
X198755359Y-98831730D02*
X197715821Y-97792192D01*
X199865721Y-98831730D02*
X198755359Y-98831730D01*
X198755359Y-99045330D02*
X197743959Y-100056730D01*
X198755359Y-98831730D02*
X198755359Y-99045330D01*
X202632305Y-95177994D02*
X203936041Y-96481730D01*
X201734179Y-95177994D02*
X202632305Y-95177994D01*
D36*
X200787102Y-95177994D02*
X200640833Y-95324263D01*
X201734179Y-95177994D02*
X200787102Y-95177994D01*
D38*
X177100000Y-91800000D02*
X178400000Y-90500000D01*
X175887500Y-91800000D02*
X177100000Y-91800000D01*
X175887500Y-89725000D02*
X175887500Y-91800000D01*
X174162500Y-88000000D02*
X175887500Y-89725000D01*
D37*
X172432500Y-89730000D02*
X174162500Y-88000000D01*
X170200000Y-89730000D02*
X172432500Y-89730000D01*
X174162500Y-88000000D02*
X174162500Y-87000000D01*
X174162500Y-87000000D02*
X175687500Y-85475000D01*
X175687500Y-85475000D02*
X175687500Y-84900000D01*
X183487500Y-69125000D02*
X183537500Y-69075000D01*
X183487500Y-71300000D02*
X183487500Y-69125000D01*
X178743737Y-76207307D02*
X179412490Y-75538554D01*
X178743737Y-76543763D02*
X178743737Y-76207307D01*
X179412490Y-75538554D02*
X179412490Y-75075010D01*
X178187500Y-77100000D02*
X178743737Y-76543763D01*
X178743737Y-77656237D02*
X178187500Y-77100000D01*
X175687500Y-84900000D02*
X175687500Y-83068388D01*
X175687500Y-83068388D02*
X178743737Y-80012151D01*
X178743737Y-80012151D02*
X178743737Y-77656237D01*
X183387994Y-75075010D02*
X184800002Y-73663002D01*
X184800002Y-72075002D02*
X184025000Y-71300000D01*
X184800002Y-73663002D02*
X184800002Y-72075002D01*
X179412490Y-75075010D02*
X183387994Y-75075010D01*
X184025000Y-71300000D02*
X183487500Y-71300000D01*
X197483163Y-66078833D02*
X198157065Y-66078833D01*
X194258757Y-69977141D02*
X195740573Y-68495325D01*
X195740573Y-68495325D02*
X195740573Y-67821423D01*
X195740573Y-67821423D02*
X197483163Y-66078833D01*
X198157065Y-66078833D02*
X198835898Y-65400000D01*
X194258757Y-78041243D02*
X194258757Y-72520755D01*
X190285897Y-73950001D02*
X194258757Y-69977141D01*
X184800002Y-72075002D02*
X186675001Y-73950001D01*
X186675001Y-73950001D02*
X190285897Y-73950001D01*
X194258757Y-72520755D02*
X194258757Y-69977141D01*
D38*
X175305000Y-70650000D02*
X176380000Y-71725000D01*
X177572131Y-71725000D02*
X178908332Y-73061201D01*
X178908332Y-73061201D02*
X178908332Y-74570852D01*
X176380000Y-71725000D02*
X177572131Y-71725000D01*
X178908332Y-74570852D02*
X179412490Y-75075010D01*
X175100000Y-70650000D02*
X175305000Y-70650000D01*
X181700002Y-93800002D02*
X181700002Y-97100058D01*
X181361291Y-97438769D02*
X180861292Y-97938768D01*
X178400000Y-90500000D02*
X181700002Y-93800002D01*
X181700002Y-97100058D02*
X181361291Y-97438769D01*
D36*
X201100000Y-74925000D02*
X201646178Y-74637292D01*
X200575000Y-75075000D02*
X201100000Y-74925000D01*
X162200000Y-74530000D02*
X162200000Y-73780000D01*
X168773001Y-71954997D02*
X169322992Y-72504988D01*
X169322992Y-72504988D02*
X172917488Y-72504988D01*
X162200000Y-73780000D02*
X163025001Y-72954999D01*
X167751999Y-71954997D02*
X168773001Y-71954997D01*
X166751997Y-72954999D02*
X167751999Y-71954997D01*
X173850888Y-73438388D02*
X174312500Y-73900000D01*
X172917488Y-72504988D02*
X173850888Y-73438388D01*
X163025001Y-72954999D02*
X166751997Y-72954999D01*
X207386130Y-73925625D02*
X207818005Y-73493750D01*
X205478822Y-73925625D02*
X207386130Y-73925625D01*
X206018005Y-71610609D02*
X204828822Y-72799792D01*
X206018005Y-70793750D02*
X206018005Y-71610609D01*
X158200000Y-87245236D02*
X158470246Y-86974990D01*
X158200000Y-89730000D02*
X158200000Y-87245236D01*
X180912500Y-73775000D02*
X180912500Y-73200000D01*
X180912500Y-73200000D02*
X180700887Y-72988387D01*
X180700887Y-72988387D02*
X180700887Y-68619120D01*
X180700887Y-68619120D02*
X180190000Y-68108233D01*
X180190000Y-68108233D02*
X180190000Y-67090000D01*
X180003919Y-72988387D02*
X179883334Y-72867802D01*
X180700887Y-72988387D02*
X180003919Y-72988387D01*
D38*
X203700000Y-79800000D02*
X203700000Y-79500000D01*
D36*
X201458481Y-75641519D02*
X201000000Y-76100000D01*
X201529867Y-75641519D02*
X201458481Y-75641519D01*
X201971178Y-75200208D02*
X201529867Y-75641519D01*
D38*
X203700000Y-79500000D02*
X205875000Y-77325000D01*
X205875000Y-77325000D02*
X205875000Y-76300000D01*
D36*
X205875000Y-75815697D02*
X205163125Y-75103822D01*
X205875000Y-76300000D02*
X205875000Y-75815697D01*
D38*
X203700000Y-79500000D02*
X203606998Y-79500000D01*
X203606998Y-79500000D02*
X201000000Y-76893002D01*
X201000000Y-76893002D02*
X201000000Y-76100000D01*
X179750877Y-69920877D02*
X178961753Y-70710001D01*
X178580000Y-68750000D02*
X179750877Y-69920877D01*
X178961753Y-70710001D02*
X177324991Y-70710001D01*
X177300000Y-68750000D02*
X178580000Y-68750000D01*
X177324991Y-70710001D02*
X177300000Y-70685010D01*
D37*
X196524999Y-75824999D02*
X196125000Y-75425000D01*
X197225001Y-76525001D02*
X196524999Y-75824999D01*
X197225001Y-76525001D02*
X198972565Y-78272565D01*
X198972565Y-78272565D02*
X202172565Y-78272565D01*
X202172565Y-78272565D02*
X203700000Y-79800000D01*
X198777435Y-78272565D02*
X195650000Y-81400000D01*
X198972565Y-78272565D02*
X198777435Y-78272565D01*
D36*
X158300000Y-74630000D02*
X158200000Y-74530000D01*
X158300000Y-76500000D02*
X158300000Y-74630000D01*
X173774933Y-92649933D02*
X172775000Y-91650000D01*
X174324933Y-92649933D02*
X173774933Y-92649933D01*
X176700000Y-95025000D02*
X174324933Y-92649933D01*
X156000400Y-74729600D02*
X156200000Y-74530000D01*
X156000400Y-76800466D02*
X156000400Y-74729600D01*
X156200000Y-90480000D02*
X157025001Y-91305001D01*
X156200000Y-89730000D02*
X156200000Y-90480000D01*
X175187498Y-92674998D02*
X176573002Y-92674998D01*
X178780646Y-94882642D02*
X178780646Y-95774778D01*
X171251998Y-90924998D02*
X170476996Y-91700000D01*
X176573002Y-92674998D02*
X178780646Y-94882642D01*
X174312500Y-91800000D02*
X173437498Y-90924998D01*
X174312500Y-91800000D02*
X175187498Y-92674998D01*
X178780646Y-95774778D02*
X178780646Y-96481884D01*
X173437498Y-90924998D02*
X171251998Y-90924998D01*
X157025001Y-91305001D02*
X157025001Y-91350001D01*
X157375000Y-91700000D02*
X163775000Y-91700000D01*
X163775000Y-91700000D02*
X163420000Y-91700000D01*
X157025001Y-91350001D02*
X157375000Y-91700000D01*
X170476996Y-91700000D02*
X163775000Y-91700000D01*
X179712530Y-95550000D02*
X180725000Y-95550000D01*
X178780646Y-96481884D02*
X179712530Y-95550000D01*
X187612388Y-100208696D02*
X187252852Y-100568232D01*
X187612388Y-99808335D02*
X187612388Y-100208696D01*
X164200000Y-77400000D02*
X164200000Y-74530000D01*
X166200000Y-74194998D02*
X167439999Y-72954999D01*
X166200000Y-74530000D02*
X166200000Y-74194998D01*
X202300000Y-67400000D02*
X200720844Y-68979156D01*
X200720844Y-68979156D02*
X198393853Y-68979156D01*
X198393853Y-68979156D02*
X197828168Y-68979156D01*
X181962500Y-69075000D02*
X183673702Y-67363798D01*
X183673702Y-67363798D02*
X193939812Y-67363798D01*
X193939812Y-67363798D02*
X194505497Y-67363798D01*
X181962500Y-68437500D02*
X182450000Y-67950000D01*
X181962500Y-69075000D02*
X181962500Y-68437500D01*
X168345002Y-72679998D02*
X168070001Y-72954999D01*
X168425000Y-72679998D02*
X168345002Y-72679998D01*
X168070001Y-72954999D02*
X167439999Y-72954999D01*
X181775000Y-71437500D02*
X181912500Y-71300000D01*
X181775000Y-72725000D02*
X181775000Y-71437500D01*
X181199990Y-69563580D02*
X181912500Y-70276090D01*
X181912500Y-70725000D02*
X181912500Y-71300000D01*
X182901996Y-66425000D02*
X181199990Y-68127006D01*
X181912500Y-70276090D02*
X181912500Y-70725000D01*
X194850000Y-66425000D02*
X182901996Y-66425000D01*
X181199990Y-68127006D02*
X181199990Y-69563580D01*
X166980010Y-86199990D02*
X168759315Y-86199990D01*
X164200000Y-89730000D02*
X164200000Y-88980000D01*
X164200000Y-88980000D02*
X166980010Y-86199990D01*
X168759315Y-86199990D02*
X169325000Y-86199990D01*
X169673001Y-85474989D02*
X163705011Y-85474989D01*
X173057499Y-85955001D02*
X170153013Y-85955001D01*
X170153013Y-85955001D02*
X169673001Y-85474989D01*
X160200000Y-88980000D02*
X160200000Y-89730000D01*
X163705011Y-85474989D02*
X160200000Y-88980000D01*
X174112500Y-84900000D02*
X173057499Y-85955001D01*
X167450000Y-76221028D02*
X167450000Y-76030000D01*
X174312500Y-77100000D02*
X173457499Y-77955001D01*
X167450000Y-76030000D02*
X168200000Y-75280000D01*
X169183973Y-77955001D02*
X167450000Y-76221028D01*
X173457499Y-77955001D02*
X169183973Y-77955001D01*
X168200000Y-75280000D02*
X168200000Y-74530000D01*
X202075000Y-75984303D02*
X202296178Y-75763125D01*
X202075000Y-76525000D02*
X202075000Y-75984303D01*
X200502623Y-74074375D02*
X199500001Y-75076997D01*
X201321178Y-74074375D02*
X200502623Y-74074375D01*
D37*
X205150000Y-90100962D02*
X202349038Y-90100962D01*
X202349038Y-90100962D02*
X197750000Y-94700000D01*
D36*
X197806022Y-96041118D02*
X197806022Y-94756022D01*
X197806022Y-94756022D02*
X197750000Y-94700000D01*
X198389167Y-96624263D02*
X197806022Y-96041118D01*
D38*
X205150000Y-90100962D02*
X200161633Y-85112595D01*
X199500001Y-75076997D02*
X199500001Y-76566255D01*
X199581311Y-76647565D02*
X199981310Y-77047564D01*
X199500001Y-76566255D02*
X199581311Y-76647565D01*
X200161633Y-80063260D02*
X200161633Y-79497575D01*
X200161633Y-85112595D02*
X200161633Y-80063260D01*
D36*
X175887500Y-73900000D02*
X176525021Y-74537521D01*
X176837510Y-79449990D02*
X175787500Y-80500000D01*
X178088196Y-82961804D02*
X178925000Y-82125000D01*
X178088196Y-84041190D02*
X178088196Y-82961804D01*
X175787500Y-80500000D02*
X175200010Y-81087490D01*
X175200010Y-81177189D02*
X175200010Y-81742874D01*
X175200010Y-81087490D02*
X175200010Y-81177189D01*
X176525021Y-74537521D02*
X176525021Y-74642972D01*
X176525021Y-74642972D02*
X176448382Y-74719611D01*
X176837510Y-79203175D02*
X176837510Y-79449990D01*
X177050000Y-78990685D02*
X176837510Y-79203175D01*
X177050000Y-78425000D02*
X177050000Y-78990685D01*
D38*
X183108819Y-84441181D02*
X186150000Y-81400000D01*
X180265926Y-84441181D02*
X183108819Y-84441181D01*
D36*
X180062500Y-84237755D02*
X180265926Y-84441181D01*
D38*
X180062500Y-77100000D02*
X180062500Y-84237755D01*
D36*
X182487500Y-73775000D02*
X182875000Y-73775000D01*
X182875000Y-73775000D02*
X183575000Y-73075000D01*
X185997148Y-91197148D02*
X181425000Y-86625000D01*
X185997148Y-100231768D02*
X185997148Y-91197148D01*
X162200000Y-88350000D02*
X162200000Y-89730000D01*
X163625000Y-86925000D02*
X162200000Y-88350000D01*
M02*
