G04 #@! TF.GenerationSoftware,KiCad,Pcbnew,(5.1.2-1)-1*
G04 #@! TF.CreationDate,2019-05-28T12:56:41-07:00*
G04 #@! TF.ProjectId,sensornode,73656e73-6f72-46e6-9f64-652e6b696361,rev?*
G04 #@! TF.SameCoordinates,Original*
G04 #@! TF.FileFunction,Soldermask,Top*
G04 #@! TF.FilePolarity,Negative*
%FSLAX46Y46*%
G04 Gerber Fmt 4.6, Leading zero omitted, Abs format (unit mm)*
G04 Created by KiCad (PCBNEW (5.1.2-1)-1) date 2019-05-28 12:56:41*
%MOMM*%
%LPD*%
G04 APERTURE LIST*
%ADD10C,0.100000*%
G04 APERTURE END LIST*
D10*
G36*
X186807201Y-99619565D02*
G01*
X186807211Y-99619567D01*
X186927941Y-99651916D01*
X187992391Y-99937135D01*
X187577763Y-101484548D01*
X186442799Y-101180435D01*
X186442789Y-101180433D01*
X186322059Y-101148084D01*
X185257609Y-100862865D01*
X185672237Y-99315452D01*
X186807201Y-99619565D01*
X186807201Y-99619565D01*
G37*
G36*
X197681260Y-99129605D02*
G01*
X197787450Y-99169571D01*
X197883802Y-99229487D01*
X197966614Y-99307048D01*
X198016140Y-99376163D01*
X198016143Y-99376168D01*
X198016145Y-99376171D01*
X198240181Y-99764213D01*
X198469438Y-100161297D01*
X198504530Y-100238745D01*
X198530293Y-100349244D01*
X198534006Y-100462645D01*
X198524765Y-100518618D01*
X198515524Y-100574588D01*
X198515523Y-100574590D01*
X198515523Y-100574591D01*
X198475557Y-100680781D01*
X198415640Y-100777133D01*
X198338079Y-100859945D01*
X198245852Y-100926035D01*
X198142503Y-100972861D01*
X198032005Y-100998625D01*
X197918604Y-101002338D01*
X197870498Y-100994396D01*
X197806659Y-100983856D01*
X197777438Y-100972858D01*
X197700467Y-100943889D01*
X197604115Y-100883972D01*
X197521304Y-100806411D01*
X197471778Y-100737297D01*
X197471776Y-100737293D01*
X197471770Y-100737285D01*
X197018489Y-99952177D01*
X197018480Y-99952162D01*
X196983388Y-99874713D01*
X196963051Y-99787489D01*
X196957624Y-99764213D01*
X196956468Y-99728889D01*
X196953911Y-99650815D01*
X196972395Y-99538868D01*
X197012361Y-99432678D01*
X197072277Y-99336326D01*
X197149838Y-99253514D01*
X197242066Y-99187425D01*
X197345415Y-99140598D01*
X197427389Y-99121485D01*
X197455915Y-99114834D01*
X197491239Y-99113678D01*
X197569313Y-99111121D01*
X197681260Y-99129605D01*
X197681260Y-99129605D01*
G37*
G36*
X201168161Y-99235621D02*
G01*
X200449027Y-99650813D01*
X199564282Y-100161621D01*
X199564281Y-100161621D01*
X198563281Y-98427839D01*
X199597465Y-97830753D01*
X200167160Y-97501839D01*
X200167161Y-97501839D01*
X201168161Y-99235621D01*
X201168161Y-99235621D01*
G37*
G36*
X177467394Y-94889688D02*
G01*
X177336798Y-95076198D01*
X177324778Y-95097551D01*
X177317155Y-95120839D01*
X177314222Y-95145167D01*
X177316091Y-95169600D01*
X177322691Y-95193198D01*
X177333768Y-95215056D01*
X177348896Y-95234332D01*
X177367495Y-95250287D01*
X177388848Y-95262307D01*
X177412136Y-95269930D01*
X177436464Y-95272863D01*
X177460897Y-95270994D01*
X177484495Y-95264394D01*
X177498109Y-95258136D01*
X177528444Y-95241921D01*
X177632308Y-95210415D01*
X177713256Y-95202442D01*
X177767390Y-95202442D01*
X177848338Y-95210415D01*
X177952202Y-95241921D01*
X177967853Y-95250287D01*
X178047923Y-95293085D01*
X178131824Y-95361941D01*
X178200680Y-95445842D01*
X178237318Y-95514387D01*
X178251844Y-95541563D01*
X178283350Y-95645427D01*
X178293989Y-95753442D01*
X178285449Y-95840148D01*
X178283350Y-95861458D01*
X178275436Y-95887545D01*
X178270655Y-95911578D01*
X178270655Y-95936082D01*
X178275435Y-95960116D01*
X178284812Y-95982754D01*
X178298426Y-96003129D01*
X178315753Y-96020456D01*
X178336127Y-96034070D01*
X178358766Y-96043447D01*
X178382799Y-96048228D01*
X178407303Y-96048228D01*
X178431337Y-96043448D01*
X178453975Y-96034071D01*
X178471561Y-96022321D01*
X178545586Y-95982754D01*
X178568767Y-95970363D01*
X178672631Y-95938857D01*
X178753579Y-95930884D01*
X178807713Y-95930884D01*
X178888661Y-95938857D01*
X178992525Y-95970363D01*
X179015706Y-95982754D01*
X179088246Y-96021527D01*
X179172147Y-96090383D01*
X179241003Y-96174284D01*
X179271958Y-96232197D01*
X179292167Y-96270005D01*
X179323673Y-96373869D01*
X179334312Y-96481884D01*
X179331251Y-96512958D01*
X179323673Y-96589900D01*
X179315759Y-96615987D01*
X179310978Y-96640020D01*
X179310978Y-96664524D01*
X179315758Y-96688558D01*
X179325135Y-96711196D01*
X179338749Y-96731571D01*
X179356076Y-96748898D01*
X179376450Y-96762512D01*
X179399089Y-96771889D01*
X179423122Y-96776670D01*
X179447626Y-96776670D01*
X179471660Y-96771890D01*
X179494298Y-96762513D01*
X179511884Y-96750763D01*
X179585909Y-96711196D01*
X179609090Y-96698805D01*
X179712954Y-96667299D01*
X179793902Y-96659326D01*
X179848036Y-96659326D01*
X179928984Y-96667299D01*
X180032848Y-96698805D01*
X180056029Y-96711196D01*
X180128569Y-96749969D01*
X180212470Y-96818825D01*
X180281326Y-96902726D01*
X180312281Y-96960639D01*
X180332490Y-96998447D01*
X180363996Y-97102311D01*
X180374635Y-97210326D01*
X180367285Y-97284945D01*
X180363996Y-97318342D01*
X180356082Y-97344429D01*
X180351301Y-97368462D01*
X180351301Y-97392966D01*
X180356081Y-97417000D01*
X180365458Y-97439638D01*
X180379072Y-97460013D01*
X180396399Y-97477340D01*
X180416773Y-97490954D01*
X180439412Y-97500331D01*
X180463445Y-97505112D01*
X180487949Y-97505112D01*
X180511983Y-97500332D01*
X180534621Y-97490955D01*
X180552207Y-97479205D01*
X180649245Y-97427337D01*
X180649413Y-97427247D01*
X180753277Y-97395741D01*
X180834225Y-97387768D01*
X180888359Y-97387768D01*
X180969307Y-97395741D01*
X181073171Y-97427247D01*
X181073339Y-97427337D01*
X181168892Y-97478411D01*
X181252793Y-97547267D01*
X181321649Y-97631168D01*
X181352604Y-97689081D01*
X181372813Y-97726889D01*
X181404319Y-97830753D01*
X181414958Y-97938768D01*
X181405273Y-98037099D01*
X181404319Y-98046784D01*
X181396405Y-98072871D01*
X181391624Y-98096904D01*
X181391624Y-98121408D01*
X181396404Y-98145442D01*
X181405781Y-98168080D01*
X181419395Y-98188455D01*
X181436722Y-98205782D01*
X181457096Y-98219396D01*
X181479735Y-98228773D01*
X181503768Y-98233554D01*
X181528272Y-98233554D01*
X181552306Y-98228774D01*
X181574944Y-98219397D01*
X181592530Y-98207647D01*
X181666555Y-98168080D01*
X181689736Y-98155689D01*
X181793600Y-98124183D01*
X181874548Y-98116210D01*
X181928682Y-98116210D01*
X182009630Y-98124183D01*
X182113494Y-98155689D01*
X182136675Y-98168080D01*
X182209215Y-98206853D01*
X182293116Y-98275709D01*
X182361972Y-98359610D01*
X182392927Y-98417523D01*
X182413136Y-98455331D01*
X182444642Y-98559195D01*
X182455281Y-98667210D01*
X182444642Y-98775225D01*
X182413136Y-98879089D01*
X182413134Y-98879092D01*
X182361972Y-98974810D01*
X182293116Y-99058711D01*
X182209215Y-99127567D01*
X182140670Y-99164205D01*
X182113494Y-99178731D01*
X182009630Y-99210237D01*
X181928682Y-99218210D01*
X181874548Y-99218210D01*
X181793600Y-99210237D01*
X181689736Y-99178731D01*
X181662560Y-99164205D01*
X181594015Y-99127567D01*
X181510114Y-99058711D01*
X181441258Y-98974810D01*
X181390096Y-98879092D01*
X181390094Y-98879089D01*
X181358588Y-98775225D01*
X181347949Y-98667210D01*
X181358588Y-98559195D01*
X181366503Y-98533102D01*
X181371283Y-98509074D01*
X181371283Y-98484570D01*
X181366503Y-98460536D01*
X181357126Y-98437898D01*
X181343512Y-98417523D01*
X181326185Y-98400196D01*
X181305811Y-98386582D01*
X181283172Y-98377205D01*
X181259139Y-98372424D01*
X181234635Y-98372424D01*
X181210601Y-98377204D01*
X181187963Y-98386581D01*
X181170377Y-98398331D01*
X181134471Y-98417523D01*
X181073171Y-98450289D01*
X180969307Y-98481795D01*
X180888359Y-98489768D01*
X180834225Y-98489768D01*
X180753277Y-98481795D01*
X180649413Y-98450289D01*
X180622237Y-98435763D01*
X180553692Y-98399125D01*
X180469791Y-98330269D01*
X180400935Y-98246368D01*
X180349773Y-98150650D01*
X180349771Y-98150647D01*
X180318265Y-98046783D01*
X180307626Y-97938768D01*
X180318265Y-97830753D01*
X180326180Y-97804660D01*
X180330960Y-97780632D01*
X180330960Y-97756128D01*
X180326180Y-97732094D01*
X180316803Y-97709456D01*
X180303189Y-97689081D01*
X180285862Y-97671754D01*
X180265488Y-97658140D01*
X180242849Y-97648763D01*
X180218816Y-97643982D01*
X180194312Y-97643982D01*
X180170278Y-97648762D01*
X180147640Y-97658139D01*
X180130054Y-97669889D01*
X180094148Y-97689081D01*
X180032848Y-97721847D01*
X179928984Y-97753353D01*
X179848036Y-97761326D01*
X179793902Y-97761326D01*
X179712954Y-97753353D01*
X179609090Y-97721847D01*
X179581914Y-97707321D01*
X179513369Y-97670683D01*
X179429468Y-97601827D01*
X179360612Y-97517926D01*
X179309450Y-97422208D01*
X179309448Y-97422205D01*
X179277942Y-97318341D01*
X179267303Y-97210326D01*
X179277942Y-97102311D01*
X179285857Y-97076218D01*
X179290637Y-97052190D01*
X179290637Y-97027686D01*
X179285857Y-97003652D01*
X179276480Y-96981014D01*
X179262866Y-96960639D01*
X179245539Y-96943312D01*
X179225165Y-96929698D01*
X179202526Y-96920321D01*
X179178493Y-96915540D01*
X179153989Y-96915540D01*
X179129955Y-96920320D01*
X179107317Y-96929697D01*
X179089731Y-96941447D01*
X179053825Y-96960639D01*
X178992525Y-96993405D01*
X178888661Y-97024911D01*
X178807713Y-97032884D01*
X178753579Y-97032884D01*
X178672631Y-97024911D01*
X178568767Y-96993405D01*
X178541591Y-96978879D01*
X178473046Y-96942241D01*
X178389145Y-96873385D01*
X178320289Y-96789484D01*
X178269127Y-96693766D01*
X178269125Y-96693763D01*
X178237619Y-96589899D01*
X178226980Y-96481884D01*
X178237619Y-96373869D01*
X178245534Y-96347776D01*
X178250314Y-96323748D01*
X178250314Y-96299244D01*
X178245534Y-96275210D01*
X178236157Y-96252572D01*
X178222543Y-96232197D01*
X178205216Y-96214870D01*
X178184842Y-96201256D01*
X178162203Y-96191879D01*
X178138170Y-96187098D01*
X178113666Y-96187098D01*
X178089632Y-96191878D01*
X178066994Y-96201255D01*
X178049408Y-96213005D01*
X178013502Y-96232197D01*
X177952202Y-96264963D01*
X177848338Y-96296469D01*
X177767390Y-96304442D01*
X177713256Y-96304442D01*
X177632308Y-96296469D01*
X177528444Y-96264963D01*
X177501268Y-96250437D01*
X177432723Y-96213799D01*
X177348822Y-96144943D01*
X177279966Y-96061042D01*
X177228804Y-95965324D01*
X177228802Y-95965321D01*
X177197296Y-95861457D01*
X177186657Y-95753442D01*
X177192960Y-95689449D01*
X177192960Y-95664955D01*
X177188180Y-95640921D01*
X177178803Y-95618282D01*
X177165189Y-95597908D01*
X177147862Y-95580581D01*
X177127488Y-95566967D01*
X177104849Y-95557590D01*
X177080816Y-95552809D01*
X177056312Y-95552809D01*
X177032278Y-95557589D01*
X177009639Y-95566966D01*
X176989265Y-95580580D01*
X176966170Y-95605510D01*
X176835312Y-95792394D01*
X175932606Y-95160312D01*
X176564688Y-94257606D01*
X177467394Y-94889688D01*
X177467394Y-94889688D01*
G37*
G36*
X203116719Y-98110621D02*
G01*
X202469020Y-98484570D01*
X201512840Y-99036621D01*
X201512839Y-99036621D01*
X200511839Y-97302839D01*
X201431472Y-96771889D01*
X202115718Y-96376839D01*
X202115719Y-96376839D01*
X203116719Y-98110621D01*
X203116719Y-98110621D01*
G37*
G36*
X202664312Y-95537030D02*
G01*
X201580047Y-96163031D01*
X201420046Y-95885901D01*
X201405773Y-95865983D01*
X201387889Y-95849232D01*
X201367080Y-95836292D01*
X201344146Y-95827660D01*
X201319969Y-95823669D01*
X201295478Y-95824470D01*
X201271614Y-95830035D01*
X201249294Y-95840148D01*
X200690708Y-96162648D01*
X200319159Y-96377162D01*
X200236045Y-96425148D01*
X200127792Y-96487648D01*
X199001958Y-97137648D01*
X198551256Y-97397861D01*
X198547295Y-97400148D01*
X198531705Y-97409149D01*
X198511787Y-97423422D01*
X198495037Y-97441306D01*
X198482097Y-97462115D01*
X198473465Y-97485049D01*
X198469474Y-97509226D01*
X198470275Y-97533717D01*
X198475840Y-97557581D01*
X198485953Y-97579900D01*
X198645954Y-97857030D01*
X197561689Y-98483031D01*
X196785688Y-97138958D01*
X197885542Y-96503957D01*
X197905461Y-96489684D01*
X197922211Y-96471800D01*
X197935151Y-96450991D01*
X197943783Y-96428057D01*
X197947774Y-96403880D01*
X197946973Y-96379389D01*
X197941408Y-96355525D01*
X197931295Y-96333205D01*
X197796295Y-96099378D01*
X198339292Y-95785878D01*
X198902208Y-95460878D01*
X200028042Y-94810878D01*
X200482705Y-94548378D01*
X200617706Y-94782206D01*
X200631979Y-94802124D01*
X200649863Y-94818874D01*
X200670672Y-94831814D01*
X200693606Y-94840446D01*
X200717783Y-94844437D01*
X200742274Y-94843636D01*
X200766138Y-94838071D01*
X200788457Y-94827958D01*
X201888311Y-94192957D01*
X202664312Y-95537030D01*
X202664312Y-95537030D01*
G37*
G36*
X203873342Y-95554605D02*
G01*
X203979532Y-95594571D01*
X204075884Y-95654487D01*
X204158696Y-95732048D01*
X204208222Y-95801163D01*
X204208225Y-95801168D01*
X204208227Y-95801171D01*
X204495790Y-96299244D01*
X204661520Y-96586297D01*
X204696612Y-96663745D01*
X204722375Y-96774244D01*
X204726088Y-96887645D01*
X204723598Y-96902726D01*
X204707606Y-96999588D01*
X204707605Y-96999590D01*
X204707605Y-96999591D01*
X204667639Y-97105781D01*
X204607722Y-97202133D01*
X204530161Y-97284945D01*
X204437934Y-97351035D01*
X204334585Y-97397861D01*
X204224087Y-97423625D01*
X204110686Y-97427338D01*
X204062580Y-97419396D01*
X203998741Y-97408856D01*
X203956522Y-97392966D01*
X203892549Y-97368889D01*
X203796197Y-97308972D01*
X203713386Y-97231411D01*
X203663860Y-97162297D01*
X203663858Y-97162293D01*
X203663852Y-97162285D01*
X203210571Y-96377177D01*
X203210562Y-96377162D01*
X203175470Y-96299713D01*
X203150328Y-96191879D01*
X203149706Y-96189213D01*
X203148257Y-96144943D01*
X203145993Y-96075815D01*
X203164477Y-95963868D01*
X203204443Y-95857678D01*
X203264359Y-95761326D01*
X203341920Y-95678514D01*
X203434148Y-95612425D01*
X203537497Y-95565598D01*
X203619471Y-95546485D01*
X203647997Y-95539834D01*
X203683321Y-95538678D01*
X203761395Y-95536121D01*
X203873342Y-95554605D01*
X203873342Y-95554605D01*
G37*
G36*
X207962488Y-93270333D02*
G01*
X207225500Y-93695833D01*
X206488513Y-94121333D01*
X206488512Y-94121333D01*
X205337512Y-92127743D01*
X206475719Y-91470599D01*
X206811487Y-91276743D01*
X206811488Y-91276743D01*
X207962488Y-93270333D01*
X207962488Y-93270333D01*
G37*
G36*
X176229591Y-91278085D02*
G01*
X176263569Y-91288393D01*
X176294890Y-91305134D01*
X176322339Y-91327661D01*
X176344866Y-91355110D01*
X176361607Y-91386431D01*
X176371915Y-91420409D01*
X176376000Y-91461890D01*
X176376000Y-92138110D01*
X176371915Y-92179591D01*
X176361607Y-92213569D01*
X176344866Y-92244890D01*
X176322339Y-92272339D01*
X176294890Y-92294866D01*
X176263569Y-92311607D01*
X176229591Y-92321915D01*
X176188110Y-92326000D01*
X175586890Y-92326000D01*
X175545409Y-92321915D01*
X175511431Y-92311607D01*
X175480110Y-92294866D01*
X175452661Y-92272339D01*
X175430134Y-92244890D01*
X175413393Y-92213569D01*
X175403085Y-92179591D01*
X175399000Y-92138110D01*
X175399000Y-91461890D01*
X175403085Y-91420409D01*
X175413393Y-91386431D01*
X175430134Y-91355110D01*
X175452661Y-91327661D01*
X175480110Y-91305134D01*
X175511431Y-91288393D01*
X175545409Y-91278085D01*
X175586890Y-91274000D01*
X176188110Y-91274000D01*
X176229591Y-91278085D01*
X176229591Y-91278085D01*
G37*
G36*
X174654591Y-91278085D02*
G01*
X174688569Y-91288393D01*
X174719890Y-91305134D01*
X174747339Y-91327661D01*
X174769866Y-91355110D01*
X174786607Y-91386431D01*
X174796915Y-91420409D01*
X174801000Y-91461890D01*
X174801000Y-92138110D01*
X174796915Y-92179591D01*
X174786607Y-92213569D01*
X174769866Y-92244890D01*
X174747339Y-92272339D01*
X174719890Y-92294866D01*
X174688569Y-92311607D01*
X174654591Y-92321915D01*
X174613110Y-92326000D01*
X174011890Y-92326000D01*
X173970409Y-92321915D01*
X173936431Y-92311607D01*
X173905110Y-92294866D01*
X173877661Y-92272339D01*
X173855134Y-92244890D01*
X173838393Y-92213569D01*
X173828085Y-92179591D01*
X173824000Y-92138110D01*
X173824000Y-91461890D01*
X173828085Y-91420409D01*
X173838393Y-91386431D01*
X173855134Y-91355110D01*
X173877661Y-91327661D01*
X173905110Y-91305134D01*
X173936431Y-91288393D01*
X173970409Y-91278085D01*
X174011890Y-91274000D01*
X174613110Y-91274000D01*
X174654591Y-91278085D01*
X174654591Y-91278085D01*
G37*
G36*
X206462488Y-90672257D02*
G01*
X205725500Y-91097757D01*
X204988513Y-91523257D01*
X204988512Y-91523257D01*
X203837512Y-89529667D01*
X204574500Y-89104167D01*
X205311487Y-88678667D01*
X205311488Y-88678667D01*
X206462488Y-90672257D01*
X206462488Y-90672257D01*
G37*
G36*
X179551000Y-91351000D02*
G01*
X177249000Y-91351000D01*
X177249000Y-89649000D01*
X179551000Y-89649000D01*
X179551000Y-91351000D01*
X179551000Y-91351000D01*
G37*
G36*
X182551000Y-91351000D02*
G01*
X180249000Y-91351000D01*
X180249000Y-89649000D01*
X182551000Y-89649000D01*
X182551000Y-91351000D01*
X182551000Y-91351000D01*
G37*
G36*
X156751000Y-91031000D02*
G01*
X155649000Y-91031000D01*
X155649000Y-88429000D01*
X156751000Y-88429000D01*
X156751000Y-91031000D01*
X156751000Y-91031000D01*
G37*
G36*
X170751000Y-91031000D02*
G01*
X169649000Y-91031000D01*
X169649000Y-88429000D01*
X170751000Y-88429000D01*
X170751000Y-91031000D01*
X170751000Y-91031000D01*
G37*
G36*
X168751000Y-91031000D02*
G01*
X167649000Y-91031000D01*
X167649000Y-88429000D01*
X168751000Y-88429000D01*
X168751000Y-91031000D01*
X168751000Y-91031000D01*
G37*
G36*
X166751000Y-91031000D02*
G01*
X165649000Y-91031000D01*
X165649000Y-88429000D01*
X166751000Y-88429000D01*
X166751000Y-91031000D01*
X166751000Y-91031000D01*
G37*
G36*
X158751000Y-91031000D02*
G01*
X157649000Y-91031000D01*
X157649000Y-88429000D01*
X158751000Y-88429000D01*
X158751000Y-91031000D01*
X158751000Y-91031000D01*
G37*
G36*
X160751000Y-91031000D02*
G01*
X159649000Y-91031000D01*
X159649000Y-88429000D01*
X160751000Y-88429000D01*
X160751000Y-91031000D01*
X160751000Y-91031000D01*
G37*
G36*
X162751000Y-91031000D02*
G01*
X161649000Y-91031000D01*
X161649000Y-88429000D01*
X162751000Y-88429000D01*
X162751000Y-91031000D01*
X162751000Y-91031000D01*
G37*
G36*
X164751000Y-91031000D02*
G01*
X163649000Y-91031000D01*
X163649000Y-88429000D01*
X164751000Y-88429000D01*
X164751000Y-91031000D01*
X164751000Y-91031000D01*
G37*
G36*
X174534468Y-87253565D02*
G01*
X174573138Y-87265296D01*
X174608777Y-87284346D01*
X174640017Y-87309983D01*
X174665654Y-87341223D01*
X174684704Y-87376862D01*
X174696435Y-87415532D01*
X174701000Y-87461888D01*
X174701000Y-88538112D01*
X174696435Y-88584468D01*
X174684704Y-88623138D01*
X174665654Y-88658777D01*
X174640017Y-88690017D01*
X174608777Y-88715654D01*
X174573138Y-88734704D01*
X174534468Y-88746435D01*
X174488112Y-88751000D01*
X173836888Y-88751000D01*
X173790532Y-88746435D01*
X173751862Y-88734704D01*
X173716223Y-88715654D01*
X173684983Y-88690017D01*
X173659346Y-88658777D01*
X173640296Y-88623138D01*
X173628565Y-88584468D01*
X173624000Y-88538112D01*
X173624000Y-87461888D01*
X173628565Y-87415532D01*
X173640296Y-87376862D01*
X173659346Y-87341223D01*
X173684983Y-87309983D01*
X173716223Y-87284346D01*
X173751862Y-87265296D01*
X173790532Y-87253565D01*
X173836888Y-87249000D01*
X174488112Y-87249000D01*
X174534468Y-87253565D01*
X174534468Y-87253565D01*
G37*
G36*
X176409468Y-87253565D02*
G01*
X176448138Y-87265296D01*
X176483777Y-87284346D01*
X176515017Y-87309983D01*
X176540654Y-87341223D01*
X176559704Y-87376862D01*
X176571435Y-87415532D01*
X176576000Y-87461888D01*
X176576000Y-88538112D01*
X176571435Y-88584468D01*
X176559704Y-88623138D01*
X176540654Y-88658777D01*
X176515017Y-88690017D01*
X176483777Y-88715654D01*
X176448138Y-88734704D01*
X176409468Y-88746435D01*
X176363112Y-88751000D01*
X175711888Y-88751000D01*
X175665532Y-88746435D01*
X175626862Y-88734704D01*
X175591223Y-88715654D01*
X175559983Y-88690017D01*
X175534346Y-88658777D01*
X175515296Y-88623138D01*
X175503565Y-88584468D01*
X175499000Y-88538112D01*
X175499000Y-87461888D01*
X175503565Y-87415532D01*
X175515296Y-87376862D01*
X175534346Y-87341223D01*
X175559983Y-87309983D01*
X175591223Y-87284346D01*
X175626862Y-87265296D01*
X175665532Y-87253565D01*
X175711888Y-87249000D01*
X176363112Y-87249000D01*
X176409468Y-87253565D01*
X176409468Y-87253565D01*
G37*
G36*
X172651000Y-87681000D02*
G01*
X170749000Y-87681000D01*
X170749000Y-86579000D01*
X172651000Y-86579000D01*
X172651000Y-87681000D01*
X172651000Y-87681000D01*
G37*
G36*
X179180608Y-86182413D02*
G01*
X178212751Y-86441750D01*
X177979296Y-85570485D01*
X178947153Y-85311148D01*
X179180608Y-86182413D01*
X179180608Y-86182413D01*
G37*
G36*
X172651000Y-85681000D02*
G01*
X170749000Y-85681000D01*
X170749000Y-84579000D01*
X172651000Y-84579000D01*
X172651000Y-85681000D01*
X172651000Y-85681000D01*
G37*
G36*
X187619814Y-83961620D02*
G01*
X187698266Y-83969347D01*
X187798925Y-83999882D01*
X187849256Y-84015149D01*
X187988408Y-84089528D01*
X188110376Y-84189624D01*
X188210472Y-84311592D01*
X188284851Y-84450744D01*
X188284851Y-84450745D01*
X188330653Y-84601734D01*
X188346118Y-84758757D01*
X188330653Y-84915780D01*
X188303139Y-85006482D01*
X188284851Y-85066770D01*
X188210472Y-85205922D01*
X188110376Y-85327890D01*
X187988408Y-85427986D01*
X187849256Y-85502365D01*
X187798925Y-85517632D01*
X187698266Y-85548167D01*
X187619814Y-85555894D01*
X187580589Y-85559757D01*
X187501897Y-85559757D01*
X187462672Y-85555894D01*
X187384220Y-85548167D01*
X187283561Y-85517632D01*
X187233230Y-85502365D01*
X187094078Y-85427986D01*
X186972110Y-85327890D01*
X186872014Y-85205922D01*
X186797635Y-85066770D01*
X186779347Y-85006482D01*
X186751833Y-84915780D01*
X186736368Y-84758757D01*
X186751833Y-84601734D01*
X186797635Y-84450745D01*
X186797635Y-84450744D01*
X186872014Y-84311592D01*
X186972110Y-84189624D01*
X187094078Y-84089528D01*
X187233230Y-84015149D01*
X187283561Y-83999882D01*
X187384220Y-83969347D01*
X187462672Y-83961620D01*
X187501897Y-83957757D01*
X187580589Y-83957757D01*
X187619814Y-83961620D01*
X187619814Y-83961620D01*
G37*
G36*
X194337328Y-83961620D02*
G01*
X194415780Y-83969347D01*
X194516439Y-83999882D01*
X194566770Y-84015149D01*
X194705922Y-84089528D01*
X194827890Y-84189624D01*
X194927986Y-84311592D01*
X195002365Y-84450744D01*
X195002365Y-84450745D01*
X195048167Y-84601734D01*
X195063632Y-84758757D01*
X195048167Y-84915780D01*
X195020653Y-85006482D01*
X195002365Y-85066770D01*
X194927986Y-85205922D01*
X194827890Y-85327890D01*
X194705922Y-85427986D01*
X194566770Y-85502365D01*
X194516439Y-85517632D01*
X194415780Y-85548167D01*
X194337328Y-85555894D01*
X194298103Y-85559757D01*
X194219411Y-85559757D01*
X194180186Y-85555894D01*
X194101734Y-85548167D01*
X194001075Y-85517632D01*
X193950744Y-85502365D01*
X193811592Y-85427986D01*
X193689624Y-85327890D01*
X193589528Y-85205922D01*
X193515149Y-85066770D01*
X193496861Y-85006482D01*
X193469347Y-84915780D01*
X193453882Y-84758757D01*
X193469347Y-84601734D01*
X193515149Y-84450745D01*
X193515149Y-84450744D01*
X193589528Y-84311592D01*
X193689624Y-84189624D01*
X193811592Y-84089528D01*
X193950744Y-84015149D01*
X194001075Y-83999882D01*
X194101734Y-83969347D01*
X194180186Y-83961620D01*
X194219411Y-83957757D01*
X194298103Y-83957757D01*
X194337328Y-83961620D01*
X194337328Y-83961620D01*
G37*
G36*
X174454591Y-84378085D02*
G01*
X174488569Y-84388393D01*
X174519890Y-84405134D01*
X174547339Y-84427661D01*
X174569866Y-84455110D01*
X174586607Y-84486431D01*
X174596915Y-84520409D01*
X174601000Y-84561890D01*
X174601000Y-85238110D01*
X174596915Y-85279591D01*
X174586607Y-85313569D01*
X174569866Y-85344890D01*
X174547339Y-85372339D01*
X174519890Y-85394866D01*
X174488569Y-85411607D01*
X174454591Y-85421915D01*
X174413110Y-85426000D01*
X173811890Y-85426000D01*
X173770409Y-85421915D01*
X173736431Y-85411607D01*
X173705110Y-85394866D01*
X173677661Y-85372339D01*
X173655134Y-85344890D01*
X173638393Y-85313569D01*
X173628085Y-85279591D01*
X173624000Y-85238110D01*
X173624000Y-84561890D01*
X173628085Y-84520409D01*
X173638393Y-84486431D01*
X173655134Y-84455110D01*
X173677661Y-84427661D01*
X173705110Y-84405134D01*
X173736431Y-84388393D01*
X173770409Y-84378085D01*
X173811890Y-84374000D01*
X174413110Y-84374000D01*
X174454591Y-84378085D01*
X174454591Y-84378085D01*
G37*
G36*
X176029591Y-84378085D02*
G01*
X176063569Y-84388393D01*
X176094890Y-84405134D01*
X176122339Y-84427661D01*
X176144866Y-84455110D01*
X176161607Y-84486431D01*
X176171915Y-84520409D01*
X176176000Y-84561890D01*
X176176000Y-85238110D01*
X176171915Y-85279591D01*
X176161607Y-85313569D01*
X176144866Y-85344890D01*
X176122339Y-85372339D01*
X176094890Y-85394866D01*
X176063569Y-85411607D01*
X176029591Y-85421915D01*
X175988110Y-85426000D01*
X175386890Y-85426000D01*
X175345409Y-85421915D01*
X175311431Y-85411607D01*
X175280110Y-85394866D01*
X175252661Y-85372339D01*
X175230134Y-85344890D01*
X175213393Y-85313569D01*
X175203085Y-85279591D01*
X175199000Y-85238110D01*
X175199000Y-84561890D01*
X175203085Y-84520409D01*
X175213393Y-84486431D01*
X175230134Y-84455110D01*
X175252661Y-84427661D01*
X175280110Y-84405134D01*
X175311431Y-84388393D01*
X175345409Y-84378085D01*
X175386890Y-84374000D01*
X175988110Y-84374000D01*
X176029591Y-84378085D01*
X176029591Y-84378085D01*
G37*
G36*
X180866582Y-84747145D02*
G01*
X179898725Y-85006482D01*
X179665270Y-84135217D01*
X180633127Y-83875880D01*
X180866582Y-84747145D01*
X180866582Y-84747145D01*
G37*
G36*
X178688852Y-84347154D02*
G01*
X177720995Y-84606491D01*
X177487540Y-83735226D01*
X178455397Y-83475889D01*
X178688852Y-84347154D01*
X178688852Y-84347154D01*
G37*
G36*
X204551000Y-83951000D02*
G01*
X202849000Y-83951000D01*
X202849000Y-81649000D01*
X204551000Y-81649000D01*
X204551000Y-83951000D01*
X204551000Y-83951000D01*
G37*
G36*
X172651000Y-83681000D02*
G01*
X170749000Y-83681000D01*
X170749000Y-82579000D01*
X172651000Y-82579000D01*
X172651000Y-83681000D01*
X172651000Y-83681000D01*
G37*
G36*
X209860443Y-81105519D02*
G01*
X209926627Y-81112037D01*
X210096466Y-81163557D01*
X210252991Y-81247222D01*
X210288729Y-81276552D01*
X210390186Y-81359814D01*
X210473448Y-81461271D01*
X210502778Y-81497009D01*
X210586443Y-81653534D01*
X210637963Y-81823373D01*
X210655359Y-82000000D01*
X210637963Y-82176627D01*
X210586443Y-82346466D01*
X210502778Y-82502991D01*
X210473448Y-82538729D01*
X210390186Y-82640186D01*
X210288729Y-82723448D01*
X210252991Y-82752778D01*
X210096466Y-82836443D01*
X209926627Y-82887963D01*
X209860443Y-82894481D01*
X209794260Y-82901000D01*
X209405740Y-82901000D01*
X209339557Y-82894481D01*
X209273373Y-82887963D01*
X209103534Y-82836443D01*
X208947009Y-82752778D01*
X208911271Y-82723448D01*
X208809814Y-82640186D01*
X208726552Y-82538729D01*
X208697222Y-82502991D01*
X208613557Y-82346466D01*
X208562037Y-82176627D01*
X208544641Y-82000000D01*
X208562037Y-81823373D01*
X208613557Y-81653534D01*
X208697222Y-81497009D01*
X208726552Y-81461271D01*
X208809814Y-81359814D01*
X208911271Y-81276552D01*
X208947009Y-81247222D01*
X209103534Y-81163557D01*
X209273373Y-81112037D01*
X209339557Y-81105519D01*
X209405740Y-81099000D01*
X209794260Y-81099000D01*
X209860443Y-81105519D01*
X209860443Y-81105519D01*
G37*
G36*
X195728571Y-80602863D02*
G01*
X195807023Y-80610590D01*
X195907682Y-80641125D01*
X195958013Y-80656392D01*
X196097165Y-80730771D01*
X196219133Y-80830867D01*
X196319229Y-80952835D01*
X196393608Y-81091987D01*
X196393608Y-81091988D01*
X196439410Y-81242977D01*
X196454875Y-81400000D01*
X196439410Y-81557023D01*
X196411509Y-81649000D01*
X196393608Y-81708013D01*
X196319229Y-81847165D01*
X196219133Y-81969133D01*
X196097165Y-82069229D01*
X195958013Y-82143608D01*
X195907682Y-82158875D01*
X195807023Y-82189410D01*
X195728571Y-82197137D01*
X195689346Y-82201000D01*
X195610654Y-82201000D01*
X195571429Y-82197137D01*
X195492977Y-82189410D01*
X195392318Y-82158875D01*
X195341987Y-82143608D01*
X195202835Y-82069229D01*
X195080867Y-81969133D01*
X194980771Y-81847165D01*
X194906392Y-81708013D01*
X194888491Y-81649000D01*
X194860590Y-81557023D01*
X194845125Y-81400000D01*
X194860590Y-81242977D01*
X194906392Y-81091988D01*
X194906392Y-81091987D01*
X194980771Y-80952835D01*
X195080867Y-80830867D01*
X195202835Y-80730771D01*
X195341987Y-80656392D01*
X195392318Y-80641125D01*
X195492977Y-80610590D01*
X195571429Y-80602863D01*
X195610654Y-80599000D01*
X195689346Y-80599000D01*
X195728571Y-80602863D01*
X195728571Y-80602863D01*
G37*
G36*
X186228571Y-80602863D02*
G01*
X186307023Y-80610590D01*
X186407682Y-80641125D01*
X186458013Y-80656392D01*
X186597165Y-80730771D01*
X186719133Y-80830867D01*
X186819229Y-80952835D01*
X186893608Y-81091987D01*
X186893608Y-81091988D01*
X186939410Y-81242977D01*
X186954875Y-81400000D01*
X186939410Y-81557023D01*
X186911509Y-81649000D01*
X186893608Y-81708013D01*
X186819229Y-81847165D01*
X186719133Y-81969133D01*
X186597165Y-82069229D01*
X186458013Y-82143608D01*
X186407682Y-82158875D01*
X186307023Y-82189410D01*
X186228571Y-82197137D01*
X186189346Y-82201000D01*
X186110654Y-82201000D01*
X186071429Y-82197137D01*
X185992977Y-82189410D01*
X185892318Y-82158875D01*
X185841987Y-82143608D01*
X185702835Y-82069229D01*
X185580867Y-81969133D01*
X185480771Y-81847165D01*
X185406392Y-81708013D01*
X185388491Y-81649000D01*
X185360590Y-81557023D01*
X185345125Y-81400000D01*
X185360590Y-81242977D01*
X185406392Y-81091988D01*
X185406392Y-81091987D01*
X185480771Y-80952835D01*
X185580867Y-80830867D01*
X185702835Y-80730771D01*
X185841987Y-80656392D01*
X185892318Y-80641125D01*
X185992977Y-80610590D01*
X186071429Y-80602863D01*
X186110654Y-80599000D01*
X186189346Y-80599000D01*
X186228571Y-80602863D01*
X186228571Y-80602863D01*
G37*
G36*
X172651000Y-81681000D02*
G01*
X170749000Y-81681000D01*
X170749000Y-80579000D01*
X172651000Y-80579000D01*
X172651000Y-81681000D01*
X172651000Y-81681000D01*
G37*
G36*
X176129591Y-79978085D02*
G01*
X176163569Y-79988393D01*
X176194890Y-80005134D01*
X176222339Y-80027661D01*
X176244866Y-80055110D01*
X176261607Y-80086431D01*
X176271915Y-80120409D01*
X176276000Y-80161890D01*
X176276000Y-80838110D01*
X176271915Y-80879591D01*
X176261607Y-80913569D01*
X176244866Y-80944890D01*
X176222339Y-80972339D01*
X176194890Y-80994866D01*
X176163569Y-81011607D01*
X176129591Y-81021915D01*
X176088110Y-81026000D01*
X175486890Y-81026000D01*
X175445409Y-81021915D01*
X175411431Y-81011607D01*
X175380110Y-80994866D01*
X175352661Y-80972339D01*
X175330134Y-80944890D01*
X175313393Y-80913569D01*
X175303085Y-80879591D01*
X175299000Y-80838110D01*
X175299000Y-80161890D01*
X175303085Y-80120409D01*
X175313393Y-80086431D01*
X175330134Y-80055110D01*
X175352661Y-80027661D01*
X175380110Y-80005134D01*
X175411431Y-79988393D01*
X175445409Y-79978085D01*
X175486890Y-79974000D01*
X176088110Y-79974000D01*
X176129591Y-79978085D01*
X176129591Y-79978085D01*
G37*
G36*
X174554591Y-79978085D02*
G01*
X174588569Y-79988393D01*
X174619890Y-80005134D01*
X174647339Y-80027661D01*
X174669866Y-80055110D01*
X174686607Y-80086431D01*
X174696915Y-80120409D01*
X174701000Y-80161890D01*
X174701000Y-80838110D01*
X174696915Y-80879591D01*
X174686607Y-80913569D01*
X174669866Y-80944890D01*
X174647339Y-80972339D01*
X174619890Y-80994866D01*
X174588569Y-81011607D01*
X174554591Y-81021915D01*
X174513110Y-81026000D01*
X173911890Y-81026000D01*
X173870409Y-81021915D01*
X173836431Y-81011607D01*
X173805110Y-80994866D01*
X173777661Y-80972339D01*
X173755134Y-80944890D01*
X173738393Y-80913569D01*
X173728085Y-80879591D01*
X173724000Y-80838110D01*
X173724000Y-80161890D01*
X173728085Y-80120409D01*
X173738393Y-80086431D01*
X173755134Y-80055110D01*
X173777661Y-80027661D01*
X173805110Y-80005134D01*
X173836431Y-79988393D01*
X173870409Y-79978085D01*
X173911890Y-79974000D01*
X174513110Y-79974000D01*
X174554591Y-79978085D01*
X174554591Y-79978085D01*
G37*
G36*
X204551000Y-80951000D02*
G01*
X202849000Y-80951000D01*
X202849000Y-78649000D01*
X204551000Y-78649000D01*
X204551000Y-80951000D01*
X204551000Y-80951000D01*
G37*
G36*
X210508600Y-78602989D02*
G01*
X210541652Y-78613015D01*
X210572103Y-78629292D01*
X210598799Y-78651201D01*
X210620708Y-78677897D01*
X210636985Y-78708348D01*
X210647011Y-78741400D01*
X210651000Y-78781903D01*
X210651000Y-80218097D01*
X210647011Y-80258600D01*
X210636985Y-80291652D01*
X210620708Y-80322103D01*
X210598799Y-80348799D01*
X210572103Y-80370708D01*
X210541652Y-80386985D01*
X210508600Y-80397011D01*
X210468097Y-80401000D01*
X208731903Y-80401000D01*
X208691400Y-80397011D01*
X208658348Y-80386985D01*
X208627897Y-80370708D01*
X208601201Y-80348799D01*
X208579292Y-80322103D01*
X208563015Y-80291652D01*
X208552989Y-80258600D01*
X208549000Y-80218097D01*
X208549000Y-78781903D01*
X208552989Y-78741400D01*
X208563015Y-78708348D01*
X208579292Y-78677897D01*
X208601201Y-78651201D01*
X208627897Y-78629292D01*
X208658348Y-78613015D01*
X208691400Y-78602989D01*
X208731903Y-78599000D01*
X210468097Y-78599000D01*
X210508600Y-78602989D01*
X210508600Y-78602989D01*
G37*
G36*
X172651000Y-79681000D02*
G01*
X170749000Y-79681000D01*
X170749000Y-78579000D01*
X172651000Y-78579000D01*
X172651000Y-79681000D01*
X172651000Y-79681000D01*
G37*
G36*
X194337328Y-77244106D02*
G01*
X194415780Y-77251833D01*
X194516439Y-77282368D01*
X194566770Y-77297635D01*
X194705922Y-77372014D01*
X194827890Y-77472110D01*
X194927986Y-77594078D01*
X195002365Y-77733230D01*
X195002365Y-77733231D01*
X195048167Y-77884220D01*
X195063632Y-78041243D01*
X195048167Y-78198266D01*
X195017632Y-78298925D01*
X195002365Y-78349256D01*
X194927986Y-78488408D01*
X194827890Y-78610376D01*
X194705922Y-78710472D01*
X194566770Y-78784851D01*
X194516439Y-78800118D01*
X194415780Y-78830653D01*
X194337328Y-78838380D01*
X194298103Y-78842243D01*
X194219411Y-78842243D01*
X194180186Y-78838380D01*
X194101734Y-78830653D01*
X194001075Y-78800118D01*
X193950744Y-78784851D01*
X193811592Y-78710472D01*
X193689624Y-78610376D01*
X193589528Y-78488408D01*
X193515149Y-78349256D01*
X193499882Y-78298925D01*
X193469347Y-78198266D01*
X193453882Y-78041243D01*
X193469347Y-77884220D01*
X193515149Y-77733231D01*
X193515149Y-77733230D01*
X193589528Y-77594078D01*
X193689624Y-77472110D01*
X193811592Y-77372014D01*
X193950744Y-77297635D01*
X194001075Y-77282368D01*
X194101734Y-77251833D01*
X194180186Y-77244106D01*
X194219411Y-77240243D01*
X194298103Y-77240243D01*
X194337328Y-77244106D01*
X194337328Y-77244106D01*
G37*
G36*
X187619814Y-77244106D02*
G01*
X187698266Y-77251833D01*
X187798925Y-77282368D01*
X187849256Y-77297635D01*
X187988408Y-77372014D01*
X188110376Y-77472110D01*
X188210472Y-77594078D01*
X188284851Y-77733230D01*
X188284851Y-77733231D01*
X188330653Y-77884220D01*
X188346118Y-78041243D01*
X188330653Y-78198266D01*
X188300118Y-78298925D01*
X188284851Y-78349256D01*
X188210472Y-78488408D01*
X188110376Y-78610376D01*
X187988408Y-78710472D01*
X187849256Y-78784851D01*
X187798925Y-78800118D01*
X187698266Y-78830653D01*
X187619814Y-78838380D01*
X187580589Y-78842243D01*
X187501897Y-78842243D01*
X187462672Y-78838380D01*
X187384220Y-78830653D01*
X187283561Y-78800118D01*
X187233230Y-78784851D01*
X187094078Y-78710472D01*
X186972110Y-78610376D01*
X186872014Y-78488408D01*
X186797635Y-78349256D01*
X186782368Y-78298925D01*
X186751833Y-78198266D01*
X186736368Y-78041243D01*
X186751833Y-77884220D01*
X186797635Y-77733231D01*
X186797635Y-77733230D01*
X186872014Y-77594078D01*
X186972110Y-77472110D01*
X187094078Y-77372014D01*
X187233230Y-77297635D01*
X187283561Y-77282368D01*
X187384220Y-77251833D01*
X187462672Y-77244106D01*
X187501897Y-77240243D01*
X187580589Y-77240243D01*
X187619814Y-77244106D01*
X187619814Y-77244106D01*
G37*
G36*
X178559468Y-76353565D02*
G01*
X178598138Y-76365296D01*
X178633777Y-76384346D01*
X178665017Y-76409983D01*
X178690654Y-76441223D01*
X178709704Y-76476862D01*
X178721435Y-76515532D01*
X178726000Y-76561888D01*
X178726000Y-77638112D01*
X178721435Y-77684468D01*
X178709704Y-77723138D01*
X178690654Y-77758777D01*
X178665017Y-77790017D01*
X178633777Y-77815654D01*
X178598138Y-77834704D01*
X178559468Y-77846435D01*
X178513112Y-77851000D01*
X177861888Y-77851000D01*
X177815532Y-77846435D01*
X177776862Y-77834704D01*
X177741223Y-77815654D01*
X177709983Y-77790017D01*
X177684346Y-77758777D01*
X177665296Y-77723138D01*
X177653565Y-77684468D01*
X177649000Y-77638112D01*
X177649000Y-76561888D01*
X177653565Y-76515532D01*
X177665296Y-76476862D01*
X177684346Y-76441223D01*
X177709983Y-76409983D01*
X177741223Y-76384346D01*
X177776862Y-76365296D01*
X177815532Y-76353565D01*
X177861888Y-76349000D01*
X178513112Y-76349000D01*
X178559468Y-76353565D01*
X178559468Y-76353565D01*
G37*
G36*
X180434468Y-76353565D02*
G01*
X180473138Y-76365296D01*
X180508777Y-76384346D01*
X180540017Y-76409983D01*
X180565654Y-76441223D01*
X180584704Y-76476862D01*
X180596435Y-76515532D01*
X180601000Y-76561888D01*
X180601000Y-77638112D01*
X180596435Y-77684468D01*
X180584704Y-77723138D01*
X180565654Y-77758777D01*
X180540017Y-77790017D01*
X180508777Y-77815654D01*
X180473138Y-77834704D01*
X180434468Y-77846435D01*
X180388112Y-77851000D01*
X179736888Y-77851000D01*
X179690532Y-77846435D01*
X179651862Y-77834704D01*
X179616223Y-77815654D01*
X179584983Y-77790017D01*
X179559346Y-77758777D01*
X179540296Y-77723138D01*
X179528565Y-77684468D01*
X179524000Y-77638112D01*
X179524000Y-76561888D01*
X179528565Y-76515532D01*
X179540296Y-76476862D01*
X179559346Y-76441223D01*
X179584983Y-76409983D01*
X179616223Y-76384346D01*
X179651862Y-76365296D01*
X179690532Y-76353565D01*
X179736888Y-76349000D01*
X180388112Y-76349000D01*
X180434468Y-76353565D01*
X180434468Y-76353565D01*
G37*
G36*
X172651000Y-77681000D02*
G01*
X170749000Y-77681000D01*
X170749000Y-76579000D01*
X172651000Y-76579000D01*
X172651000Y-77681000D01*
X172651000Y-77681000D01*
G37*
G36*
X174654591Y-76578085D02*
G01*
X174688569Y-76588393D01*
X174719890Y-76605134D01*
X174747339Y-76627661D01*
X174769866Y-76655110D01*
X174786607Y-76686431D01*
X174796915Y-76720409D01*
X174801000Y-76761890D01*
X174801000Y-77438110D01*
X174796915Y-77479591D01*
X174786607Y-77513569D01*
X174769866Y-77544890D01*
X174747339Y-77572339D01*
X174719890Y-77594866D01*
X174688569Y-77611607D01*
X174654591Y-77621915D01*
X174613110Y-77626000D01*
X174011890Y-77626000D01*
X173970409Y-77621915D01*
X173936431Y-77611607D01*
X173905110Y-77594866D01*
X173877661Y-77572339D01*
X173855134Y-77544890D01*
X173838393Y-77513569D01*
X173828085Y-77479591D01*
X173824000Y-77438110D01*
X173824000Y-76761890D01*
X173828085Y-76720409D01*
X173838393Y-76686431D01*
X173855134Y-76655110D01*
X173877661Y-76627661D01*
X173905110Y-76605134D01*
X173936431Y-76588393D01*
X173970409Y-76578085D01*
X174011890Y-76574000D01*
X174613110Y-76574000D01*
X174654591Y-76578085D01*
X174654591Y-76578085D01*
G37*
G36*
X176229591Y-76578085D02*
G01*
X176263569Y-76588393D01*
X176294890Y-76605134D01*
X176322339Y-76627661D01*
X176344866Y-76655110D01*
X176361607Y-76686431D01*
X176371915Y-76720409D01*
X176376000Y-76761890D01*
X176376000Y-77438110D01*
X176371915Y-77479591D01*
X176361607Y-77513569D01*
X176344866Y-77544890D01*
X176322339Y-77572339D01*
X176294890Y-77594866D01*
X176263569Y-77611607D01*
X176229591Y-77621915D01*
X176188110Y-77626000D01*
X175586890Y-77626000D01*
X175545409Y-77621915D01*
X175511431Y-77611607D01*
X175480110Y-77594866D01*
X175452661Y-77572339D01*
X175430134Y-77544890D01*
X175413393Y-77513569D01*
X175403085Y-77479591D01*
X175399000Y-77438110D01*
X175399000Y-76761890D01*
X175403085Y-76720409D01*
X175413393Y-76686431D01*
X175430134Y-76655110D01*
X175452661Y-76627661D01*
X175480110Y-76605134D01*
X175511431Y-76588393D01*
X175545409Y-76578085D01*
X175586890Y-76574000D01*
X176188110Y-76574000D01*
X176229591Y-76578085D01*
X176229591Y-76578085D01*
G37*
G36*
X203201213Y-71326809D02*
G01*
X203208079Y-71329393D01*
X203214302Y-71333263D01*
X203219652Y-71338274D01*
X203227513Y-71349245D01*
X203255688Y-71398045D01*
X203255697Y-71398058D01*
X203743697Y-72243298D01*
X203743703Y-72243311D01*
X203767947Y-72285303D01*
X203782220Y-72305221D01*
X203800104Y-72321971D01*
X203820913Y-72334911D01*
X203843847Y-72343543D01*
X203868024Y-72347534D01*
X203892515Y-72346733D01*
X203916379Y-72341168D01*
X203938699Y-72331055D01*
X203980691Y-72306811D01*
X203980702Y-72306803D01*
X204825942Y-71818803D01*
X204825951Y-71818799D01*
X204874753Y-71790623D01*
X204887052Y-71785051D01*
X204894185Y-71783387D01*
X204901515Y-71783148D01*
X204908745Y-71784341D01*
X204915609Y-71786925D01*
X204921838Y-71790798D01*
X204927183Y-71795804D01*
X204935048Y-71806780D01*
X205091906Y-72078465D01*
X205097482Y-72090772D01*
X205099145Y-72097903D01*
X205099384Y-72105233D01*
X205098191Y-72112463D01*
X205095607Y-72119329D01*
X205091737Y-72125552D01*
X205086728Y-72130900D01*
X205079040Y-72136409D01*
X205060617Y-72152565D01*
X205045699Y-72172006D01*
X205034861Y-72193983D01*
X205028519Y-72217652D01*
X205026916Y-72242103D01*
X205030114Y-72266398D01*
X205037990Y-72289602D01*
X205050242Y-72310823D01*
X205066398Y-72329246D01*
X205085839Y-72344164D01*
X205107816Y-72355002D01*
X205131485Y-72361344D01*
X205155936Y-72362947D01*
X205180231Y-72359749D01*
X205203438Y-72351871D01*
X205212052Y-72347968D01*
X205219185Y-72346304D01*
X205226515Y-72346065D01*
X205233745Y-72347258D01*
X205240609Y-72349842D01*
X205246838Y-72353715D01*
X205252183Y-72358721D01*
X205260048Y-72369697D01*
X205416906Y-72641382D01*
X205422482Y-72653689D01*
X205424145Y-72660820D01*
X205424384Y-72668150D01*
X205423191Y-72675380D01*
X205420607Y-72682246D01*
X205416737Y-72688469D01*
X205411729Y-72693816D01*
X205404046Y-72699321D01*
X205385623Y-72715477D01*
X205370705Y-72734916D01*
X205359866Y-72756893D01*
X205353522Y-72780562D01*
X205351919Y-72805013D01*
X205355116Y-72829308D01*
X205362992Y-72852512D01*
X205375243Y-72873734D01*
X205391399Y-72892157D01*
X205410838Y-72907075D01*
X205432815Y-72917914D01*
X205456484Y-72924258D01*
X205480935Y-72925861D01*
X205505230Y-72922664D01*
X205528438Y-72914786D01*
X205537049Y-72910884D01*
X205544185Y-72909220D01*
X205551515Y-72908981D01*
X205558745Y-72910174D01*
X205565609Y-72912758D01*
X205571838Y-72916631D01*
X205577183Y-72921637D01*
X205585048Y-72932613D01*
X205741906Y-73204298D01*
X205747482Y-73216605D01*
X205749145Y-73223736D01*
X205749384Y-73231066D01*
X205748191Y-73238296D01*
X205745607Y-73245162D01*
X205741737Y-73251385D01*
X205736728Y-73256733D01*
X205729040Y-73262242D01*
X205710617Y-73278398D01*
X205695699Y-73297839D01*
X205684861Y-73319816D01*
X205678519Y-73343485D01*
X205676916Y-73367936D01*
X205680114Y-73392231D01*
X205687990Y-73415435D01*
X205700242Y-73436656D01*
X205716398Y-73455079D01*
X205735839Y-73469997D01*
X205757816Y-73480835D01*
X205781485Y-73487177D01*
X205805936Y-73488780D01*
X205830231Y-73485582D01*
X205853438Y-73477704D01*
X205862052Y-73473801D01*
X205869185Y-73472137D01*
X205876515Y-73471898D01*
X205883745Y-73473091D01*
X205890609Y-73475675D01*
X205896838Y-73479548D01*
X205902183Y-73484554D01*
X205910048Y-73495530D01*
X206066906Y-73767215D01*
X206072482Y-73779522D01*
X206074145Y-73786653D01*
X206074384Y-73793983D01*
X206073191Y-73801213D01*
X206070607Y-73808079D01*
X206066737Y-73814302D01*
X206061726Y-73819652D01*
X206050755Y-73827513D01*
X206001955Y-73855688D01*
X206001942Y-73855697D01*
X205156702Y-74343697D01*
X205156689Y-74343703D01*
X205114697Y-74367947D01*
X205094779Y-74382220D01*
X205078029Y-74400104D01*
X205065089Y-74420913D01*
X205056457Y-74443847D01*
X205052466Y-74468024D01*
X205053267Y-74492515D01*
X205058832Y-74516379D01*
X205068945Y-74538699D01*
X205093189Y-74580691D01*
X205093197Y-74580702D01*
X205581197Y-75425942D01*
X205581201Y-75425951D01*
X205609377Y-75474753D01*
X205614949Y-75487052D01*
X205616613Y-75494185D01*
X205616852Y-75501515D01*
X205615659Y-75508745D01*
X205613075Y-75515609D01*
X205609202Y-75521838D01*
X205604196Y-75527183D01*
X205593220Y-75535048D01*
X205321535Y-75691906D01*
X205309228Y-75697482D01*
X205302097Y-75699145D01*
X205294767Y-75699384D01*
X205287537Y-75698191D01*
X205280671Y-75695607D01*
X205274448Y-75691737D01*
X205269100Y-75686728D01*
X205263591Y-75679040D01*
X205247435Y-75660617D01*
X205227994Y-75645699D01*
X205206017Y-75634861D01*
X205182348Y-75628519D01*
X205157897Y-75626916D01*
X205133602Y-75630114D01*
X205110398Y-75637990D01*
X205089177Y-75650242D01*
X205070754Y-75666398D01*
X205055836Y-75685839D01*
X205044998Y-75707816D01*
X205038656Y-75731485D01*
X205037053Y-75755936D01*
X205040251Y-75780231D01*
X205048129Y-75803438D01*
X205052032Y-75812052D01*
X205053696Y-75819185D01*
X205053935Y-75826515D01*
X205052742Y-75833745D01*
X205050158Y-75840609D01*
X205046285Y-75846838D01*
X205041279Y-75852183D01*
X205030303Y-75860048D01*
X204758618Y-76016906D01*
X204746311Y-76022482D01*
X204739180Y-76024145D01*
X204731850Y-76024384D01*
X204724620Y-76023191D01*
X204717754Y-76020607D01*
X204711531Y-76016737D01*
X204706184Y-76011729D01*
X204700679Y-76004046D01*
X204684523Y-75985623D01*
X204665084Y-75970705D01*
X204643107Y-75959866D01*
X204619438Y-75953522D01*
X204594987Y-75951919D01*
X204570692Y-75955116D01*
X204547488Y-75962992D01*
X204526266Y-75975243D01*
X204507843Y-75991399D01*
X204492925Y-76010838D01*
X204482086Y-76032815D01*
X204475742Y-76056484D01*
X204474139Y-76080935D01*
X204477336Y-76105230D01*
X204485214Y-76128438D01*
X204489116Y-76137049D01*
X204490780Y-76144185D01*
X204491019Y-76151515D01*
X204489826Y-76158745D01*
X204487242Y-76165609D01*
X204483369Y-76171838D01*
X204478363Y-76177183D01*
X204467387Y-76185048D01*
X204195702Y-76341906D01*
X204183395Y-76347482D01*
X204176264Y-76349145D01*
X204168934Y-76349384D01*
X204161704Y-76348191D01*
X204154838Y-76345607D01*
X204148615Y-76341737D01*
X204143267Y-76336728D01*
X204137758Y-76329040D01*
X204121602Y-76310617D01*
X204102161Y-76295699D01*
X204080184Y-76284861D01*
X204056515Y-76278519D01*
X204032064Y-76276916D01*
X204007769Y-76280114D01*
X203984565Y-76287990D01*
X203963344Y-76300242D01*
X203944921Y-76316398D01*
X203930003Y-76335839D01*
X203919165Y-76357816D01*
X203912823Y-76381485D01*
X203911220Y-76405936D01*
X203914418Y-76430231D01*
X203922296Y-76453438D01*
X203926199Y-76462052D01*
X203927863Y-76469185D01*
X203928102Y-76476515D01*
X203926909Y-76483745D01*
X203924325Y-76490609D01*
X203920452Y-76496838D01*
X203915446Y-76502183D01*
X203904470Y-76510048D01*
X203632785Y-76666906D01*
X203620478Y-76672482D01*
X203613347Y-76674145D01*
X203606017Y-76674384D01*
X203598787Y-76673191D01*
X203591921Y-76670607D01*
X203585698Y-76666737D01*
X203580348Y-76661726D01*
X203572487Y-76650755D01*
X203544312Y-76601955D01*
X203544303Y-76601942D01*
X203056303Y-75756702D01*
X203056297Y-75756689D01*
X203032053Y-75714697D01*
X203017780Y-75694779D01*
X202999896Y-75678029D01*
X202979087Y-75665089D01*
X202956153Y-75656457D01*
X202931976Y-75652466D01*
X202907485Y-75653267D01*
X202883621Y-75658832D01*
X202861301Y-75668945D01*
X202819309Y-75693189D01*
X202819298Y-75693197D01*
X201974058Y-76181197D01*
X201974049Y-76181201D01*
X201925247Y-76209377D01*
X201912948Y-76214949D01*
X201905815Y-76216613D01*
X201898485Y-76216852D01*
X201891255Y-76215659D01*
X201884391Y-76213075D01*
X201878162Y-76209202D01*
X201872817Y-76204196D01*
X201864952Y-76193220D01*
X201708094Y-75921535D01*
X201702518Y-75909228D01*
X201700855Y-75902097D01*
X201700616Y-75894767D01*
X201701809Y-75887537D01*
X201704393Y-75880671D01*
X201708263Y-75874448D01*
X201713272Y-75869100D01*
X201720960Y-75863591D01*
X201739383Y-75847435D01*
X201754301Y-75827994D01*
X201765139Y-75806017D01*
X201771481Y-75782348D01*
X201773084Y-75757897D01*
X201769886Y-75733602D01*
X201762010Y-75710398D01*
X201749758Y-75689177D01*
X201733602Y-75670754D01*
X201714161Y-75655836D01*
X201692184Y-75644998D01*
X201668515Y-75638656D01*
X201644064Y-75637053D01*
X201619769Y-75640251D01*
X201596562Y-75648129D01*
X201587948Y-75652032D01*
X201580815Y-75653696D01*
X201573485Y-75653935D01*
X201566255Y-75652742D01*
X201559391Y-75650158D01*
X201553162Y-75646285D01*
X201547817Y-75641279D01*
X201539952Y-75630303D01*
X201408103Y-75401933D01*
X203334900Y-75401933D01*
X203335703Y-75426424D01*
X203341269Y-75450288D01*
X203351383Y-75472607D01*
X203361684Y-75485585D01*
X203361230Y-75485910D01*
X203373909Y-75503604D01*
X203390065Y-75522027D01*
X203409506Y-75536945D01*
X203431483Y-75547783D01*
X203455152Y-75554125D01*
X203479603Y-75555728D01*
X203503898Y-75552530D01*
X203527102Y-75544654D01*
X203548323Y-75532402D01*
X203566746Y-75516246D01*
X203581664Y-75496805D01*
X203592502Y-75474828D01*
X203598844Y-75451159D01*
X203600447Y-75426708D01*
X203597249Y-75402413D01*
X203589371Y-75379206D01*
X203582200Y-75363379D01*
X203579391Y-75355106D01*
X203567139Y-75333884D01*
X203550983Y-75315461D01*
X203531543Y-75300544D01*
X203509566Y-75289706D01*
X203485896Y-75283364D01*
X203461445Y-75281761D01*
X203437150Y-75284959D01*
X203413947Y-75292836D01*
X203403028Y-75298444D01*
X203397126Y-75301852D01*
X203377209Y-75316127D01*
X203360459Y-75334012D01*
X203347520Y-75354822D01*
X203338890Y-75377756D01*
X203334900Y-75401933D01*
X201408103Y-75401933D01*
X201383094Y-75358618D01*
X201377518Y-75346311D01*
X201375855Y-75339180D01*
X201375616Y-75331850D01*
X201376809Y-75324620D01*
X201379393Y-75317754D01*
X201383263Y-75311531D01*
X201388271Y-75306184D01*
X201395954Y-75300679D01*
X201414377Y-75284523D01*
X201429295Y-75265084D01*
X201440134Y-75243107D01*
X201446478Y-75219438D01*
X201447395Y-75205436D01*
X202494272Y-75205436D01*
X202497470Y-75229731D01*
X202505346Y-75252935D01*
X202517598Y-75274156D01*
X202533754Y-75292579D01*
X202553195Y-75307497D01*
X202575172Y-75318335D01*
X202598841Y-75324677D01*
X202623292Y-75326280D01*
X202647587Y-75323082D01*
X202670794Y-75315204D01*
X202686623Y-75308031D01*
X202694899Y-75305222D01*
X202716120Y-75292969D01*
X202734542Y-75276811D01*
X202749458Y-75257370D01*
X202760295Y-75235392D01*
X202766636Y-75211723D01*
X202768238Y-75187271D01*
X202765038Y-75162977D01*
X202751562Y-75128875D01*
X202748155Y-75122973D01*
X202733884Y-75103054D01*
X202716000Y-75086302D01*
X202700927Y-75076927D01*
X203897818Y-75076927D01*
X203898620Y-75101418D01*
X203904184Y-75125281D01*
X203914297Y-75147601D01*
X203924599Y-75160582D01*
X203924145Y-75160907D01*
X203936821Y-75178598D01*
X203952977Y-75197021D01*
X203972416Y-75211939D01*
X203994393Y-75222778D01*
X204018062Y-75229122D01*
X204042513Y-75230725D01*
X204066808Y-75227528D01*
X204090012Y-75219652D01*
X204111234Y-75207401D01*
X204129657Y-75191245D01*
X204144575Y-75171806D01*
X204155414Y-75149829D01*
X204161758Y-75126160D01*
X204163361Y-75101709D01*
X204160164Y-75077414D01*
X204152286Y-75054206D01*
X204145116Y-75038381D01*
X204142305Y-75030101D01*
X204130052Y-75008880D01*
X204113894Y-74990458D01*
X204094453Y-74975542D01*
X204072475Y-74964705D01*
X204048806Y-74958364D01*
X204024354Y-74956762D01*
X204000060Y-74959962D01*
X203965950Y-74973442D01*
X203960049Y-74976849D01*
X203940131Y-74991122D01*
X203923380Y-75009007D01*
X203910440Y-75029816D01*
X203901809Y-75052750D01*
X203897818Y-75076927D01*
X202700927Y-75076927D01*
X202695192Y-75073360D01*
X202672259Y-75064727D01*
X202648083Y-75060734D01*
X202623592Y-75061534D01*
X202599727Y-75067097D01*
X202577407Y-75077209D01*
X202557488Y-75091480D01*
X202556239Y-75092689D01*
X202546396Y-75099742D01*
X202527973Y-75115898D01*
X202513055Y-75135339D01*
X202502217Y-75157316D01*
X202495875Y-75180985D01*
X202494272Y-75205436D01*
X201447395Y-75205436D01*
X201448081Y-75194987D01*
X201444884Y-75170692D01*
X201437008Y-75147488D01*
X201424757Y-75126266D01*
X201408601Y-75107843D01*
X201389162Y-75092925D01*
X201367185Y-75082086D01*
X201343516Y-75075742D01*
X201319065Y-75074139D01*
X201294770Y-75077336D01*
X201271562Y-75085214D01*
X201262951Y-75089116D01*
X201255815Y-75090780D01*
X201248485Y-75091019D01*
X201241255Y-75089826D01*
X201234391Y-75087242D01*
X201228162Y-75083369D01*
X201222817Y-75078363D01*
X201214952Y-75067387D01*
X201058094Y-74795702D01*
X201052518Y-74783395D01*
X201050855Y-74776264D01*
X201050616Y-74768934D01*
X201051809Y-74761704D01*
X201054393Y-74754838D01*
X201058263Y-74748615D01*
X201063272Y-74743267D01*
X201070960Y-74737758D01*
X201089383Y-74721602D01*
X201104301Y-74702161D01*
X201115139Y-74680184D01*
X201121481Y-74656515D01*
X201122398Y-74642513D01*
X202169275Y-74642513D01*
X202172472Y-74666808D01*
X202180348Y-74690012D01*
X202192599Y-74711234D01*
X202208755Y-74729657D01*
X202228194Y-74744575D01*
X202250171Y-74755414D01*
X202273840Y-74761758D01*
X202298291Y-74763361D01*
X202322586Y-74760164D01*
X202345794Y-74752286D01*
X202346608Y-74751917D01*
X204460734Y-74751917D01*
X204461534Y-74776408D01*
X204467097Y-74800273D01*
X204477209Y-74822593D01*
X204491480Y-74842512D01*
X204492689Y-74843761D01*
X204499742Y-74853604D01*
X204515898Y-74872027D01*
X204535339Y-74886945D01*
X204557316Y-74897783D01*
X204580985Y-74904125D01*
X204605436Y-74905728D01*
X204629731Y-74902530D01*
X204652935Y-74894654D01*
X204674156Y-74882402D01*
X204692579Y-74866246D01*
X204707497Y-74846805D01*
X204718335Y-74824828D01*
X204724677Y-74801159D01*
X204726280Y-74776708D01*
X204723082Y-74752413D01*
X204715204Y-74729206D01*
X204708031Y-74713377D01*
X204705222Y-74705101D01*
X204692969Y-74683880D01*
X204676811Y-74665458D01*
X204657370Y-74650542D01*
X204635392Y-74639705D01*
X204611723Y-74633364D01*
X204587271Y-74631762D01*
X204562977Y-74634962D01*
X204528875Y-74648438D01*
X204522973Y-74651845D01*
X204503054Y-74666116D01*
X204486302Y-74684000D01*
X204473360Y-74704808D01*
X204464727Y-74727741D01*
X204460734Y-74751917D01*
X202346608Y-74751917D01*
X202361619Y-74745116D01*
X202369899Y-74742305D01*
X202391120Y-74730052D01*
X202409542Y-74713894D01*
X202424458Y-74694453D01*
X202435295Y-74672475D01*
X202441636Y-74648806D01*
X202443238Y-74624354D01*
X202440038Y-74600060D01*
X202426558Y-74565950D01*
X202423151Y-74560049D01*
X202408878Y-74540131D01*
X202390993Y-74523380D01*
X202370184Y-74510440D01*
X202347250Y-74501809D01*
X202323073Y-74497818D01*
X202298582Y-74498620D01*
X202274719Y-74504184D01*
X202252399Y-74514297D01*
X202239418Y-74524599D01*
X202239093Y-74524145D01*
X202221402Y-74536821D01*
X202202979Y-74552977D01*
X202188061Y-74572416D01*
X202177222Y-74594393D01*
X202170878Y-74618062D01*
X202169275Y-74642513D01*
X201122398Y-74642513D01*
X201123084Y-74632064D01*
X201119886Y-74607769D01*
X201112010Y-74584565D01*
X201099758Y-74563344D01*
X201083602Y-74544921D01*
X201064161Y-74530003D01*
X201042184Y-74519165D01*
X201018515Y-74512823D01*
X200994064Y-74511220D01*
X200969769Y-74514418D01*
X200946562Y-74522296D01*
X200937948Y-74526199D01*
X200930815Y-74527863D01*
X200923485Y-74528102D01*
X200916255Y-74526909D01*
X200909391Y-74524325D01*
X200903162Y-74520452D01*
X200897817Y-74515446D01*
X200889952Y-74504470D01*
X200733094Y-74232785D01*
X200727518Y-74220478D01*
X200725855Y-74213347D01*
X200725616Y-74206017D01*
X200726809Y-74198787D01*
X200729393Y-74191921D01*
X200733263Y-74185698D01*
X200738274Y-74180348D01*
X200749245Y-74172487D01*
X200798045Y-74144312D01*
X200798058Y-74144303D01*
X200910121Y-74079603D01*
X201844272Y-74079603D01*
X201847470Y-74103898D01*
X201855346Y-74127102D01*
X201867598Y-74148323D01*
X201883754Y-74166746D01*
X201903195Y-74181664D01*
X201925172Y-74192502D01*
X201948841Y-74198844D01*
X201973292Y-74200447D01*
X201997587Y-74197249D01*
X202020794Y-74189371D01*
X202036621Y-74182200D01*
X202044894Y-74179391D01*
X202066116Y-74167139D01*
X202084539Y-74150983D01*
X202099456Y-74131543D01*
X202110294Y-74109566D01*
X202116636Y-74085896D01*
X202118239Y-74061445D01*
X202115041Y-74037150D01*
X202107164Y-74013947D01*
X202101556Y-74003028D01*
X202098148Y-73997126D01*
X202083873Y-73977209D01*
X202065988Y-73960459D01*
X202045178Y-73947520D01*
X202022244Y-73938890D01*
X202020215Y-73938555D01*
X204681761Y-73938555D01*
X204684959Y-73962850D01*
X204692836Y-73986053D01*
X204698444Y-73996972D01*
X204701852Y-74002874D01*
X204716127Y-74022791D01*
X204734012Y-74039541D01*
X204754822Y-74052480D01*
X204777756Y-74061110D01*
X204801933Y-74065100D01*
X204826424Y-74064297D01*
X204850288Y-74058731D01*
X204872607Y-74048617D01*
X204885585Y-74038316D01*
X204885910Y-74038770D01*
X204903604Y-74026091D01*
X204922027Y-74009935D01*
X204936945Y-73990494D01*
X204947783Y-73968517D01*
X204954125Y-73944848D01*
X204955728Y-73920397D01*
X204952530Y-73896102D01*
X204944654Y-73872898D01*
X204932402Y-73851677D01*
X204916246Y-73833254D01*
X204896805Y-73818336D01*
X204874828Y-73807498D01*
X204851159Y-73801156D01*
X204826708Y-73799553D01*
X204802413Y-73802751D01*
X204779206Y-73810629D01*
X204763379Y-73817800D01*
X204755106Y-73820609D01*
X204733884Y-73832861D01*
X204715461Y-73849017D01*
X204700544Y-73868457D01*
X204689706Y-73890434D01*
X204683364Y-73914104D01*
X204681761Y-73938555D01*
X202020215Y-73938555D01*
X201998067Y-73934900D01*
X201973576Y-73935703D01*
X201949712Y-73941269D01*
X201927393Y-73951383D01*
X201914415Y-73961684D01*
X201914090Y-73961230D01*
X201896396Y-73973909D01*
X201877973Y-73990065D01*
X201863055Y-74009506D01*
X201852217Y-74031483D01*
X201845875Y-74055152D01*
X201844272Y-74079603D01*
X200910121Y-74079603D01*
X201643298Y-73656303D01*
X201643311Y-73656297D01*
X201685303Y-73632053D01*
X201705221Y-73617780D01*
X201721971Y-73599896D01*
X201734911Y-73579087D01*
X201743543Y-73556153D01*
X201747534Y-73531976D01*
X201746733Y-73507485D01*
X201741168Y-73483621D01*
X201731055Y-73461301D01*
X201706811Y-73419309D01*
X201706803Y-73419298D01*
X201681601Y-73375646D01*
X204356762Y-73375646D01*
X204359962Y-73399940D01*
X204373442Y-73434050D01*
X204376849Y-73439951D01*
X204391122Y-73459869D01*
X204409007Y-73476620D01*
X204429816Y-73489560D01*
X204452750Y-73498191D01*
X204476927Y-73502182D01*
X204501418Y-73501380D01*
X204525281Y-73495816D01*
X204547601Y-73485703D01*
X204560582Y-73475401D01*
X204560907Y-73475855D01*
X204578598Y-73463179D01*
X204597021Y-73447023D01*
X204611939Y-73427584D01*
X204622778Y-73405607D01*
X204629122Y-73381938D01*
X204630725Y-73357487D01*
X204627528Y-73333192D01*
X204619652Y-73309988D01*
X204607401Y-73288766D01*
X204591245Y-73270343D01*
X204571806Y-73255425D01*
X204549829Y-73244586D01*
X204526160Y-73238242D01*
X204501709Y-73236639D01*
X204477414Y-73239836D01*
X204454206Y-73247714D01*
X204438381Y-73254884D01*
X204430101Y-73257695D01*
X204408880Y-73269948D01*
X204390458Y-73286106D01*
X204375542Y-73305547D01*
X204364705Y-73327525D01*
X204358364Y-73351194D01*
X204356762Y-73375646D01*
X201681601Y-73375646D01*
X201593639Y-73223292D01*
X202073720Y-73223292D01*
X202076918Y-73247587D01*
X202084796Y-73270794D01*
X202091969Y-73286623D01*
X202094778Y-73294899D01*
X202107031Y-73316120D01*
X202123189Y-73334542D01*
X202142630Y-73349458D01*
X202164608Y-73360295D01*
X202188277Y-73366636D01*
X202212729Y-73368238D01*
X202237023Y-73365038D01*
X202271125Y-73351562D01*
X202277027Y-73348155D01*
X202296946Y-73333884D01*
X202313698Y-73316000D01*
X202326640Y-73295192D01*
X202335273Y-73272259D01*
X202339266Y-73248083D01*
X202338466Y-73223592D01*
X202332903Y-73199727D01*
X202322791Y-73177407D01*
X202308520Y-73157488D01*
X202307311Y-73156239D01*
X202300258Y-73146396D01*
X202284102Y-73127973D01*
X202264661Y-73113055D01*
X202242684Y-73102217D01*
X202219015Y-73095875D01*
X202194564Y-73094272D01*
X202170269Y-73097470D01*
X202147065Y-73105346D01*
X202125844Y-73117598D01*
X202107421Y-73133754D01*
X202092503Y-73153195D01*
X202081665Y-73175172D01*
X202075323Y-73198841D01*
X202073720Y-73223292D01*
X201593639Y-73223292D01*
X201406000Y-72898291D01*
X202636639Y-72898291D01*
X202639836Y-72922586D01*
X202647714Y-72945794D01*
X202654884Y-72961619D01*
X202657695Y-72969899D01*
X202669948Y-72991120D01*
X202686106Y-73009542D01*
X202705547Y-73024458D01*
X202727525Y-73035295D01*
X202751194Y-73041636D01*
X202775646Y-73043238D01*
X202799940Y-73040038D01*
X202834050Y-73026558D01*
X202839951Y-73023151D01*
X202859869Y-73008878D01*
X202876620Y-72990993D01*
X202889560Y-72970184D01*
X202898191Y-72947250D01*
X202902182Y-72923073D01*
X202901380Y-72898582D01*
X202895816Y-72874719D01*
X202885703Y-72852399D01*
X202875401Y-72839418D01*
X202875855Y-72839093D01*
X202863179Y-72821402D01*
X202855574Y-72812729D01*
X204031762Y-72812729D01*
X204034962Y-72837023D01*
X204048438Y-72871125D01*
X204051845Y-72877027D01*
X204066116Y-72896946D01*
X204084000Y-72913698D01*
X204104808Y-72926640D01*
X204127741Y-72935273D01*
X204151917Y-72939266D01*
X204176408Y-72938466D01*
X204200273Y-72932903D01*
X204222593Y-72922791D01*
X204242512Y-72908520D01*
X204243761Y-72907311D01*
X204253604Y-72900258D01*
X204272027Y-72884102D01*
X204286945Y-72864661D01*
X204297783Y-72842684D01*
X204304125Y-72819015D01*
X204305728Y-72794564D01*
X204302530Y-72770269D01*
X204294654Y-72747065D01*
X204282402Y-72725844D01*
X204266246Y-72707421D01*
X204246805Y-72692503D01*
X204224828Y-72681665D01*
X204201159Y-72675323D01*
X204176708Y-72673720D01*
X204152413Y-72676918D01*
X204129206Y-72684796D01*
X204113377Y-72691969D01*
X204105101Y-72694778D01*
X204083880Y-72707031D01*
X204065458Y-72723189D01*
X204050542Y-72742630D01*
X204039705Y-72764608D01*
X204033364Y-72788277D01*
X204031762Y-72812729D01*
X202855574Y-72812729D01*
X202847023Y-72802979D01*
X202827584Y-72788061D01*
X202805607Y-72777222D01*
X202781938Y-72770878D01*
X202757487Y-72769275D01*
X202733192Y-72772472D01*
X202709988Y-72780348D01*
X202688766Y-72792599D01*
X202670343Y-72808755D01*
X202655425Y-72828194D01*
X202644586Y-72850171D01*
X202638242Y-72873840D01*
X202636639Y-72898291D01*
X201406000Y-72898291D01*
X201218803Y-72574058D01*
X201218799Y-72574049D01*
X201218362Y-72573292D01*
X203199553Y-72573292D01*
X203202751Y-72597587D01*
X203210629Y-72620794D01*
X203217800Y-72636621D01*
X203220609Y-72644894D01*
X203232861Y-72666116D01*
X203249017Y-72684539D01*
X203268457Y-72699456D01*
X203290434Y-72710294D01*
X203314104Y-72716636D01*
X203338555Y-72718239D01*
X203362850Y-72715041D01*
X203386053Y-72707164D01*
X203396972Y-72701556D01*
X203402874Y-72698148D01*
X203422791Y-72683873D01*
X203439541Y-72665988D01*
X203452480Y-72645178D01*
X203461110Y-72622244D01*
X203465100Y-72598067D01*
X203464297Y-72573576D01*
X203458731Y-72549712D01*
X203448617Y-72527393D01*
X203438316Y-72514415D01*
X203438770Y-72514090D01*
X203426091Y-72496396D01*
X203409935Y-72477973D01*
X203390494Y-72463055D01*
X203368517Y-72452217D01*
X203344848Y-72445875D01*
X203320397Y-72444272D01*
X203296102Y-72447470D01*
X203272898Y-72455346D01*
X203251677Y-72467598D01*
X203233254Y-72483754D01*
X203218336Y-72503195D01*
X203207498Y-72525172D01*
X203201156Y-72548841D01*
X203199553Y-72573292D01*
X201218362Y-72573292D01*
X201190623Y-72525247D01*
X201185051Y-72512948D01*
X201183387Y-72505815D01*
X201183148Y-72498485D01*
X201184341Y-72491255D01*
X201186925Y-72484391D01*
X201190798Y-72478162D01*
X201195804Y-72472817D01*
X201206780Y-72464952D01*
X201478465Y-72308094D01*
X201490772Y-72302518D01*
X201497903Y-72300855D01*
X201505233Y-72300616D01*
X201512463Y-72301809D01*
X201519329Y-72304393D01*
X201525552Y-72308263D01*
X201530900Y-72313272D01*
X201536409Y-72320960D01*
X201552565Y-72339383D01*
X201572006Y-72354301D01*
X201593983Y-72365139D01*
X201617652Y-72371481D01*
X201642103Y-72373084D01*
X201666398Y-72369886D01*
X201689602Y-72362010D01*
X201710823Y-72349758D01*
X201729246Y-72333602D01*
X201744164Y-72314161D01*
X201755002Y-72292184D01*
X201761344Y-72268515D01*
X201762947Y-72244064D01*
X201759749Y-72219769D01*
X201751871Y-72196562D01*
X201747968Y-72187948D01*
X201746304Y-72180815D01*
X201746065Y-72173485D01*
X201747258Y-72166255D01*
X201749842Y-72159391D01*
X201753715Y-72153162D01*
X201758721Y-72147817D01*
X201769697Y-72139952D01*
X202041382Y-71983094D01*
X202053689Y-71977518D01*
X202060820Y-71975855D01*
X202068150Y-71975616D01*
X202075380Y-71976809D01*
X202082246Y-71979393D01*
X202088469Y-71983263D01*
X202093816Y-71988271D01*
X202099321Y-71995954D01*
X202115477Y-72014377D01*
X202134916Y-72029295D01*
X202156893Y-72040134D01*
X202180562Y-72046478D01*
X202205013Y-72048081D01*
X202229308Y-72044884D01*
X202252512Y-72037008D01*
X202273734Y-72024757D01*
X202292157Y-72008601D01*
X202307075Y-71989162D01*
X202317914Y-71967185D01*
X202324258Y-71943516D01*
X202325861Y-71919065D01*
X202322664Y-71894770D01*
X202314786Y-71871562D01*
X202310884Y-71862951D01*
X202309220Y-71855815D01*
X202308981Y-71848485D01*
X202310174Y-71841255D01*
X202312758Y-71834391D01*
X202316631Y-71828162D01*
X202321637Y-71822817D01*
X202332613Y-71814952D01*
X202604298Y-71658094D01*
X202616605Y-71652518D01*
X202623736Y-71650855D01*
X202631066Y-71650616D01*
X202638296Y-71651809D01*
X202645162Y-71654393D01*
X202651385Y-71658263D01*
X202656733Y-71663272D01*
X202662242Y-71670960D01*
X202678398Y-71689383D01*
X202697839Y-71704301D01*
X202719816Y-71715139D01*
X202743485Y-71721481D01*
X202767936Y-71723084D01*
X202792231Y-71719886D01*
X202815435Y-71712010D01*
X202836656Y-71699758D01*
X202855079Y-71683602D01*
X202869997Y-71664161D01*
X202880835Y-71642184D01*
X202887177Y-71618515D01*
X202888780Y-71594064D01*
X202885582Y-71569769D01*
X202877704Y-71546562D01*
X202873801Y-71537948D01*
X202872137Y-71530815D01*
X202871898Y-71523485D01*
X202873091Y-71516255D01*
X202875675Y-71509391D01*
X202879548Y-71503162D01*
X202884554Y-71497817D01*
X202895530Y-71489952D01*
X203167215Y-71333094D01*
X203179522Y-71327518D01*
X203186653Y-71325855D01*
X203193983Y-71325616D01*
X203201213Y-71326809D01*
X203201213Y-71326809D01*
G37*
G36*
X156751000Y-75831000D02*
G01*
X155649000Y-75831000D01*
X155649000Y-73229000D01*
X156751000Y-73229000D01*
X156751000Y-75831000D01*
X156751000Y-75831000D01*
G37*
G36*
X158751000Y-75831000D02*
G01*
X157649000Y-75831000D01*
X157649000Y-73229000D01*
X158751000Y-73229000D01*
X158751000Y-75831000D01*
X158751000Y-75831000D01*
G37*
G36*
X160751000Y-75831000D02*
G01*
X159649000Y-75831000D01*
X159649000Y-73229000D01*
X160751000Y-73229000D01*
X160751000Y-75831000D01*
X160751000Y-75831000D01*
G37*
G36*
X162751000Y-75831000D02*
G01*
X161649000Y-75831000D01*
X161649000Y-73229000D01*
X162751000Y-73229000D01*
X162751000Y-75831000D01*
X162751000Y-75831000D01*
G37*
G36*
X164751000Y-75831000D02*
G01*
X163649000Y-75831000D01*
X163649000Y-73229000D01*
X164751000Y-73229000D01*
X164751000Y-75831000D01*
X164751000Y-75831000D01*
G37*
G36*
X166751000Y-75831000D02*
G01*
X165649000Y-75831000D01*
X165649000Y-73229000D01*
X166751000Y-73229000D01*
X166751000Y-75831000D01*
X166751000Y-75831000D01*
G37*
G36*
X168751000Y-75831000D02*
G01*
X167649000Y-75831000D01*
X167649000Y-73229000D01*
X168751000Y-73229000D01*
X168751000Y-75831000D01*
X168751000Y-75831000D01*
G37*
G36*
X170751000Y-75831000D02*
G01*
X169649000Y-75831000D01*
X169649000Y-73229000D01*
X170751000Y-73229000D01*
X170751000Y-75831000D01*
X170751000Y-75831000D01*
G37*
G36*
X176229591Y-73378085D02*
G01*
X176263569Y-73388393D01*
X176294890Y-73405134D01*
X176322339Y-73427661D01*
X176344866Y-73455110D01*
X176361607Y-73486431D01*
X176371915Y-73520409D01*
X176376000Y-73561890D01*
X176376000Y-74238110D01*
X176371915Y-74279591D01*
X176361607Y-74313569D01*
X176344866Y-74344890D01*
X176322339Y-74372339D01*
X176294890Y-74394866D01*
X176263569Y-74411607D01*
X176229591Y-74421915D01*
X176188110Y-74426000D01*
X175586890Y-74426000D01*
X175545409Y-74421915D01*
X175511431Y-74411607D01*
X175480110Y-74394866D01*
X175452661Y-74372339D01*
X175430134Y-74344890D01*
X175413393Y-74313569D01*
X175403085Y-74279591D01*
X175399000Y-74238110D01*
X175399000Y-73561890D01*
X175403085Y-73520409D01*
X175413393Y-73486431D01*
X175430134Y-73455110D01*
X175452661Y-73427661D01*
X175480110Y-73405134D01*
X175511431Y-73388393D01*
X175545409Y-73378085D01*
X175586890Y-73374000D01*
X176188110Y-73374000D01*
X176229591Y-73378085D01*
X176229591Y-73378085D01*
G37*
G36*
X174654591Y-73378085D02*
G01*
X174688569Y-73388393D01*
X174719890Y-73405134D01*
X174747339Y-73427661D01*
X174769866Y-73455110D01*
X174786607Y-73486431D01*
X174796915Y-73520409D01*
X174801000Y-73561890D01*
X174801000Y-74238110D01*
X174796915Y-74279591D01*
X174786607Y-74313569D01*
X174769866Y-74344890D01*
X174747339Y-74372339D01*
X174719890Y-74394866D01*
X174688569Y-74411607D01*
X174654591Y-74421915D01*
X174613110Y-74426000D01*
X174011890Y-74426000D01*
X173970409Y-74421915D01*
X173936431Y-74411607D01*
X173905110Y-74394866D01*
X173877661Y-74372339D01*
X173855134Y-74344890D01*
X173838393Y-74313569D01*
X173828085Y-74279591D01*
X173824000Y-74238110D01*
X173824000Y-73561890D01*
X173828085Y-73520409D01*
X173838393Y-73486431D01*
X173855134Y-73455110D01*
X173877661Y-73427661D01*
X173905110Y-73405134D01*
X173936431Y-73388393D01*
X173970409Y-73378085D01*
X174011890Y-73374000D01*
X174613110Y-73374000D01*
X174654591Y-73378085D01*
X174654591Y-73378085D01*
G37*
G36*
X182829591Y-73253085D02*
G01*
X182863569Y-73263393D01*
X182894890Y-73280134D01*
X182922339Y-73302661D01*
X182944866Y-73330110D01*
X182961607Y-73361431D01*
X182971915Y-73395409D01*
X182976000Y-73436890D01*
X182976000Y-74113110D01*
X182971915Y-74154591D01*
X182961607Y-74188569D01*
X182944866Y-74219890D01*
X182922339Y-74247339D01*
X182894890Y-74269866D01*
X182863569Y-74286607D01*
X182829591Y-74296915D01*
X182788110Y-74301000D01*
X182186890Y-74301000D01*
X182145409Y-74296915D01*
X182111431Y-74286607D01*
X182080110Y-74269866D01*
X182052661Y-74247339D01*
X182030134Y-74219890D01*
X182013393Y-74188569D01*
X182003085Y-74154591D01*
X181999000Y-74113110D01*
X181999000Y-73436890D01*
X182003085Y-73395409D01*
X182013393Y-73361431D01*
X182030134Y-73330110D01*
X182052661Y-73302661D01*
X182080110Y-73280134D01*
X182111431Y-73263393D01*
X182145409Y-73253085D01*
X182186890Y-73249000D01*
X182788110Y-73249000D01*
X182829591Y-73253085D01*
X182829591Y-73253085D01*
G37*
G36*
X181254591Y-73253085D02*
G01*
X181288569Y-73263393D01*
X181319890Y-73280134D01*
X181347339Y-73302661D01*
X181369866Y-73330110D01*
X181386607Y-73361431D01*
X181396915Y-73395409D01*
X181401000Y-73436890D01*
X181401000Y-74113110D01*
X181396915Y-74154591D01*
X181386607Y-74188569D01*
X181369866Y-74219890D01*
X181347339Y-74247339D01*
X181319890Y-74269866D01*
X181288569Y-74286607D01*
X181254591Y-74296915D01*
X181213110Y-74301000D01*
X180611890Y-74301000D01*
X180570409Y-74296915D01*
X180536431Y-74286607D01*
X180505110Y-74269866D01*
X180477661Y-74247339D01*
X180455134Y-74219890D01*
X180438393Y-74188569D01*
X180428085Y-74154591D01*
X180424000Y-74113110D01*
X180424000Y-73436890D01*
X180428085Y-73395409D01*
X180438393Y-73361431D01*
X180455134Y-73330110D01*
X180477661Y-73302661D01*
X180505110Y-73280134D01*
X180536431Y-73263393D01*
X180570409Y-73253085D01*
X180611890Y-73249000D01*
X181213110Y-73249000D01*
X181254591Y-73253085D01*
X181254591Y-73253085D01*
G37*
G36*
X207958420Y-72867274D02*
G01*
X207991651Y-72879781D01*
X208021805Y-72898532D01*
X208047726Y-72922810D01*
X208072003Y-72956688D01*
X208100178Y-73005489D01*
X208100184Y-73005497D01*
X208381788Y-73493250D01*
X208410113Y-73542311D01*
X208427314Y-73580275D01*
X208435379Y-73614862D01*
X208436540Y-73650348D01*
X208430755Y-73685388D01*
X208418247Y-73718623D01*
X208399495Y-73748778D01*
X208375219Y-73774697D01*
X208341341Y-73798974D01*
X208292540Y-73827150D01*
X208292532Y-73827155D01*
X207869478Y-74071405D01*
X207869475Y-74071406D01*
X207820670Y-74099584D01*
X207782706Y-74116785D01*
X207748119Y-74124850D01*
X207712633Y-74126011D01*
X207677590Y-74120226D01*
X207644359Y-74107719D01*
X207614205Y-74088968D01*
X207588284Y-74064690D01*
X207564007Y-74030812D01*
X207535832Y-73982011D01*
X207535826Y-73982003D01*
X207254076Y-73493997D01*
X207254075Y-73493994D01*
X207225897Y-73445189D01*
X207208696Y-73407225D01*
X207200631Y-73372638D01*
X207199470Y-73337152D01*
X207205255Y-73302112D01*
X207217763Y-73268877D01*
X207236515Y-73238722D01*
X207260791Y-73212803D01*
X207294669Y-73188526D01*
X207343470Y-73160350D01*
X207343478Y-73160345D01*
X207766532Y-72916095D01*
X207766535Y-72916094D01*
X207815340Y-72887916D01*
X207853304Y-72870715D01*
X207887891Y-72862650D01*
X207923377Y-72861489D01*
X207958420Y-72867274D01*
X207958420Y-72867274D01*
G37*
G36*
X198245388Y-72319245D02*
G01*
X198278623Y-72331753D01*
X198308778Y-72350505D01*
X198334697Y-72374781D01*
X198358974Y-72408659D01*
X198387150Y-72457460D01*
X198387155Y-72457468D01*
X198629387Y-72877027D01*
X198659584Y-72929330D01*
X198676785Y-72967294D01*
X198684850Y-73001881D01*
X198686011Y-73037367D01*
X198680226Y-73072410D01*
X198667719Y-73105641D01*
X198648968Y-73135795D01*
X198624690Y-73161716D01*
X198590812Y-73185993D01*
X198542011Y-73214168D01*
X198542003Y-73214174D01*
X198053997Y-73495924D01*
X198053994Y-73495925D01*
X198005189Y-73524103D01*
X197967225Y-73541304D01*
X197932638Y-73549369D01*
X197897152Y-73550530D01*
X197862112Y-73544745D01*
X197828877Y-73532237D01*
X197798722Y-73513485D01*
X197772803Y-73489209D01*
X197748526Y-73455331D01*
X197720350Y-73406530D01*
X197720345Y-73406522D01*
X197476095Y-72983468D01*
X197476094Y-72983465D01*
X197447916Y-72934660D01*
X197430715Y-72896696D01*
X197422650Y-72862109D01*
X197421489Y-72826623D01*
X197427274Y-72791580D01*
X197439781Y-72758349D01*
X197458532Y-72728195D01*
X197482810Y-72702274D01*
X197516688Y-72677997D01*
X197565489Y-72649822D01*
X197565497Y-72649816D01*
X198053503Y-72368066D01*
X198053506Y-72368065D01*
X198102311Y-72339887D01*
X198140275Y-72322686D01*
X198174862Y-72314621D01*
X198210348Y-72313460D01*
X198245388Y-72319245D01*
X198245388Y-72319245D01*
G37*
G36*
X209322410Y-72079774D02*
G01*
X209355641Y-72092281D01*
X209385795Y-72111032D01*
X209411716Y-72135310D01*
X209435993Y-72169188D01*
X209464168Y-72217989D01*
X209464174Y-72217997D01*
X209745682Y-72705584D01*
X209774103Y-72754811D01*
X209791304Y-72792775D01*
X209799369Y-72827362D01*
X209800530Y-72862848D01*
X209794745Y-72897888D01*
X209782237Y-72931123D01*
X209763485Y-72961278D01*
X209739209Y-72987197D01*
X209705331Y-73011474D01*
X209656530Y-73039650D01*
X209656522Y-73039655D01*
X209233468Y-73283905D01*
X209233465Y-73283906D01*
X209184660Y-73312084D01*
X209146696Y-73329285D01*
X209112109Y-73337350D01*
X209076623Y-73338511D01*
X209041580Y-73332726D01*
X209008349Y-73320219D01*
X208978195Y-73301468D01*
X208952274Y-73277190D01*
X208927997Y-73243312D01*
X208899822Y-73194511D01*
X208899816Y-73194503D01*
X208618066Y-72706497D01*
X208618065Y-72706494D01*
X208589887Y-72657689D01*
X208572686Y-72619725D01*
X208564621Y-72585138D01*
X208563460Y-72549652D01*
X208569245Y-72514612D01*
X208581753Y-72481377D01*
X208600505Y-72451222D01*
X208624781Y-72425303D01*
X208658659Y-72401026D01*
X208707460Y-72372850D01*
X208707468Y-72372845D01*
X209130522Y-72128595D01*
X209130525Y-72128594D01*
X209179330Y-72100416D01*
X209217294Y-72083215D01*
X209251881Y-72075150D01*
X209287367Y-72073989D01*
X209322410Y-72079774D01*
X209322410Y-72079774D01*
G37*
G36*
X197457888Y-70955255D02*
G01*
X197491123Y-70967763D01*
X197521278Y-70986515D01*
X197547197Y-71010791D01*
X197571474Y-71044669D01*
X197599650Y-71093470D01*
X197599655Y-71093478D01*
X197836876Y-71504358D01*
X197872084Y-71565340D01*
X197889285Y-71603304D01*
X197897350Y-71637891D01*
X197898511Y-71673377D01*
X197892726Y-71708420D01*
X197880219Y-71741651D01*
X197861468Y-71771805D01*
X197837190Y-71797726D01*
X197803312Y-71822003D01*
X197754511Y-71850178D01*
X197754503Y-71850184D01*
X197266497Y-72131934D01*
X197266494Y-72131935D01*
X197217689Y-72160113D01*
X197179725Y-72177314D01*
X197145138Y-72185379D01*
X197109652Y-72186540D01*
X197074612Y-72180755D01*
X197041377Y-72168247D01*
X197011222Y-72149495D01*
X196985303Y-72125219D01*
X196961026Y-72091341D01*
X196932850Y-72042540D01*
X196932845Y-72042532D01*
X196688595Y-71619478D01*
X196688594Y-71619475D01*
X196660416Y-71570670D01*
X196643215Y-71532706D01*
X196635150Y-71498119D01*
X196633989Y-71462633D01*
X196639774Y-71427590D01*
X196652281Y-71394359D01*
X196671032Y-71364205D01*
X196695310Y-71338284D01*
X196729188Y-71314007D01*
X196777989Y-71285832D01*
X196777997Y-71285826D01*
X197266003Y-71004076D01*
X197266006Y-71004075D01*
X197314811Y-70975897D01*
X197352775Y-70958696D01*
X197387362Y-70950631D01*
X197422848Y-70949470D01*
X197457888Y-70955255D01*
X197457888Y-70955255D01*
G37*
G36*
X183829591Y-70778085D02*
G01*
X183863569Y-70788393D01*
X183894890Y-70805134D01*
X183922339Y-70827661D01*
X183944866Y-70855110D01*
X183961607Y-70886431D01*
X183971915Y-70920409D01*
X183976000Y-70961890D01*
X183976000Y-71638110D01*
X183971915Y-71679591D01*
X183961607Y-71713569D01*
X183944866Y-71744890D01*
X183922339Y-71772339D01*
X183894890Y-71794866D01*
X183863569Y-71811607D01*
X183829591Y-71821915D01*
X183788110Y-71826000D01*
X183186890Y-71826000D01*
X183145409Y-71821915D01*
X183111431Y-71811607D01*
X183080110Y-71794866D01*
X183052661Y-71772339D01*
X183030134Y-71744890D01*
X183013393Y-71713569D01*
X183003085Y-71679591D01*
X182999000Y-71638110D01*
X182999000Y-70961890D01*
X183003085Y-70920409D01*
X183013393Y-70886431D01*
X183030134Y-70855110D01*
X183052661Y-70827661D01*
X183080110Y-70805134D01*
X183111431Y-70788393D01*
X183145409Y-70778085D01*
X183186890Y-70774000D01*
X183788110Y-70774000D01*
X183829591Y-70778085D01*
X183829591Y-70778085D01*
G37*
G36*
X182254591Y-70778085D02*
G01*
X182288569Y-70788393D01*
X182319890Y-70805134D01*
X182347339Y-70827661D01*
X182369866Y-70855110D01*
X182386607Y-70886431D01*
X182396915Y-70920409D01*
X182401000Y-70961890D01*
X182401000Y-71638110D01*
X182396915Y-71679591D01*
X182386607Y-71713569D01*
X182369866Y-71744890D01*
X182347339Y-71772339D01*
X182319890Y-71794866D01*
X182288569Y-71811607D01*
X182254591Y-71821915D01*
X182213110Y-71826000D01*
X181611890Y-71826000D01*
X181570409Y-71821915D01*
X181536431Y-71811607D01*
X181505110Y-71794866D01*
X181477661Y-71772339D01*
X181455134Y-71744890D01*
X181438393Y-71713569D01*
X181428085Y-71679591D01*
X181424000Y-71638110D01*
X181424000Y-70961890D01*
X181428085Y-70920409D01*
X181438393Y-70886431D01*
X181455134Y-70855110D01*
X181477661Y-70827661D01*
X181505110Y-70805134D01*
X181536431Y-70788393D01*
X181570409Y-70778085D01*
X181611890Y-70774000D01*
X182213110Y-70774000D01*
X182254591Y-70778085D01*
X182254591Y-70778085D01*
G37*
G36*
X206158420Y-70167274D02*
G01*
X206191651Y-70179781D01*
X206221805Y-70198532D01*
X206247726Y-70222810D01*
X206272003Y-70256688D01*
X206300178Y-70305489D01*
X206300184Y-70305497D01*
X206581408Y-70792592D01*
X206610113Y-70842311D01*
X206627314Y-70880275D01*
X206635379Y-70914862D01*
X206636540Y-70950348D01*
X206630755Y-70985388D01*
X206618247Y-71018623D01*
X206599495Y-71048778D01*
X206575219Y-71074697D01*
X206541341Y-71098974D01*
X206492540Y-71127150D01*
X206492532Y-71127155D01*
X206069478Y-71371405D01*
X206069475Y-71371406D01*
X206020670Y-71399584D01*
X205982706Y-71416785D01*
X205948119Y-71424850D01*
X205912633Y-71426011D01*
X205877590Y-71420226D01*
X205844359Y-71407719D01*
X205814205Y-71388968D01*
X205788284Y-71364690D01*
X205764007Y-71330812D01*
X205735832Y-71282011D01*
X205735826Y-71282003D01*
X205454076Y-70793997D01*
X205454075Y-70793994D01*
X205425897Y-70745189D01*
X205408696Y-70707225D01*
X205400631Y-70672638D01*
X205399470Y-70637152D01*
X205405255Y-70602112D01*
X205417763Y-70568877D01*
X205436515Y-70538722D01*
X205460791Y-70512803D01*
X205494669Y-70488526D01*
X205543470Y-70460350D01*
X205543478Y-70460345D01*
X205966532Y-70216095D01*
X205966535Y-70216094D01*
X206015340Y-70187916D01*
X206053304Y-70170715D01*
X206087891Y-70162650D01*
X206123377Y-70161489D01*
X206158420Y-70167274D01*
X206158420Y-70167274D01*
G37*
G36*
X177881000Y-71026000D02*
G01*
X176719000Y-71026000D01*
X176719000Y-68374000D01*
X177881000Y-68374000D01*
X177881000Y-71026000D01*
X177881000Y-71026000D01*
G37*
G36*
X175681000Y-71026000D02*
G01*
X174519000Y-71026000D01*
X174519000Y-70274000D01*
X175681000Y-70274000D01*
X175681000Y-71026000D01*
X175681000Y-71026000D01*
G37*
G36*
X207522410Y-69379774D02*
G01*
X207555641Y-69392281D01*
X207585795Y-69411032D01*
X207611716Y-69435310D01*
X207635993Y-69469188D01*
X207664168Y-69517989D01*
X207664174Y-69517997D01*
X207945924Y-70006003D01*
X207974103Y-70054811D01*
X207991304Y-70092775D01*
X207999369Y-70127362D01*
X208000530Y-70162848D01*
X207994745Y-70197888D01*
X207982237Y-70231123D01*
X207963485Y-70261278D01*
X207939209Y-70287197D01*
X207905331Y-70311474D01*
X207856530Y-70339650D01*
X207856522Y-70339655D01*
X207433468Y-70583905D01*
X207433465Y-70583906D01*
X207384660Y-70612084D01*
X207346696Y-70629285D01*
X207312109Y-70637350D01*
X207276623Y-70638511D01*
X207241580Y-70632726D01*
X207208349Y-70620219D01*
X207178195Y-70601468D01*
X207152274Y-70577190D01*
X207127997Y-70543312D01*
X207099822Y-70494511D01*
X207099816Y-70494503D01*
X206818066Y-70006497D01*
X206818065Y-70006494D01*
X206789887Y-69957689D01*
X206772686Y-69919725D01*
X206764621Y-69885138D01*
X206763460Y-69849652D01*
X206769245Y-69814612D01*
X206781753Y-69781377D01*
X206800505Y-69751222D01*
X206824781Y-69725303D01*
X206858659Y-69701026D01*
X206907460Y-69672850D01*
X206907468Y-69672845D01*
X207330522Y-69428595D01*
X207330525Y-69428594D01*
X207379330Y-69400416D01*
X207417294Y-69383215D01*
X207451881Y-69375150D01*
X207487367Y-69373989D01*
X207522410Y-69379774D01*
X207522410Y-69379774D01*
G37*
G36*
X182304591Y-68553085D02*
G01*
X182338569Y-68563393D01*
X182369890Y-68580134D01*
X182397339Y-68602661D01*
X182419866Y-68630110D01*
X182436607Y-68661431D01*
X182446915Y-68695409D01*
X182451000Y-68736890D01*
X182451000Y-69413110D01*
X182446915Y-69454591D01*
X182436607Y-69488569D01*
X182419866Y-69519890D01*
X182397339Y-69547339D01*
X182369890Y-69569866D01*
X182338569Y-69586607D01*
X182304591Y-69596915D01*
X182263110Y-69601000D01*
X181661890Y-69601000D01*
X181620409Y-69596915D01*
X181586431Y-69586607D01*
X181555110Y-69569866D01*
X181527661Y-69547339D01*
X181505134Y-69519890D01*
X181488393Y-69488569D01*
X181478085Y-69454591D01*
X181474000Y-69413110D01*
X181474000Y-68736890D01*
X181478085Y-68695409D01*
X181488393Y-68661431D01*
X181505134Y-68630110D01*
X181527661Y-68602661D01*
X181555110Y-68580134D01*
X181586431Y-68563393D01*
X181620409Y-68553085D01*
X181661890Y-68549000D01*
X182263110Y-68549000D01*
X182304591Y-68553085D01*
X182304591Y-68553085D01*
G37*
G36*
X183879591Y-68553085D02*
G01*
X183913569Y-68563393D01*
X183944890Y-68580134D01*
X183972339Y-68602661D01*
X183994866Y-68630110D01*
X184011607Y-68661431D01*
X184021915Y-68695409D01*
X184026000Y-68736890D01*
X184026000Y-69413110D01*
X184021915Y-69454591D01*
X184011607Y-69488569D01*
X183994866Y-69519890D01*
X183972339Y-69547339D01*
X183944890Y-69569866D01*
X183913569Y-69586607D01*
X183879591Y-69596915D01*
X183838110Y-69601000D01*
X183236890Y-69601000D01*
X183195409Y-69596915D01*
X183161431Y-69586607D01*
X183130110Y-69569866D01*
X183102661Y-69547339D01*
X183080134Y-69519890D01*
X183063393Y-69488569D01*
X183053085Y-69454591D01*
X183049000Y-69413110D01*
X183049000Y-68736890D01*
X183053085Y-68695409D01*
X183063393Y-68661431D01*
X183080134Y-68630110D01*
X183102661Y-68602661D01*
X183130110Y-68580134D01*
X183161431Y-68563393D01*
X183195409Y-68553085D01*
X183236890Y-68549000D01*
X183838110Y-68549000D01*
X183879591Y-68553085D01*
X183879591Y-68553085D01*
G37*
G36*
X175681000Y-69126000D02*
G01*
X174519000Y-69126000D01*
X174519000Y-68374000D01*
X175681000Y-68374000D01*
X175681000Y-69126000D01*
X175681000Y-69126000D01*
G37*
G36*
X202297619Y-66347451D02*
G01*
X202335372Y-66356254D01*
X202376301Y-66374799D01*
X203149702Y-66821321D01*
X203186226Y-66847495D01*
X203212721Y-66875784D01*
X203233194Y-66908705D01*
X203246847Y-66944979D01*
X203253160Y-66983221D01*
X203251892Y-67021962D01*
X203243089Y-67059715D01*
X203224544Y-67100644D01*
X202503023Y-68350357D01*
X202476848Y-68386884D01*
X202448560Y-68413378D01*
X202415638Y-68433851D01*
X202379364Y-68447504D01*
X202341122Y-68453817D01*
X202302381Y-68452549D01*
X202264628Y-68443746D01*
X202223699Y-68425201D01*
X201450298Y-67978679D01*
X201413774Y-67952505D01*
X201387279Y-67924216D01*
X201366806Y-67891295D01*
X201353153Y-67855021D01*
X201346840Y-67816779D01*
X201348108Y-67778038D01*
X201356911Y-67740285D01*
X201375456Y-67699356D01*
X202096977Y-66449643D01*
X202123152Y-66413116D01*
X202151440Y-66386622D01*
X202184362Y-66366149D01*
X202220636Y-66352496D01*
X202258878Y-66346183D01*
X202297619Y-66347451D01*
X202297619Y-66347451D01*
G37*
G36*
X180315589Y-66328876D02*
G01*
X180414893Y-66348629D01*
X180555206Y-66406748D01*
X180681484Y-66491125D01*
X180788875Y-66598516D01*
X180873252Y-66724794D01*
X180931371Y-66865107D01*
X180961000Y-67014063D01*
X180961000Y-67165937D01*
X180931371Y-67314893D01*
X180873252Y-67455206D01*
X180788875Y-67581484D01*
X180681484Y-67688875D01*
X180555206Y-67773252D01*
X180414893Y-67831371D01*
X180334510Y-67847360D01*
X180265938Y-67861000D01*
X180114062Y-67861000D01*
X180045490Y-67847360D01*
X179965107Y-67831371D01*
X179824794Y-67773252D01*
X179698516Y-67688875D01*
X179591125Y-67581484D01*
X179506748Y-67455206D01*
X179448629Y-67314893D01*
X179419000Y-67165937D01*
X179419000Y-67014063D01*
X179448629Y-66865107D01*
X179506748Y-66724794D01*
X179591125Y-66598516D01*
X179698516Y-66491125D01*
X179824794Y-66406748D01*
X179965107Y-66348629D01*
X180064411Y-66328876D01*
X180114062Y-66319000D01*
X180265938Y-66319000D01*
X180315589Y-66328876D01*
X180315589Y-66328876D01*
G37*
G36*
X200790829Y-65513290D02*
G01*
X200835820Y-65523781D01*
X200915718Y-65542410D01*
X200915720Y-65542411D01*
X201032523Y-65595334D01*
X201136758Y-65670027D01*
X201224421Y-65763624D01*
X201292137Y-65872521D01*
X201337308Y-65992535D01*
X201358197Y-66119062D01*
X201354002Y-66247224D01*
X201344795Y-66286709D01*
X201324882Y-66372113D01*
X201285218Y-66459654D01*
X201005015Y-66944979D01*
X200978244Y-66991347D01*
X200922265Y-67069466D01*
X200828668Y-67157129D01*
X200719771Y-67224845D01*
X200599757Y-67270016D01*
X200536493Y-67280461D01*
X200473232Y-67290905D01*
X200473230Y-67290905D01*
X200345069Y-67286710D01*
X200300078Y-67276219D01*
X200220180Y-67257590D01*
X200103375Y-67204666D01*
X199999139Y-67129972D01*
X199911478Y-67036377D01*
X199897602Y-67014062D01*
X199843761Y-66927479D01*
X199798590Y-66807465D01*
X199777701Y-66680938D01*
X199781896Y-66552777D01*
X199796271Y-66491125D01*
X199811016Y-66427888D01*
X199850680Y-66340347D01*
X200157653Y-65808654D01*
X200213634Y-65730533D01*
X200307229Y-65642872D01*
X200307230Y-65642871D01*
X200416127Y-65575155D01*
X200536140Y-65529984D01*
X200599403Y-65519540D01*
X200662665Y-65509095D01*
X200662667Y-65509095D01*
X200790829Y-65513290D01*
X200790829Y-65513290D01*
G37*
G36*
X199058778Y-64513290D02*
G01*
X199103769Y-64523781D01*
X199183667Y-64542410D01*
X199183669Y-64542411D01*
X199300472Y-64595334D01*
X199404707Y-64670027D01*
X199492370Y-64763624D01*
X199560086Y-64872521D01*
X199605257Y-64992535D01*
X199626146Y-65119062D01*
X199621951Y-65247224D01*
X199612744Y-65286709D01*
X199592831Y-65372113D01*
X199553167Y-65459654D01*
X199246194Y-65991346D01*
X199218203Y-66030407D01*
X199190214Y-66069466D01*
X199096617Y-66157129D01*
X198987720Y-66224845D01*
X198867706Y-66270016D01*
X198804443Y-66280460D01*
X198741181Y-66290905D01*
X198741179Y-66290905D01*
X198613018Y-66286710D01*
X198568027Y-66276219D01*
X198488129Y-66257590D01*
X198371324Y-66204666D01*
X198267088Y-66129972D01*
X198179427Y-66036377D01*
X198152166Y-65992537D01*
X198111710Y-65927479D01*
X198066539Y-65807465D01*
X198045650Y-65680938D01*
X198049845Y-65552777D01*
X198060336Y-65507786D01*
X198078965Y-65427888D01*
X198118629Y-65340347D01*
X198425602Y-64808654D01*
X198481583Y-64730533D01*
X198575178Y-64642872D01*
X198575179Y-64642871D01*
X198684076Y-64575155D01*
X198804089Y-64529984D01*
X198867352Y-64519540D01*
X198930614Y-64509095D01*
X198930616Y-64509095D01*
X199058778Y-64513290D01*
X199058778Y-64513290D01*
G37*
G36*
X184714998Y-63788876D02*
G01*
X184814302Y-63808629D01*
X184954615Y-63866748D01*
X185080893Y-63951125D01*
X185188284Y-64058516D01*
X185272661Y-64184794D01*
X185330780Y-64325107D01*
X185350533Y-64424411D01*
X185360409Y-64474062D01*
X185360409Y-64625938D01*
X185351639Y-64670027D01*
X185330780Y-64774893D01*
X185272661Y-64915206D01*
X185188284Y-65041484D01*
X185080893Y-65148875D01*
X184954615Y-65233252D01*
X184814302Y-65291371D01*
X184714998Y-65311124D01*
X184665347Y-65321000D01*
X184513471Y-65321000D01*
X184463820Y-65311124D01*
X184364516Y-65291371D01*
X184224203Y-65233252D01*
X184097925Y-65148875D01*
X183990534Y-65041484D01*
X183906157Y-64915206D01*
X183848038Y-64774893D01*
X183827179Y-64670027D01*
X183818409Y-64625938D01*
X183818409Y-64474062D01*
X183828285Y-64424411D01*
X183848038Y-64325107D01*
X183906157Y-64184794D01*
X183990534Y-64058516D01*
X184097925Y-63951125D01*
X184224203Y-63866748D01*
X184364516Y-63808629D01*
X184463820Y-63788876D01*
X184513471Y-63779000D01*
X184665347Y-63779000D01*
X184714998Y-63788876D01*
X184714998Y-63788876D01*
G37*
G36*
X197326728Y-63513290D02*
G01*
X197371719Y-63523781D01*
X197451617Y-63542410D01*
X197451619Y-63542411D01*
X197568422Y-63595334D01*
X197672657Y-63670027D01*
X197760320Y-63763624D01*
X197828036Y-63872521D01*
X197873207Y-63992535D01*
X197873207Y-63992537D01*
X197892894Y-64111778D01*
X197894096Y-64119062D01*
X197889901Y-64247224D01*
X197889900Y-64247227D01*
X197860781Y-64372113D01*
X197821117Y-64459654D01*
X197514144Y-64991346D01*
X197458164Y-65069466D01*
X197364567Y-65157129D01*
X197255670Y-65224845D01*
X197135656Y-65270016D01*
X197072392Y-65280461D01*
X197009131Y-65290905D01*
X197009129Y-65290905D01*
X196880968Y-65286710D01*
X196835977Y-65276219D01*
X196756079Y-65257590D01*
X196639274Y-65204666D01*
X196535038Y-65129972D01*
X196447377Y-65036377D01*
X196420116Y-64992537D01*
X196379660Y-64927479D01*
X196334489Y-64807465D01*
X196313600Y-64680938D01*
X196317795Y-64552777D01*
X196336149Y-64474062D01*
X196346915Y-64427888D01*
X196386579Y-64340347D01*
X196693552Y-63808654D01*
X196749533Y-63730533D01*
X196843128Y-63642872D01*
X196843129Y-63642871D01*
X196952026Y-63575155D01*
X197072039Y-63529984D01*
X197135303Y-63519539D01*
X197198564Y-63509095D01*
X197198566Y-63509095D01*
X197326728Y-63513290D01*
X197326728Y-63513290D01*
G37*
G36*
X181245294Y-62859171D02*
G01*
X181344598Y-62878924D01*
X181484911Y-62937043D01*
X181611189Y-63021420D01*
X181718580Y-63128811D01*
X181802957Y-63255089D01*
X181861076Y-63395402D01*
X181861076Y-63395404D01*
X181884526Y-63513291D01*
X181890705Y-63544358D01*
X181890705Y-63696232D01*
X181861076Y-63845188D01*
X181802957Y-63985501D01*
X181718580Y-64111779D01*
X181611189Y-64219170D01*
X181484911Y-64303547D01*
X181344598Y-64361666D01*
X181245294Y-64381419D01*
X181195643Y-64391295D01*
X181043767Y-64391295D01*
X180994116Y-64381419D01*
X180894812Y-64361666D01*
X180754499Y-64303547D01*
X180628221Y-64219170D01*
X180520830Y-64111779D01*
X180436453Y-63985501D01*
X180378334Y-63845188D01*
X180348705Y-63696232D01*
X180348705Y-63544358D01*
X180354885Y-63513291D01*
X180378334Y-63395404D01*
X180378334Y-63395402D01*
X180436453Y-63255089D01*
X180520830Y-63128811D01*
X180628221Y-63021420D01*
X180754499Y-62937043D01*
X180894812Y-62878924D01*
X180994116Y-62859171D01*
X181043767Y-62849295D01*
X181195643Y-62849295D01*
X181245294Y-62859171D01*
X181245294Y-62859171D01*
G37*
M02*
