M48
; DRILL file {KiCad (5.1.2-1)-1} date Tuesday, May 28, 2019 at 12:56:45 PM
; FORMAT={-:-/ absolute / inch / decimal}
; #@! TF.CreationDate,2019-05-28T12:56:45-07:00
; #@! TF.GenerationSoftware,Kicad,Pcbnew,(5.1.2-1)-1
; #@! TF.FileFunction,Plated,1,2,PTH
FMAT,2
INCH
T1C0.0157
T2C0.0177
T3C0.0256
T4C0.0295
T5C0.0315
T6C0.0394
T7C0.0433
%
G90
G05
T1
X6.1417Y-3.0236
X6.2323Y-3.0118
X6.239Y-3.4242
X6.4419Y-3.4222
X6.4646Y-3.0472
X6.6309Y-2.8614
X6.6663Y-3.3937
X6.8022Y-3.6083
X6.8494Y-3.2608
X6.8976Y-3.2182
X6.9468Y-2.9417
X6.9705Y-3.0876
X6.9872Y-2.8868
X6.9882Y-3.3652
X7.0152Y-2.7455
X7.0443Y-3.2333
X7.0669Y-2.751
X7.082Y-2.8688
X7.1152Y-3.7618
X7.1427Y-3.4104
X7.1565Y-2.8632
X7.1831Y-2.6752
X7.2274Y-2.877
X7.3863Y-3.9295
X7.6577Y-2.6521
X7.6713Y-2.6152
X7.7215Y-2.9695
X7.7885Y-2.7157
X7.8733Y-3.0334
X7.8804Y-3.1298
X7.8967Y-2.9557
X7.9557Y-3.0128
X8.2717Y-2.9203
T3
X6.9567Y-3.7411
X6.9977Y-3.7698
X7.0386Y-3.7985
X7.0796Y-3.8272
X7.1205Y-3.8559
X7.1615Y-3.8845
T4
X7.76Y-2.5354
X7.8282Y-2.5748
X7.8964Y-2.6142
X7.9646Y-2.6535
T5
X7.0941Y-2.6413
X7.1307Y-2.5047
X7.2673Y-2.5413
T6
X8.252Y-3.1299
X8.252Y-3.2283
T7
X7.3287Y-3.2047
X7.3835Y-3.0725
X7.3835Y-3.337
X7.648Y-3.0725
X7.648Y-3.337
X7.7028Y-3.2047
T2
G00X7.7931Y-3.9529
M15
G01X7.7773Y-3.9256
M16
G05
G00X8.0211Y-3.7849
M15
G01X8.0369Y-3.8121
M16
G05
T0
M30
